<svg height='100px' width='100px'  fill="#666666" xmlns="http://www.w3.org/2000/svg" viewBox="0 0 36 36" x="0px" y="0px"><title>Монтажная область 39</title><path d="M7.64,15.29a9.82,9.82,0,0,0,1.29,4.17l.05.08a3.62,3.62,0,0,0,.2.33,9.9,9.9,0,0,0,7.93,4.55l.41,0,.41,0a9.27,9.27,0,0,0,2.82-.53l.34-.12-.47-1.47h0l-.56-1.72-.42.7a3.72,3.72,0,0,1-1.35,1.4V20h1.6L19.4,18.5H18.29V15.29h2.93c0,.24,0,.47,0,.7l0,.3,1.5.48.05-.47c0-.35.05-.68.06-1h3.1a8.25,8.25,0,0,1-.43,2l-.13.36,1.47.47.12-.34a9.5,9.5,0,0,0,.53-2.82c0-.14,0-.27,0-.41s0-.27,0-.41h0A9.51,9.51,0,0,0,26.34,10a8.6,8.6,0,0,0-.47-.84,9.91,9.91,0,0,0-7.94-4.55h-.82A9.89,9.89,0,0,0,9.18,9.17a6.27,6.27,0,0,0-.47.83,9.64,9.64,0,0,0-1.07,3.75h0v1.54ZM14.78,9a5.11,5.11,0,0,1,2-2.65V9Zm0,11h2v2.64A5.08,5.08,0,0,1,14.78,20ZM10.16,18.5a8.34,8.34,0,0,1-1-3.21h3.1a17.28,17.28,0,0,0,.41,3.21ZM11.23,20h1.89a10.26,10.26,0,0,0,1,2.13A8.37,8.37,0,0,1,11.23,20Zm5.52-4.75V18.5H14.28a16.34,16.34,0,0,1-.46-3.21Zm-4.07-4.75a17.94,17.94,0,0,0-.4,3.21H9.19a8.47,8.47,0,0,1,1-3.21Zm4.07,0v3.21H13.82a16.45,16.45,0,0,1,.46-3.21ZM14.12,6.87a9.77,9.77,0,0,0-1,2.13H11.23A8.42,8.42,0,0,1,14.12,6.87ZM20.26,9h-2V6.35A5.11,5.11,0,0,1,20.26,9Zm4.63,1.54a8.47,8.47,0,0,1,1,3.21H22.76a17.94,17.94,0,0,0-.4-3.21ZM23.81,9H21.92a9.77,9.77,0,0,0-1-2.13A8.42,8.42,0,0,1,23.81,9Zm-5.52,4.75V10.54h2.47a16.45,16.45,0,0,1,.46,3.21Z"></path><path d="M20.11,17.11a.78.78,0,0,0-.18.78l2.23,7a.79.79,0,0,0,.74.53.75.75,0,0,0,.71-.48L24.38,23l1.45,1.45a1.2,1.2,0,0,0,1.66,0,1.18,1.18,0,0,0,0-1.65L26,21.38l1.89-.77a.77.77,0,0,0-.07-1.45l-6.94-2.23A.79.79,0,0,0,20.11,17.11Z"></path><path d="M34,0H2A2,2,0,0,0,0,2V28a2,2,0,0,0,2,2H17v4H12a1,1,0,0,0,0,2H24a1,1,0,0,0,0-2H19V30H34a2,2,0,0,0,2-2V2A2,2,0,0,0,34,0Zm0,28H2V2H34Z"></path></svg>