<?xml version="1.0" encoding="UTF-8" standalone="no"?>
<svg
   xmlns:dc="http://purl.org/dc/elements/1.1/"
   xmlns:cc="http://creativecommons.org/ns#"
   xmlns:rdf="http://www.w3.org/1999/02/22-rdf-syntax-ns#"
   xmlns:svg="http://www.w3.org/2000/svg"
   xmlns="http://www.w3.org/2000/svg"
   xmlns:sodipodi="http://sodipodi.sourceforge.net/DTD/sodipodi-0.dtd"
   xmlns:inkscape="http://www.inkscape.org/namespaces/inkscape"
   sodipodi:docname="teachingclass.svg"
   inkscape:version="1.0 (4035a4f, 2020-05-01)"
   id="svg8"
   version="1.1"
   viewBox="0 0 100.57458 35.962749"
   height="35.962749mm"
   width="100.57458mm">
  <defs
     id="defs2" />
  <sodipodi:namedview
     inkscape:window-maximized="0"
     inkscape:window-y="72"
     inkscape:window-x="173"
     inkscape:window-height="943"
     inkscape:window-width="1252"
     fit-margin-bottom="2"
     fit-margin-right="2"
     fit-margin-left="2"
     fit-margin-top="2"
     showgrid="false"
     inkscape:document-rotation="0"
     inkscape:current-layer="layer1"
     inkscape:document-units="mm"
     inkscape:cy="444.51048"
     inkscape:cx="82.990064"
     inkscape:zoom="0.5"
     inkscape:pageshadow="2"
     inkscape:pageopacity="0.0"
     borderopacity="1.0"
     bordercolor="#666666"
     pagecolor="#ffffff"
     id="base" />
  <metadata
     id="metadata5">
    <rdf:RDF>
      <cc:Work
         rdf:about="">
        <dc:format>image/svg+xml</dc:format>
        <dc:type
           rdf:resource="http://purl.org/dc/dcmitype/StillImage" />
        <dc:title></dc:title>
      </cc:Work>
    </rdf:RDF>
  </metadata>
  <g
     transform="translate(-34.663046,-32.67327)"
     id="layer1"
     inkscape:groupmode="layer"
     inkscape:label="Layer 1">
    <g
       transform="matrix(0.35277776,0,0,0.35277776,35.252866,33.009993)"
       id="g855">
      <path
         d="m 36.855,4.7148 v 30 c 0.71484,-0.42969 1.4297,-0.71484 2,-1.2852 V 6.5706 H 94 v 40.285 H 38.855 v -3.8555 c -0.71484,0.28516 -1.4297,0.57031 -2,0.71484 v 5 H 96.14 l 0.0039,-44 z"
         id="path833" />
      <path
         d="m 30.57,43.285 c 8.2852,0 15.285,-5 19.715,-12.43 0.57031,-0.85547 0.42969,-2 0,-2.8555 0.14453,3.1445 -4.4297,4 -5.4297,1 v -0.14453 c -3.7148,5.8555 -9.5703,9.5703 -16.43,8.7148 1.2852,1.5703 2,3.5703 2.1445,5.7148 z"
         id="path835" />
      <path
         d="m 41.715,59.43 -9.1445,0.57031 c 2,0.85547 3.2852,2.5703 3.5703,4.7148 l 0.42969,3.5703 1.7148,-0.14453 1.5703,16.57 c 0.57031,5.7148 9.1445,4.8555 8.5703,-0.85547 l -2,-20.715 c -0.28125,-2.2852 -2.2812,-3.9961 -4.7109,-3.7109 z"
         id="path837" />
      <path
         d="M 22.855,91.57 H 6.285 c 0.42969,0.57031 0.71484,1.2852 0.71484,2 0,0.57031 -0.14453,1.1445 -0.57031,1.7148 h 16.426 c 0,0 0.14453,0 0.14453,-0.14453 l -0.14453,-3.5703 c 0.14453,0.14453 0.14453,0 0,0 z"
         id="path839" />
      <path
         d="m 8.1445,86.43 c 0,0 -0.14453,0.14062 0,0 l -0.14453,3.5703 c 0,0 0,0.14453 0.14453,0.14453 h 16.57 c -0.42969,-0.57031 -0.57031,-1.1445 -0.57031,-1.7148 0,-0.85547 0.28516,-1.5703 0.71484,-2 z"
         id="path841" />
      <path
         d="m 7,83.285 c 0,0.57031 -0.14453,1.1445 -0.57031,1.7148 h 16.426 l 0.14453,-0.14453 v -3.4258 c 0,-0.14453 0,-0.14453 -0.14453,-0.14453 h -16.57 c 0.42969,0.57031 0.71484,1.2852 0.71484,2 z"
         id="path843" />
      <path
         d="m 8,76.285 v 3.4297 c 0,0 0,0.14453 0.14453,0.14453 h 16.57 c -0.42969,-0.57031 -0.57031,-1.1445 -0.57031,-1.7148 0,-0.85547 0.28516,-1.5703 0.71484,-2 l -16.859,0.14062 c 0.14453,-0.14062 0,-0.14062 0,0 z"
         id="path845" />
      <path
         d="m 23,74.57 c 0,-3.4297 0.14453,-3.5703 -0.14453,-3.5703 h -16.57 c 0.42969,0.57031 0.71484,1.2852 0.71484,2 0,0.57031 -0.14453,1.1445 -0.57031,1.7148 17.426,-0.14453 16.57,0 16.57,-0.14453 z"
         id="path847" />
      <path
         d="m 34.715,64.855 c -0.14453,-1.8555 -1.5703,-3.2852 -3.2852,-3.7148 -0.28516,-0.14453 -0.85547,-0.14453 -1.4297,-0.28516 0.14453,-1.1445 0,-2 -0.71484,-16.285 l -0.14453,-1.4297 v -0.14453 c -0.42969,-7.2852 -9.1445,-10.715 -14.43,-5.8555 -1.1445,0.85547 -2,1.4297 -3.4297,2.7148 -2.1445,1.8555 -4.4297,4.2852 -5.8555,6.8555 -1.1445,2 -1.7148,4.1445 -1.2852,6.2852 0.57031,3.4297 3,6.1445 7.5703,8.2852 2.5703,1.2852 8.4297,2.8555 9.4297,2.8555 2.1445,0 3.5703,-2.4297 2.4297,-4.2852 -0.42969,-0.71484 -1.1445,-1.2852 -2.1445,-1.4297 v -0.28516 0.28516 c -0.57031,-0.14453 -1.2852,-0.28516 -1.8555,-0.42969 -0.71484,0 -9.2852,-2.4297 -9.8555,-5.8555 -0.14453,-1 0.28516,-2.1445 1,-3.2852 0.28516,-0.57031 1,-1.4297 1.4297,-1.8555 0,1.2852 0.28516,7.1445 0.28516,6.7148 4.2852,3.1445 9.8555,2.7148 11.715,4.8555 2.7148,3.2852 -0.28516,7.8555 -4.1445,7 -1.8555,-0.42969 -5.5703,-1.4297 -6.1445,-1.7148 0.14453,0.14453 0.14453,0.28516 0.28516,0.42969 2.7148,4.4297 7.1445,4 12.285,4.7148 0.28516,2.4297 1.7148,16.285 1.8555,18.715 0.57031,5.5703 9.1445,4.8555 8.5703,-0.85547 l -1.8555,-18.57 z"
         id="path849" />
      <path
         d="m 28.285,24.285 c 0,4.5781 -3.7109,8.2852 -8.2852,8.2852 -4.5743,0 -8.2852,-3.707 -8.2852,-8.2852 0,-4.5742 3.7109,-8.2852 8.2852,-8.2852 4.5743,0 8.2852,3.7109 8.2852,8.2852"
         id="path851" />
      <path
         d="m 46.285,28.43 c 0.57031,1.7148 3.1445,0.85547 2.5703,-0.85547 0,-0.14453 -0.85547,-2.7148 -0.85547,-2.5703 l -2.1445,-6.4297 c -0.28516,-0.71484 -1,-1.1445 -1.7148,-0.85547 -0.71484,0.28516 -1.1445,1 -0.85547,1.7148 l 2.1445,6.4297 c 0,0.13672 1,2.707 0.85547,2.5664 z"
         id="path853" />
    </g>
    <g
       transform="matrix(-0.48927389,0,0,0.48927389,135.684,29.672172)"
       id="g895">
      <path
         d="m 17.008,58.027 h 6.668 c 1.0625,0 1.9766,0.63672 2.3828,1.5469 l 5.4492,10.902 c 1.5273,3.0703 -3.1406,5.3945 -4.668,2.3242 l -0.26172,-0.52344 0.03125,0.55078 c 0.19922,3.418 -4.9961,3.7227 -5.1953,0.30469 l -0.58594,-9.8906 -8.8672,-0.0078 c -1.4336,0 -2.5977,-1.1641 -2.5977,-2.5977 v -20.801 c -0.31641,-4.0625 6.7383,-2.4727 7.3008,-1.5039 l 5.5469,9.5547 4.1523,-1.6484 c 3.1758,-1.2617 5.0938,3.5703 1.9141,4.832 l -6.2383,2.4766 c -1.2148,0.48047 -2.5391,-0.01563 -3.1719,-1.1133 l -1.8555,-3.1328 z"
         id="path877" />
      <path
         d="m 18.434,29.547 c 0,6.793 -10.191,6.793 -10.191,0 0,-6.793 10.191,-6.793 10.191,0"
         id="path879" />
      <path
         d="M 7.2422,65.328 V 42.512 H 5 v 25.059 h 14.125 v -2.2422 z"
         id="path881" />
      <path
         d="m 48.602,58.027 h 6.668 c 1.0625,0 1.9766,0.63672 2.3828,1.5469 l 5.4492,10.902 c 1.5273,3.0703 -3.1406,5.3945 -4.668,2.3242 l -0.26172,-0.52344 0.03125,0.55078 c 0.19922,3.418 -4.9961,3.7227 -5.1953,0.30469 l -0.58594,-9.8906 -8.8672,-0.0078 c -1.4336,0 -2.5977,-1.1641 -2.5977,-2.5977 v -20.801 c -0.31641,-4.0625 6.7383,-2.4727 7.3008,-1.5039 l 5.5469,9.5547 4.1523,-1.6484 c 3.1758,-1.2617 5.0938,3.5703 1.9141,4.832 l -6.2383,2.4766 c -1.2148,0.48047 -2.5391,-0.01563 -3.1719,-1.1133 l -1.8555,-3.1328 z"
         id="path883" />
      <path
         d="m 50.027,29.547 c 0,6.793 -10.188,6.793 -10.188,0 0,-6.793 10.188,-6.793 10.188,0"
         id="path885" />
      <path
         d="M 38.836,65.328 V 42.512 h -2.2422 v 25.059 h 14.129 v -2.2422 z"
         id="path887" />
      <path
         d="m 80.199,58.027 h 6.668 c 1.0625,0 1.9766,0.63672 2.3828,1.5469 l 5.4492,10.902 c 1.5273,3.0703 -3.1406,5.3945 -4.668,2.3242 l -0.26172,-0.52344 0.03125,0.55078 c 0.19922,3.418 -4.9961,3.7227 -5.1953,0.30469 l -0.58594,-9.8906 -8.8672,-0.0078 c -1.4336,0 -2.5977,-1.1641 -2.5977,-2.5977 v -20.801 c -0.31641,-4.0625 6.7383,-2.4727 7.3008,-1.5039 l 5.5469,9.5547 4.1523,-1.6484 c 3.1758,-1.2617 5.0938,3.5703 1.9141,4.832 l -6.2383,2.4766 c -1.2148,0.48047 -2.5391,-0.01563 -3.1719,-1.1133 l -1.8555,-3.1328 z"
         id="path889" />
      <path
         d="m 81.625,29.547 c 0,6.793 -10.191,6.793 -10.191,0 0,-6.793 10.191,-6.793 10.191,0"
         id="path891" />
      <path
         d="M 70.43,65.328 V 42.512 h -2.2383 v 25.059 h 14.125 v -2.2422 z"
         id="path893" />
    </g>
  </g>
</svg>
