<?xml version="1.0" encoding="utf-8" standalone="no"?>
<!DOCTYPE svg PUBLIC "-//W3C//DTD SVG 1.1//EN"
  "http://www.w3.org/Graphics/SVG/1.1/DTD/svg11.dtd">
<!-- Created with matplotlib (https://matplotlib.org/) -->
<svg height="481.07625pt" version="1.1" viewBox="0 0 1156.4875 481.07625" width="1156.4875pt" xmlns="http://www.w3.org/2000/svg" xmlns:xlink="http://www.w3.org/1999/xlink">
 <metadata>
  <rdf:RDF xmlns:cc="http://creativecommons.org/ns#" xmlns:dc="http://purl.org/dc/elements/1.1/" xmlns:rdf="http://www.w3.org/1999/02/22-rdf-syntax-ns#">
   <cc:Work>
    <dc:type rdf:resource="http://purl.org/dc/dcmitype/StillImage"/>
    <dc:date>2021-02-18T12:20:28.605360</dc:date>
    <dc:format>image/svg+xml</dc:format>
    <dc:creator>
     <cc:Agent>
      <dc:title>Matplotlib v3.3.4, https://matplotlib.org/</dc:title>
     </cc:Agent>
    </dc:creator>
   </cc:Work>
  </rdf:RDF>
 </metadata>
 <defs>
  <style type="text/css">*{stroke-linecap:butt;stroke-linejoin:round;}</style>
 </defs>
 <g id="figure_1">
  <g id="patch_1">
   <path d="M 0 481.07625 
L 1156.4875 481.07625 
L 1156.4875 0 
L 0 0 
z
" style="fill:none;"/>
  </g>
  <g id="axes_1">
   <g id="patch_2">
    <path d="M 33.2875 219.990852 
L 225.701293 219.990852 
L 225.701293 22.318125 
L 33.2875 22.318125 
z
" style="fill:#ffffff;"/>
   </g>
   <g id="matplotlib.axis_1">
    <g id="xtick_1">
     <g id="line2d_1">
      <defs>
       <path d="M 0 0 
L 0 3.5 
" id="mb0d3cfb578" style="stroke:#000000;stroke-width:0.8;"/>
      </defs>
      <g>
       <use style="stroke:#000000;stroke-width:0.8;" x="42.033582" xlink:href="#mb0d3cfb578" y="219.990852"/>
      </g>
     </g>
     <g id="text_1">
      <!-- 0 -->
      <g transform="translate(38.852332 234.58929)scale(0.1 -0.1)">
       <defs>
        <path d="M 31.78125 66.40625 
Q 24.171875 66.40625 20.328125 58.90625 
Q 16.5 51.421875 16.5 36.375 
Q 16.5 21.390625 20.328125 13.890625 
Q 24.171875 6.390625 31.78125 6.390625 
Q 39.453125 6.390625 43.28125 13.890625 
Q 47.125 21.390625 47.125 36.375 
Q 47.125 51.421875 43.28125 58.90625 
Q 39.453125 66.40625 31.78125 66.40625 
z
M 31.78125 74.21875 
Q 44.046875 74.21875 50.515625 64.515625 
Q 56.984375 54.828125 56.984375 36.375 
Q 56.984375 17.96875 50.515625 8.265625 
Q 44.046875 -1.421875 31.78125 -1.421875 
Q 19.53125 -1.421875 13.0625 8.265625 
Q 6.59375 17.96875 6.59375 36.375 
Q 6.59375 54.828125 13.0625 64.515625 
Q 19.53125 74.21875 31.78125 74.21875 
z
" id="DejaVuSans-48"/>
       </defs>
       <use xlink:href="#DejaVuSans-48"/>
      </g>
     </g>
    </g>
    <g id="xtick_2">
     <g id="line2d_2">
      <g>
       <use style="stroke:#000000;stroke-width:0.8;" x="88.065589" xlink:href="#mb0d3cfb578" y="219.990852"/>
      </g>
     </g>
     <g id="text_2">
      <!-- 5 -->
      <g transform="translate(84.884339 234.58929)scale(0.1 -0.1)">
       <defs>
        <path d="M 10.796875 72.90625 
L 49.515625 72.90625 
L 49.515625 64.59375 
L 19.828125 64.59375 
L 19.828125 46.734375 
Q 21.96875 47.46875 24.109375 47.828125 
Q 26.265625 48.1875 28.421875 48.1875 
Q 40.625 48.1875 47.75 41.5 
Q 54.890625 34.8125 54.890625 23.390625 
Q 54.890625 11.625 47.5625 5.09375 
Q 40.234375 -1.421875 26.90625 -1.421875 
Q 22.3125 -1.421875 17.546875 -0.640625 
Q 12.796875 0.140625 7.71875 1.703125 
L 7.71875 11.625 
Q 12.109375 9.234375 16.796875 8.0625 
Q 21.484375 6.890625 26.703125 6.890625 
Q 35.15625 6.890625 40.078125 11.328125 
Q 45.015625 15.765625 45.015625 23.390625 
Q 45.015625 31 40.078125 35.4375 
Q 35.15625 39.890625 26.703125 39.890625 
Q 22.75 39.890625 18.8125 39.015625 
Q 14.890625 38.140625 10.796875 36.28125 
z
" id="DejaVuSans-53"/>
       </defs>
       <use xlink:href="#DejaVuSans-53"/>
      </g>
     </g>
    </g>
    <g id="xtick_3">
     <g id="line2d_3">
      <g>
       <use style="stroke:#000000;stroke-width:0.8;" x="134.097597" xlink:href="#mb0d3cfb578" y="219.990852"/>
      </g>
     </g>
     <g id="text_3">
      <!-- 10 -->
      <g transform="translate(127.735097 234.58929)scale(0.1 -0.1)">
       <defs>
        <path d="M 12.40625 8.296875 
L 28.515625 8.296875 
L 28.515625 63.921875 
L 10.984375 60.40625 
L 10.984375 69.390625 
L 28.421875 72.90625 
L 38.28125 72.90625 
L 38.28125 8.296875 
L 54.390625 8.296875 
L 54.390625 0 
L 12.40625 0 
z
" id="DejaVuSans-49"/>
       </defs>
       <use xlink:href="#DejaVuSans-49"/>
       <use x="63.623047" xlink:href="#DejaVuSans-48"/>
      </g>
     </g>
    </g>
    <g id="xtick_4">
     <g id="line2d_4">
      <g>
       <use style="stroke:#000000;stroke-width:0.8;" x="180.129605" xlink:href="#mb0d3cfb578" y="219.990852"/>
      </g>
     </g>
     <g id="text_4">
      <!-- 15 -->
      <g transform="translate(173.767105 234.58929)scale(0.1 -0.1)">
       <use xlink:href="#DejaVuSans-49"/>
       <use x="63.623047" xlink:href="#DejaVuSans-53"/>
      </g>
     </g>
    </g>
   </g>
   <g id="matplotlib.axis_2">
    <g id="ytick_1">
     <g id="line2d_5">
      <defs>
       <path d="M 0 0 
L -3.5 0 
" id="m1621ec7607" style="stroke:#000000;stroke-width:0.8;"/>
      </defs>
      <g>
       <use style="stroke:#000000;stroke-width:0.8;" x="33.2875" xlink:href="#m1621ec7607" y="211.005728"/>
      </g>
     </g>
     <g id="text_5">
      <!-- 0 -->
      <g transform="translate(19.925 214.804947)scale(0.1 -0.1)">
       <use xlink:href="#DejaVuSans-48"/>
      </g>
     </g>
    </g>
    <g id="ytick_2">
     <g id="line2d_6">
      <g>
       <use style="stroke:#000000;stroke-width:0.8;" x="33.2875" xlink:href="#m1621ec7607" y="182.345046"/>
      </g>
     </g>
     <g id="text_6">
      <!-- 100 -->
      <g transform="translate(7.2 186.144265)scale(0.1 -0.1)">
       <use xlink:href="#DejaVuSans-49"/>
       <use x="63.623047" xlink:href="#DejaVuSans-48"/>
       <use x="127.246094" xlink:href="#DejaVuSans-48"/>
      </g>
     </g>
    </g>
    <g id="ytick_3">
     <g id="line2d_7">
      <g>
       <use style="stroke:#000000;stroke-width:0.8;" x="33.2875" xlink:href="#m1621ec7607" y="153.684363"/>
      </g>
     </g>
     <g id="text_7">
      <!-- 200 -->
      <g transform="translate(7.2 157.483582)scale(0.1 -0.1)">
       <defs>
        <path d="M 19.1875 8.296875 
L 53.609375 8.296875 
L 53.609375 0 
L 7.328125 0 
L 7.328125 8.296875 
Q 12.9375 14.109375 22.625 23.890625 
Q 32.328125 33.6875 34.8125 36.53125 
Q 39.546875 41.84375 41.421875 45.53125 
Q 43.3125 49.21875 43.3125 52.78125 
Q 43.3125 58.59375 39.234375 62.25 
Q 35.15625 65.921875 28.609375 65.921875 
Q 23.96875 65.921875 18.8125 64.3125 
Q 13.671875 62.703125 7.8125 59.421875 
L 7.8125 69.390625 
Q 13.765625 71.78125 18.9375 73 
Q 24.125 74.21875 28.421875 74.21875 
Q 39.75 74.21875 46.484375 68.546875 
Q 53.21875 62.890625 53.21875 53.421875 
Q 53.21875 48.921875 51.53125 44.890625 
Q 49.859375 40.875 45.40625 35.40625 
Q 44.1875 33.984375 37.640625 27.21875 
Q 31.109375 20.453125 19.1875 8.296875 
z
" id="DejaVuSans-50"/>
       </defs>
       <use xlink:href="#DejaVuSans-50"/>
       <use x="63.623047" xlink:href="#DejaVuSans-48"/>
       <use x="127.246094" xlink:href="#DejaVuSans-48"/>
      </g>
     </g>
    </g>
    <g id="ytick_4">
     <g id="line2d_8">
      <g>
       <use style="stroke:#000000;stroke-width:0.8;" x="33.2875" xlink:href="#m1621ec7607" y="125.023681"/>
      </g>
     </g>
     <g id="text_8">
      <!-- 300 -->
      <g transform="translate(7.2 128.8229)scale(0.1 -0.1)">
       <defs>
        <path d="M 40.578125 39.3125 
Q 47.65625 37.796875 51.625 33 
Q 55.609375 28.21875 55.609375 21.1875 
Q 55.609375 10.40625 48.1875 4.484375 
Q 40.765625 -1.421875 27.09375 -1.421875 
Q 22.515625 -1.421875 17.65625 -0.515625 
Q 12.796875 0.390625 7.625 2.203125 
L 7.625 11.71875 
Q 11.71875 9.328125 16.59375 8.109375 
Q 21.484375 6.890625 26.8125 6.890625 
Q 36.078125 6.890625 40.9375 10.546875 
Q 45.796875 14.203125 45.796875 21.1875 
Q 45.796875 27.640625 41.28125 31.265625 
Q 36.765625 34.90625 28.71875 34.90625 
L 20.21875 34.90625 
L 20.21875 43.015625 
L 29.109375 43.015625 
Q 36.375 43.015625 40.234375 45.921875 
Q 44.09375 48.828125 44.09375 54.296875 
Q 44.09375 59.90625 40.109375 62.90625 
Q 36.140625 65.921875 28.71875 65.921875 
Q 24.65625 65.921875 20.015625 65.03125 
Q 15.375 64.15625 9.8125 62.3125 
L 9.8125 71.09375 
Q 15.4375 72.65625 20.34375 73.4375 
Q 25.25 74.21875 29.59375 74.21875 
Q 40.828125 74.21875 47.359375 69.109375 
Q 53.90625 64.015625 53.90625 55.328125 
Q 53.90625 49.265625 50.4375 45.09375 
Q 46.96875 40.921875 40.578125 39.3125 
z
" id="DejaVuSans-51"/>
       </defs>
       <use xlink:href="#DejaVuSans-51"/>
       <use x="63.623047" xlink:href="#DejaVuSans-48"/>
       <use x="127.246094" xlink:href="#DejaVuSans-48"/>
      </g>
     </g>
    </g>
    <g id="ytick_5">
     <g id="line2d_9">
      <g>
       <use style="stroke:#000000;stroke-width:0.8;" x="33.2875" xlink:href="#m1621ec7607" y="96.362998"/>
      </g>
     </g>
     <g id="text_9">
      <!-- 400 -->
      <g transform="translate(7.2 100.162217)scale(0.1 -0.1)">
       <defs>
        <path d="M 37.796875 64.3125 
L 12.890625 25.390625 
L 37.796875 25.390625 
z
M 35.203125 72.90625 
L 47.609375 72.90625 
L 47.609375 25.390625 
L 58.015625 25.390625 
L 58.015625 17.1875 
L 47.609375 17.1875 
L 47.609375 0 
L 37.796875 0 
L 37.796875 17.1875 
L 4.890625 17.1875 
L 4.890625 26.703125 
z
" id="DejaVuSans-52"/>
       </defs>
       <use xlink:href="#DejaVuSans-52"/>
       <use x="63.623047" xlink:href="#DejaVuSans-48"/>
       <use x="127.246094" xlink:href="#DejaVuSans-48"/>
      </g>
     </g>
    </g>
    <g id="ytick_6">
     <g id="line2d_10">
      <g>
       <use style="stroke:#000000;stroke-width:0.8;" x="33.2875" xlink:href="#m1621ec7607" y="67.702316"/>
      </g>
     </g>
     <g id="text_10">
      <!-- 500 -->
      <g transform="translate(7.2 71.501535)scale(0.1 -0.1)">
       <use xlink:href="#DejaVuSans-53"/>
       <use x="63.623047" xlink:href="#DejaVuSans-48"/>
       <use x="127.246094" xlink:href="#DejaVuSans-48"/>
      </g>
     </g>
    </g>
    <g id="ytick_7">
     <g id="line2d_11">
      <g>
       <use style="stroke:#000000;stroke-width:0.8;" x="33.2875" xlink:href="#m1621ec7607" y="39.041633"/>
      </g>
     </g>
     <g id="text_11">
      <!-- 600 -->
      <g transform="translate(7.2 42.840852)scale(0.1 -0.1)">
       <defs>
        <path d="M 33.015625 40.375 
Q 26.375 40.375 22.484375 35.828125 
Q 18.609375 31.296875 18.609375 23.390625 
Q 18.609375 15.53125 22.484375 10.953125 
Q 26.375 6.390625 33.015625 6.390625 
Q 39.65625 6.390625 43.53125 10.953125 
Q 47.40625 15.53125 47.40625 23.390625 
Q 47.40625 31.296875 43.53125 35.828125 
Q 39.65625 40.375 33.015625 40.375 
z
M 52.59375 71.296875 
L 52.59375 62.3125 
Q 48.875 64.0625 45.09375 64.984375 
Q 41.3125 65.921875 37.59375 65.921875 
Q 27.828125 65.921875 22.671875 59.328125 
Q 17.53125 52.734375 16.796875 39.40625 
Q 19.671875 43.65625 24.015625 45.921875 
Q 28.375 48.1875 33.59375 48.1875 
Q 44.578125 48.1875 50.953125 41.515625 
Q 57.328125 34.859375 57.328125 23.390625 
Q 57.328125 12.15625 50.6875 5.359375 
Q 44.046875 -1.421875 33.015625 -1.421875 
Q 20.359375 -1.421875 13.671875 8.265625 
Q 6.984375 17.96875 6.984375 36.375 
Q 6.984375 53.65625 15.1875 63.9375 
Q 23.390625 74.21875 37.203125 74.21875 
Q 40.921875 74.21875 44.703125 73.484375 
Q 48.484375 72.75 52.59375 71.296875 
z
" id="DejaVuSans-54"/>
       </defs>
       <use xlink:href="#DejaVuSans-54"/>
       <use x="63.623047" xlink:href="#DejaVuSans-48"/>
       <use x="127.246094" xlink:href="#DejaVuSans-48"/>
      </g>
     </g>
    </g>
   </g>
   <g id="line2d_12">
    <path clip-path="url(#pa496dda500)" d="M 42.033582 211.005728 
L 51.239983 205.846805 
L 60.446385 200.687883 
L 69.652786 197.248601 
L 78.859188 186.930755 
L 88.065589 189.510216 
L 97.271991 185.211114 
L 106.478393 174.893268 
L 115.684794 166.295064 
L 124.891196 158.556679 
L 134.097597 156.837038 
L 143.303999 155.117397 
L 152.510401 144.799552 
L 161.716802 139.640629 
L 170.923204 137.920988 
L 180.129605 138.780808 
L 189.336007 138.780808 
L 198.542408 137.061167 
L 207.74881 131.042424 
L 216.955212 119.864758 
" style="fill:none;stroke:#ff7f50;stroke-linecap:square;stroke-width:1.5;"/>
   </g>
   <g id="line2d_13">
    <path clip-path="url(#pa496dda500)" d="M 42.033582 198.968242 
L 51.239983 192.662891 
L 60.446385 189.796823 
L 69.652786 163.428995 
L 78.859188 166.868277 
L 88.065589 161.422748 
L 97.271991 149.671868 
L 106.478393 139.067415 
L 115.684794 129.036176 
L 124.891196 128.462963 
L 134.097597 121.584399 
L 143.303999 105.534417 
L 152.510401 92.923716 
L 161.716802 90.057648 
L 170.923204 89.484434 
L 180.129605 90.917469 
L 189.336007 84.038905 
L 198.542408 73.147845 
L 207.74881 43.627342 
L 216.955212 31.303249 
" style="fill:none;stroke:#6495ed;stroke-linecap:square;stroke-width:1.5;"/>
   </g>
   <g id="patch_3">
    <path d="M 33.2875 219.990852 
L 33.2875 22.318125 
" style="fill:none;stroke:#000000;stroke-linecap:square;stroke-linejoin:miter;stroke-width:0.8;"/>
   </g>
   <g id="patch_4">
    <path d="M 225.701293 219.990852 
L 225.701293 22.318125 
" style="fill:none;stroke:#000000;stroke-linecap:square;stroke-linejoin:miter;stroke-width:0.8;"/>
   </g>
   <g id="patch_5">
    <path d="M 33.2875 219.990852 
L 225.701293 219.990852 
" style="fill:none;stroke:#000000;stroke-linecap:square;stroke-linejoin:miter;stroke-width:0.8;"/>
   </g>
   <g id="patch_6">
    <path d="M 33.2875 22.318125 
L 225.701293 22.318125 
" style="fill:none;stroke:#000000;stroke-linecap:square;stroke-linejoin:miter;stroke-width:0.8;"/>
   </g>
   <g id="text_12">
    <!-- True Positives -->
    <g transform="translate(88.595022 16.318125)scale(0.12 -0.12)">
     <defs>
      <path d="M -0.296875 72.90625 
L 61.375 72.90625 
L 61.375 64.59375 
L 35.5 64.59375 
L 35.5 0 
L 25.59375 0 
L 25.59375 64.59375 
L -0.296875 64.59375 
z
" id="DejaVuSans-84"/>
      <path d="M 41.109375 46.296875 
Q 39.59375 47.171875 37.8125 47.578125 
Q 36.03125 48 33.890625 48 
Q 26.265625 48 22.1875 43.046875 
Q 18.109375 38.09375 18.109375 28.8125 
L 18.109375 0 
L 9.078125 0 
L 9.078125 54.6875 
L 18.109375 54.6875 
L 18.109375 46.1875 
Q 20.953125 51.171875 25.484375 53.578125 
Q 30.03125 56 36.53125 56 
Q 37.453125 56 38.578125 55.875 
Q 39.703125 55.765625 41.0625 55.515625 
z
" id="DejaVuSans-114"/>
      <path d="M 8.5 21.578125 
L 8.5 54.6875 
L 17.484375 54.6875 
L 17.484375 21.921875 
Q 17.484375 14.15625 20.5 10.265625 
Q 23.53125 6.390625 29.59375 6.390625 
Q 36.859375 6.390625 41.078125 11.03125 
Q 45.3125 15.671875 45.3125 23.6875 
L 45.3125 54.6875 
L 54.296875 54.6875 
L 54.296875 0 
L 45.3125 0 
L 45.3125 8.40625 
Q 42.046875 3.421875 37.71875 1 
Q 33.40625 -1.421875 27.6875 -1.421875 
Q 18.265625 -1.421875 13.375 4.4375 
Q 8.5 10.296875 8.5 21.578125 
z
M 31.109375 56 
z
" id="DejaVuSans-117"/>
      <path d="M 56.203125 29.59375 
L 56.203125 25.203125 
L 14.890625 25.203125 
Q 15.484375 15.921875 20.484375 11.0625 
Q 25.484375 6.203125 34.421875 6.203125 
Q 39.59375 6.203125 44.453125 7.46875 
Q 49.3125 8.734375 54.109375 11.28125 
L 54.109375 2.78125 
Q 49.265625 0.734375 44.1875 -0.34375 
Q 39.109375 -1.421875 33.890625 -1.421875 
Q 20.796875 -1.421875 13.15625 6.1875 
Q 5.515625 13.8125 5.515625 26.8125 
Q 5.515625 40.234375 12.765625 48.109375 
Q 20.015625 56 32.328125 56 
Q 43.359375 56 49.78125 48.890625 
Q 56.203125 41.796875 56.203125 29.59375 
z
M 47.21875 32.234375 
Q 47.125 39.59375 43.09375 43.984375 
Q 39.0625 48.390625 32.421875 48.390625 
Q 24.90625 48.390625 20.390625 44.140625 
Q 15.875 39.890625 15.1875 32.171875 
z
" id="DejaVuSans-101"/>
      <path id="DejaVuSans-32"/>
      <path d="M 19.671875 64.796875 
L 19.671875 37.40625 
L 32.078125 37.40625 
Q 38.96875 37.40625 42.71875 40.96875 
Q 46.484375 44.53125 46.484375 51.125 
Q 46.484375 57.671875 42.71875 61.234375 
Q 38.96875 64.796875 32.078125 64.796875 
z
M 9.8125 72.90625 
L 32.078125 72.90625 
Q 44.34375 72.90625 50.609375 67.359375 
Q 56.890625 61.8125 56.890625 51.125 
Q 56.890625 40.328125 50.609375 34.8125 
Q 44.34375 29.296875 32.078125 29.296875 
L 19.671875 29.296875 
L 19.671875 0 
L 9.8125 0 
z
" id="DejaVuSans-80"/>
      <path d="M 30.609375 48.390625 
Q 23.390625 48.390625 19.1875 42.75 
Q 14.984375 37.109375 14.984375 27.296875 
Q 14.984375 17.484375 19.15625 11.84375 
Q 23.34375 6.203125 30.609375 6.203125 
Q 37.796875 6.203125 41.984375 11.859375 
Q 46.1875 17.53125 46.1875 27.296875 
Q 46.1875 37.015625 41.984375 42.703125 
Q 37.796875 48.390625 30.609375 48.390625 
z
M 30.609375 56 
Q 42.328125 56 49.015625 48.375 
Q 55.71875 40.765625 55.71875 27.296875 
Q 55.71875 13.875 49.015625 6.21875 
Q 42.328125 -1.421875 30.609375 -1.421875 
Q 18.84375 -1.421875 12.171875 6.21875 
Q 5.515625 13.875 5.515625 27.296875 
Q 5.515625 40.765625 12.171875 48.375 
Q 18.84375 56 30.609375 56 
z
" id="DejaVuSans-111"/>
      <path d="M 44.28125 53.078125 
L 44.28125 44.578125 
Q 40.484375 46.53125 36.375 47.5 
Q 32.28125 48.484375 27.875 48.484375 
Q 21.1875 48.484375 17.84375 46.4375 
Q 14.5 44.390625 14.5 40.28125 
Q 14.5 37.15625 16.890625 35.375 
Q 19.28125 33.59375 26.515625 31.984375 
L 29.59375 31.296875 
Q 39.15625 29.25 43.1875 25.515625 
Q 47.21875 21.78125 47.21875 15.09375 
Q 47.21875 7.46875 41.1875 3.015625 
Q 35.15625 -1.421875 24.609375 -1.421875 
Q 20.21875 -1.421875 15.453125 -0.5625 
Q 10.6875 0.296875 5.421875 2 
L 5.421875 11.28125 
Q 10.40625 8.6875 15.234375 7.390625 
Q 20.0625 6.109375 24.8125 6.109375 
Q 31.15625 6.109375 34.5625 8.28125 
Q 37.984375 10.453125 37.984375 14.40625 
Q 37.984375 18.0625 35.515625 20.015625 
Q 33.0625 21.96875 24.703125 23.78125 
L 21.578125 24.515625 
Q 13.234375 26.265625 9.515625 29.90625 
Q 5.8125 33.546875 5.8125 39.890625 
Q 5.8125 47.609375 11.28125 51.796875 
Q 16.75 56 26.8125 56 
Q 31.78125 56 36.171875 55.265625 
Q 40.578125 54.546875 44.28125 53.078125 
z
" id="DejaVuSans-115"/>
      <path d="M 9.421875 54.6875 
L 18.40625 54.6875 
L 18.40625 0 
L 9.421875 0 
z
M 9.421875 75.984375 
L 18.40625 75.984375 
L 18.40625 64.59375 
L 9.421875 64.59375 
z
" id="DejaVuSans-105"/>
      <path d="M 18.3125 70.21875 
L 18.3125 54.6875 
L 36.8125 54.6875 
L 36.8125 47.703125 
L 18.3125 47.703125 
L 18.3125 18.015625 
Q 18.3125 11.328125 20.140625 9.421875 
Q 21.96875 7.515625 27.59375 7.515625 
L 36.8125 7.515625 
L 36.8125 0 
L 27.59375 0 
Q 17.1875 0 13.234375 3.875 
Q 9.28125 7.765625 9.28125 18.015625 
L 9.28125 47.703125 
L 2.6875 47.703125 
L 2.6875 54.6875 
L 9.28125 54.6875 
L 9.28125 70.21875 
z
" id="DejaVuSans-116"/>
      <path d="M 2.984375 54.6875 
L 12.5 54.6875 
L 29.59375 8.796875 
L 46.6875 54.6875 
L 56.203125 54.6875 
L 35.6875 0 
L 23.484375 0 
z
" id="DejaVuSans-118"/>
     </defs>
     <use xlink:href="#DejaVuSans-84"/>
     <use x="46.333984" xlink:href="#DejaVuSans-114"/>
     <use x="87.447266" xlink:href="#DejaVuSans-117"/>
     <use x="150.826172" xlink:href="#DejaVuSans-101"/>
     <use x="212.349609" xlink:href="#DejaVuSans-32"/>
     <use x="244.136719" xlink:href="#DejaVuSans-80"/>
     <use x="300.814453" xlink:href="#DejaVuSans-111"/>
     <use x="361.996094" xlink:href="#DejaVuSans-115"/>
     <use x="414.095703" xlink:href="#DejaVuSans-105"/>
     <use x="441.878906" xlink:href="#DejaVuSans-116"/>
     <use x="481.087891" xlink:href="#DejaVuSans-105"/>
     <use x="508.871094" xlink:href="#DejaVuSans-118"/>
     <use x="568.050781" xlink:href="#DejaVuSans-101"/>
     <use x="629.574219" xlink:href="#DejaVuSans-115"/>
    </g>
   </g>
  </g>
  <g id="axes_2">
   <g id="patch_7">
    <path d="M 264.184052 219.990852 
L 456.597845 219.990852 
L 456.597845 22.318125 
L 264.184052 22.318125 
z
" style="fill:#ffffff;"/>
   </g>
   <g id="matplotlib.axis_3">
    <g id="xtick_5">
     <g id="line2d_14">
      <g>
       <use style="stroke:#000000;stroke-width:0.8;" x="272.930133" xlink:href="#mb0d3cfb578" y="219.990852"/>
      </g>
     </g>
     <g id="text_13">
      <!-- 0 -->
      <g transform="translate(269.748883 234.58929)scale(0.1 -0.1)">
       <use xlink:href="#DejaVuSans-48"/>
      </g>
     </g>
    </g>
    <g id="xtick_6">
     <g id="line2d_15">
      <g>
       <use style="stroke:#000000;stroke-width:0.8;" x="318.962141" xlink:href="#mb0d3cfb578" y="219.990852"/>
      </g>
     </g>
     <g id="text_14">
      <!-- 5 -->
      <g transform="translate(315.780891 234.58929)scale(0.1 -0.1)">
       <use xlink:href="#DejaVuSans-53"/>
      </g>
     </g>
    </g>
    <g id="xtick_7">
     <g id="line2d_16">
      <g>
       <use style="stroke:#000000;stroke-width:0.8;" x="364.994149" xlink:href="#mb0d3cfb578" y="219.990852"/>
      </g>
     </g>
     <g id="text_15">
      <!-- 10 -->
      <g transform="translate(358.631649 234.58929)scale(0.1 -0.1)">
       <use xlink:href="#DejaVuSans-49"/>
       <use x="63.623047" xlink:href="#DejaVuSans-48"/>
      </g>
     </g>
    </g>
    <g id="xtick_8">
     <g id="line2d_17">
      <g>
       <use style="stroke:#000000;stroke-width:0.8;" x="411.026157" xlink:href="#mb0d3cfb578" y="219.990852"/>
      </g>
     </g>
     <g id="text_16">
      <!-- 15 -->
      <g transform="translate(404.663657 234.58929)scale(0.1 -0.1)">
       <use xlink:href="#DejaVuSans-49"/>
       <use x="63.623047" xlink:href="#DejaVuSans-53"/>
      </g>
     </g>
    </g>
   </g>
   <g id="matplotlib.axis_4">
    <g id="ytick_8">
     <g id="line2d_18">
      <g>
       <use style="stroke:#000000;stroke-width:0.8;" x="264.184052" xlink:href="#m1621ec7607" y="211.005728"/>
      </g>
     </g>
     <g id="text_17">
      <!-- 0 -->
      <g transform="translate(250.821552 214.804947)scale(0.1 -0.1)">
       <use xlink:href="#DejaVuSans-48"/>
      </g>
     </g>
    </g>
    <g id="ytick_9">
     <g id="line2d_19">
      <g>
       <use style="stroke:#000000;stroke-width:0.8;" x="264.184052" xlink:href="#m1621ec7607" y="186.523102"/>
      </g>
     </g>
     <g id="text_18">
      <!-- 50 -->
      <g transform="translate(244.459052 190.32232)scale(0.1 -0.1)">
       <use xlink:href="#DejaVuSans-53"/>
       <use x="63.623047" xlink:href="#DejaVuSans-48"/>
      </g>
     </g>
    </g>
    <g id="ytick_10">
     <g id="line2d_20">
      <g>
       <use style="stroke:#000000;stroke-width:0.8;" x="264.184052" xlink:href="#m1621ec7607" y="162.040475"/>
      </g>
     </g>
     <g id="text_19">
      <!-- 100 -->
      <g transform="translate(238.096552 165.839694)scale(0.1 -0.1)">
       <use xlink:href="#DejaVuSans-49"/>
       <use x="63.623047" xlink:href="#DejaVuSans-48"/>
       <use x="127.246094" xlink:href="#DejaVuSans-48"/>
      </g>
     </g>
    </g>
    <g id="ytick_11">
     <g id="line2d_21">
      <g>
       <use style="stroke:#000000;stroke-width:0.8;" x="264.184052" xlink:href="#m1621ec7607" y="137.557848"/>
      </g>
     </g>
     <g id="text_20">
      <!-- 150 -->
      <g transform="translate(238.096552 141.357067)scale(0.1 -0.1)">
       <use xlink:href="#DejaVuSans-49"/>
       <use x="63.623047" xlink:href="#DejaVuSans-53"/>
       <use x="127.246094" xlink:href="#DejaVuSans-48"/>
      </g>
     </g>
    </g>
    <g id="ytick_12">
     <g id="line2d_22">
      <g>
       <use style="stroke:#000000;stroke-width:0.8;" x="264.184052" xlink:href="#m1621ec7607" y="113.075222"/>
      </g>
     </g>
     <g id="text_21">
      <!-- 200 -->
      <g transform="translate(238.096552 116.874441)scale(0.1 -0.1)">
       <use xlink:href="#DejaVuSans-50"/>
       <use x="63.623047" xlink:href="#DejaVuSans-48"/>
       <use x="127.246094" xlink:href="#DejaVuSans-48"/>
      </g>
     </g>
    </g>
    <g id="ytick_13">
     <g id="line2d_23">
      <g>
       <use style="stroke:#000000;stroke-width:0.8;" x="264.184052" xlink:href="#m1621ec7607" y="88.592595"/>
      </g>
     </g>
     <g id="text_22">
      <!-- 250 -->
      <g transform="translate(238.096552 92.391814)scale(0.1 -0.1)">
       <use xlink:href="#DejaVuSans-50"/>
       <use x="63.623047" xlink:href="#DejaVuSans-53"/>
       <use x="127.246094" xlink:href="#DejaVuSans-48"/>
      </g>
     </g>
    </g>
    <g id="ytick_14">
     <g id="line2d_24">
      <g>
       <use style="stroke:#000000;stroke-width:0.8;" x="264.184052" xlink:href="#m1621ec7607" y="64.109969"/>
      </g>
     </g>
     <g id="text_23">
      <!-- 300 -->
      <g transform="translate(238.096552 67.909187)scale(0.1 -0.1)">
       <use xlink:href="#DejaVuSans-51"/>
       <use x="63.623047" xlink:href="#DejaVuSans-48"/>
       <use x="127.246094" xlink:href="#DejaVuSans-48"/>
      </g>
     </g>
    </g>
    <g id="ytick_15">
     <g id="line2d_25">
      <g>
       <use style="stroke:#000000;stroke-width:0.8;" x="264.184052" xlink:href="#m1621ec7607" y="39.627342"/>
      </g>
     </g>
     <g id="text_24">
      <!-- 350 -->
      <g transform="translate(238.096552 43.426561)scale(0.1 -0.1)">
       <use xlink:href="#DejaVuSans-51"/>
       <use x="63.623047" xlink:href="#DejaVuSans-53"/>
       <use x="127.246094" xlink:href="#DejaVuSans-48"/>
      </g>
     </g>
    </g>
   </g>
   <g id="line2d_26">
    <path clip-path="url(#p04eb63012e)" d="M 272.930133 211.005728 
L 282.136535 208.067813 
L 291.342936 208.067813 
L 300.549338 206.598856 
L 309.75574 190.440322 
L 318.962141 193.378237 
L 328.168543 193.378237 
L 337.374944 186.033449 
L 346.581346 177.219704 
L 355.787747 162.530128 
L 364.994149 163.999085 
L 374.200551 159.592212 
L 383.406952 133.150976 
L 392.613354 125.806188 
L 401.819755 124.33723 
L 411.026157 128.744103 
L 420.232559 134.619933 
L 429.43896 130.21306 
L 438.645362 127.275145 
L 447.851763 87.61329 
" style="fill:none;stroke:#ff7f50;stroke-linecap:square;stroke-width:1.5;"/>
   </g>
   <g id="line2d_27">
    <path clip-path="url(#p04eb63012e)" d="M 272.930133 203.66094 
L 282.136535 196.316152 
L 291.342936 200.233373 
L 300.549338 183.095534 
L 309.75574 189.461017 
L 318.962141 187.012754 
L 328.168543 180.647271 
L 337.374944 165.957695 
L 346.581346 151.757772 
L 355.787747 154.695687 
L 364.994149 148.330204 
L 374.200551 123.357925 
L 383.406952 105.730434 
L 392.613354 104.261476 
L 401.819755 109.647654 
L 411.026157 121.399315 
L 420.232559 110.626959 
L 429.43896 97.406341 
L 438.645362 51.868655 
L 447.851763 31.303249 
" style="fill:none;stroke:#6495ed;stroke-linecap:square;stroke-width:1.5;"/>
   </g>
   <g id="patch_8">
    <path d="M 264.184052 219.990852 
L 264.184052 22.318125 
" style="fill:none;stroke:#000000;stroke-linecap:square;stroke-linejoin:miter;stroke-width:0.8;"/>
   </g>
   <g id="patch_9">
    <path d="M 456.597845 219.990852 
L 456.597845 22.318125 
" style="fill:none;stroke:#000000;stroke-linecap:square;stroke-linejoin:miter;stroke-width:0.8;"/>
   </g>
   <g id="patch_10">
    <path d="M 264.184052 219.990852 
L 456.597845 219.990852 
" style="fill:none;stroke:#000000;stroke-linecap:square;stroke-linejoin:miter;stroke-width:0.8;"/>
   </g>
   <g id="patch_11">
    <path d="M 264.184052 22.318125 
L 456.597845 22.318125 
" style="fill:none;stroke:#000000;stroke-linecap:square;stroke-linejoin:miter;stroke-width:0.8;"/>
   </g>
   <g id="text_25">
    <!-- False Positives -->
    <g transform="translate(317.167511 16.318125)scale(0.12 -0.12)">
     <defs>
      <path d="M 9.8125 72.90625 
L 51.703125 72.90625 
L 51.703125 64.59375 
L 19.671875 64.59375 
L 19.671875 43.109375 
L 48.578125 43.109375 
L 48.578125 34.8125 
L 19.671875 34.8125 
L 19.671875 0 
L 9.8125 0 
z
" id="DejaVuSans-70"/>
      <path d="M 34.28125 27.484375 
Q 23.390625 27.484375 19.1875 25 
Q 14.984375 22.515625 14.984375 16.5 
Q 14.984375 11.71875 18.140625 8.90625 
Q 21.296875 6.109375 26.703125 6.109375 
Q 34.1875 6.109375 38.703125 11.40625 
Q 43.21875 16.703125 43.21875 25.484375 
L 43.21875 27.484375 
z
M 52.203125 31.203125 
L 52.203125 0 
L 43.21875 0 
L 43.21875 8.296875 
Q 40.140625 3.328125 35.546875 0.953125 
Q 30.953125 -1.421875 24.3125 -1.421875 
Q 15.921875 -1.421875 10.953125 3.296875 
Q 6 8.015625 6 15.921875 
Q 6 25.140625 12.171875 29.828125 
Q 18.359375 34.515625 30.609375 34.515625 
L 43.21875 34.515625 
L 43.21875 35.40625 
Q 43.21875 41.609375 39.140625 45 
Q 35.0625 48.390625 27.6875 48.390625 
Q 23 48.390625 18.546875 47.265625 
Q 14.109375 46.140625 10.015625 43.890625 
L 10.015625 52.203125 
Q 14.9375 54.109375 19.578125 55.046875 
Q 24.21875 56 28.609375 56 
Q 40.484375 56 46.34375 49.84375 
Q 52.203125 43.703125 52.203125 31.203125 
z
" id="DejaVuSans-97"/>
      <path d="M 9.421875 75.984375 
L 18.40625 75.984375 
L 18.40625 0 
L 9.421875 0 
z
" id="DejaVuSans-108"/>
     </defs>
     <use xlink:href="#DejaVuSans-70"/>
     <use x="48.394531" xlink:href="#DejaVuSans-97"/>
     <use x="109.673828" xlink:href="#DejaVuSans-108"/>
     <use x="137.457031" xlink:href="#DejaVuSans-115"/>
     <use x="189.556641" xlink:href="#DejaVuSans-101"/>
     <use x="251.080078" xlink:href="#DejaVuSans-32"/>
     <use x="282.867188" xlink:href="#DejaVuSans-80"/>
     <use x="339.544922" xlink:href="#DejaVuSans-111"/>
     <use x="400.726562" xlink:href="#DejaVuSans-115"/>
     <use x="452.826172" xlink:href="#DejaVuSans-105"/>
     <use x="480.609375" xlink:href="#DejaVuSans-116"/>
     <use x="519.818359" xlink:href="#DejaVuSans-105"/>
     <use x="547.601562" xlink:href="#DejaVuSans-118"/>
     <use x="606.78125" xlink:href="#DejaVuSans-101"/>
     <use x="668.304688" xlink:href="#DejaVuSans-115"/>
    </g>
   </g>
  </g>
  <g id="axes_3">
   <g id="patch_12">
    <path d="M 495.080603 219.990852 
L 687.494397 219.990852 
L 687.494397 22.318125 
L 495.080603 22.318125 
z
" style="fill:#ffffff;"/>
   </g>
   <g id="matplotlib.axis_5">
    <g id="xtick_9">
     <g id="line2d_28">
      <g>
       <use style="stroke:#000000;stroke-width:0.8;" x="503.826685" xlink:href="#mb0d3cfb578" y="219.990852"/>
      </g>
     </g>
     <g id="text_26">
      <!-- 0 -->
      <g transform="translate(500.645435 234.58929)scale(0.1 -0.1)">
       <use xlink:href="#DejaVuSans-48"/>
      </g>
     </g>
    </g>
    <g id="xtick_10">
     <g id="line2d_29">
      <g>
       <use style="stroke:#000000;stroke-width:0.8;" x="549.858693" xlink:href="#mb0d3cfb578" y="219.990852"/>
      </g>
     </g>
     <g id="text_27">
      <!-- 5 -->
      <g transform="translate(546.677443 234.58929)scale(0.1 -0.1)">
       <use xlink:href="#DejaVuSans-53"/>
      </g>
     </g>
    </g>
    <g id="xtick_11">
     <g id="line2d_30">
      <g>
       <use style="stroke:#000000;stroke-width:0.8;" x="595.890701" xlink:href="#mb0d3cfb578" y="219.990852"/>
      </g>
     </g>
     <g id="text_28">
      <!-- 10 -->
      <g transform="translate(589.528201 234.58929)scale(0.1 -0.1)">
       <use xlink:href="#DejaVuSans-49"/>
       <use x="63.623047" xlink:href="#DejaVuSans-48"/>
      </g>
     </g>
    </g>
    <g id="xtick_12">
     <g id="line2d_31">
      <g>
       <use style="stroke:#000000;stroke-width:0.8;" x="641.922709" xlink:href="#mb0d3cfb578" y="219.990852"/>
      </g>
     </g>
     <g id="text_29">
      <!-- 15 -->
      <g transform="translate(635.560209 234.58929)scale(0.1 -0.1)">
       <use xlink:href="#DejaVuSans-49"/>
       <use x="63.623047" xlink:href="#DejaVuSans-53"/>
      </g>
     </g>
    </g>
   </g>
   <g id="matplotlib.axis_6">
    <g id="ytick_16">
     <g id="line2d_32">
      <g>
       <use style="stroke:#000000;stroke-width:0.8;" x="495.080603" xlink:href="#m1621ec7607" y="213.743251"/>
      </g>
     </g>
     <g id="text_30">
      <!-- 300000 -->
      <g transform="translate(449.905603 217.54247)scale(0.1 -0.1)">
       <use xlink:href="#DejaVuSans-51"/>
       <use x="63.623047" xlink:href="#DejaVuSans-48"/>
       <use x="127.246094" xlink:href="#DejaVuSans-48"/>
       <use x="190.869141" xlink:href="#DejaVuSans-48"/>
       <use x="254.492188" xlink:href="#DejaVuSans-48"/>
       <use x="318.115234" xlink:href="#DejaVuSans-48"/>
      </g>
     </g>
    </g>
    <g id="ytick_17">
     <g id="line2d_33">
      <g>
       <use style="stroke:#000000;stroke-width:0.8;" x="495.080603" xlink:href="#m1621ec7607" y="182.663289"/>
      </g>
     </g>
     <g id="text_31">
      <!-- 350000 -->
      <g transform="translate(449.905603 186.462508)scale(0.1 -0.1)">
       <use xlink:href="#DejaVuSans-51"/>
       <use x="63.623047" xlink:href="#DejaVuSans-53"/>
       <use x="127.246094" xlink:href="#DejaVuSans-48"/>
       <use x="190.869141" xlink:href="#DejaVuSans-48"/>
       <use x="254.492188" xlink:href="#DejaVuSans-48"/>
       <use x="318.115234" xlink:href="#DejaVuSans-48"/>
      </g>
     </g>
    </g>
    <g id="ytick_18">
     <g id="line2d_34">
      <g>
       <use style="stroke:#000000;stroke-width:0.8;" x="495.080603" xlink:href="#m1621ec7607" y="151.583326"/>
      </g>
     </g>
     <g id="text_32">
      <!-- 400000 -->
      <g transform="translate(449.905603 155.382545)scale(0.1 -0.1)">
       <use xlink:href="#DejaVuSans-52"/>
       <use x="63.623047" xlink:href="#DejaVuSans-48"/>
       <use x="127.246094" xlink:href="#DejaVuSans-48"/>
       <use x="190.869141" xlink:href="#DejaVuSans-48"/>
       <use x="254.492188" xlink:href="#DejaVuSans-48"/>
       <use x="318.115234" xlink:href="#DejaVuSans-48"/>
      </g>
     </g>
    </g>
    <g id="ytick_19">
     <g id="line2d_35">
      <g>
       <use style="stroke:#000000;stroke-width:0.8;" x="495.080603" xlink:href="#m1621ec7607" y="120.503363"/>
      </g>
     </g>
     <g id="text_33">
      <!-- 450000 -->
      <g transform="translate(449.905603 124.302582)scale(0.1 -0.1)">
       <use xlink:href="#DejaVuSans-52"/>
       <use x="63.623047" xlink:href="#DejaVuSans-53"/>
       <use x="127.246094" xlink:href="#DejaVuSans-48"/>
       <use x="190.869141" xlink:href="#DejaVuSans-48"/>
       <use x="254.492188" xlink:href="#DejaVuSans-48"/>
       <use x="318.115234" xlink:href="#DejaVuSans-48"/>
      </g>
     </g>
    </g>
    <g id="ytick_20">
     <g id="line2d_36">
      <g>
       <use style="stroke:#000000;stroke-width:0.8;" x="495.080603" xlink:href="#m1621ec7607" y="89.423401"/>
      </g>
     </g>
     <g id="text_34">
      <!-- 500000 -->
      <g transform="translate(449.905603 93.22262)scale(0.1 -0.1)">
       <use xlink:href="#DejaVuSans-53"/>
       <use x="63.623047" xlink:href="#DejaVuSans-48"/>
       <use x="127.246094" xlink:href="#DejaVuSans-48"/>
       <use x="190.869141" xlink:href="#DejaVuSans-48"/>
       <use x="254.492188" xlink:href="#DejaVuSans-48"/>
       <use x="318.115234" xlink:href="#DejaVuSans-48"/>
      </g>
     </g>
    </g>
    <g id="ytick_21">
     <g id="line2d_37">
      <g>
       <use style="stroke:#000000;stroke-width:0.8;" x="495.080603" xlink:href="#m1621ec7607" y="58.343438"/>
      </g>
     </g>
     <g id="text_35">
      <!-- 550000 -->
      <g transform="translate(449.905603 62.142657)scale(0.1 -0.1)">
       <use xlink:href="#DejaVuSans-53"/>
       <use x="63.623047" xlink:href="#DejaVuSans-53"/>
       <use x="127.246094" xlink:href="#DejaVuSans-48"/>
       <use x="190.869141" xlink:href="#DejaVuSans-48"/>
       <use x="254.492188" xlink:href="#DejaVuSans-48"/>
       <use x="318.115234" xlink:href="#DejaVuSans-48"/>
      </g>
     </g>
    </g>
    <g id="ytick_22">
     <g id="line2d_38">
      <g>
       <use style="stroke:#000000;stroke-width:0.8;" x="495.080603" xlink:href="#m1621ec7607" y="27.263475"/>
      </g>
     </g>
     <g id="text_36">
      <!-- 600000 -->
      <g transform="translate(449.905603 31.062694)scale(0.1 -0.1)">
       <use xlink:href="#DejaVuSans-54"/>
       <use x="63.623047" xlink:href="#DejaVuSans-48"/>
       <use x="127.246094" xlink:href="#DejaVuSans-48"/>
       <use x="190.869141" xlink:href="#DejaVuSans-48"/>
       <use x="254.492188" xlink:href="#DejaVuSans-48"/>
       <use x="318.115234" xlink:href="#DejaVuSans-48"/>
      </g>
     </g>
    </g>
   </g>
   <g id="line2d_39">
    <path clip-path="url(#p6ed843b3f7)" d="M 503.826685 210.849085 
L 513.033087 210.852815 
L 522.239488 210.852815 
L 531.44589 210.85468 
L 540.652291 210.875192 
L 549.858693 210.871463 
L 559.065094 210.871463 
L 568.271496 210.880787 
L 577.477898 210.891976 
L 586.684299 210.910624 
L 595.890701 210.908759 
L 605.097102 210.914353 
L 614.303504 210.94792 
L 623.509906 210.957244 
L 632.716307 210.959108 
L 641.922709 210.953514 
L 651.12911 210.946055 
L 660.335512 210.951649 
L 669.541913 210.955379 
L 678.748315 211.005728 
" style="fill:none;stroke:#ff7f50;stroke-linecap:square;stroke-width:1.5;"/>
   </g>
   <g id="line2d_40">
    <path clip-path="url(#p6ed843b3f7)" d="M 503.826685 31.303249 
L 513.033087 31.312573 
L 522.239488 31.3076 
L 531.44589 31.329356 
L 540.652291 31.321275 
L 549.858693 31.324383 
L 559.065094 31.332464 
L 568.271496 31.351112 
L 577.477898 31.369138 
L 586.684299 31.365409 
L 595.890701 31.37349 
L 605.097102 31.405191 
L 614.303504 31.427569 
L 623.509906 31.429434 
L 632.716307 31.422596 
L 641.922709 31.407678 
L 651.12911 31.421353 
L 660.335512 31.438136 
L 669.541913 31.495945 
L 678.748315 31.522052 
" style="fill:none;stroke:#6495ed;stroke-linecap:square;stroke-width:1.5;"/>
   </g>
   <g id="patch_13">
    <path d="M 495.080603 219.990852 
L 495.080603 22.318125 
" style="fill:none;stroke:#000000;stroke-linecap:square;stroke-linejoin:miter;stroke-width:0.8;"/>
   </g>
   <g id="patch_14">
    <path d="M 687.494397 219.990852 
L 687.494397 22.318125 
" style="fill:none;stroke:#000000;stroke-linecap:square;stroke-linejoin:miter;stroke-width:0.8;"/>
   </g>
   <g id="patch_15">
    <path d="M 495.080603 219.990852 
L 687.494397 219.990852 
" style="fill:none;stroke:#000000;stroke-linecap:square;stroke-linejoin:miter;stroke-width:0.8;"/>
   </g>
   <g id="patch_16">
    <path d="M 495.080603 22.318125 
L 687.494397 22.318125 
" style="fill:none;stroke:#000000;stroke-linecap:square;stroke-linejoin:miter;stroke-width:0.8;"/>
   </g>
   <g id="text_37">
    <!-- True Negatives -->
    <g transform="translate(546.585625 16.318125)scale(0.12 -0.12)">
     <defs>
      <path d="M 9.8125 72.90625 
L 23.09375 72.90625 
L 55.421875 11.921875 
L 55.421875 72.90625 
L 64.984375 72.90625 
L 64.984375 0 
L 51.703125 0 
L 19.390625 60.984375 
L 19.390625 0 
L 9.8125 0 
z
" id="DejaVuSans-78"/>
      <path d="M 45.40625 27.984375 
Q 45.40625 37.75 41.375 43.109375 
Q 37.359375 48.484375 30.078125 48.484375 
Q 22.859375 48.484375 18.828125 43.109375 
Q 14.796875 37.75 14.796875 27.984375 
Q 14.796875 18.265625 18.828125 12.890625 
Q 22.859375 7.515625 30.078125 7.515625 
Q 37.359375 7.515625 41.375 12.890625 
Q 45.40625 18.265625 45.40625 27.984375 
z
M 54.390625 6.78125 
Q 54.390625 -7.171875 48.1875 -13.984375 
Q 42 -20.796875 29.203125 -20.796875 
Q 24.46875 -20.796875 20.265625 -20.09375 
Q 16.0625 -19.390625 12.109375 -17.921875 
L 12.109375 -9.1875 
Q 16.0625 -11.328125 19.921875 -12.34375 
Q 23.78125 -13.375 27.78125 -13.375 
Q 36.625 -13.375 41.015625 -8.765625 
Q 45.40625 -4.15625 45.40625 5.171875 
L 45.40625 9.625 
Q 42.625 4.78125 38.28125 2.390625 
Q 33.9375 0 27.875 0 
Q 17.828125 0 11.671875 7.65625 
Q 5.515625 15.328125 5.515625 27.984375 
Q 5.515625 40.671875 11.671875 48.328125 
Q 17.828125 56 27.875 56 
Q 33.9375 56 38.28125 53.609375 
Q 42.625 51.21875 45.40625 46.390625 
L 45.40625 54.6875 
L 54.390625 54.6875 
z
" id="DejaVuSans-103"/>
     </defs>
     <use xlink:href="#DejaVuSans-84"/>
     <use x="46.333984" xlink:href="#DejaVuSans-114"/>
     <use x="87.447266" xlink:href="#DejaVuSans-117"/>
     <use x="150.826172" xlink:href="#DejaVuSans-101"/>
     <use x="212.349609" xlink:href="#DejaVuSans-32"/>
     <use x="244.136719" xlink:href="#DejaVuSans-78"/>
     <use x="318.941406" xlink:href="#DejaVuSans-101"/>
     <use x="380.464844" xlink:href="#DejaVuSans-103"/>
     <use x="443.941406" xlink:href="#DejaVuSans-97"/>
     <use x="505.220703" xlink:href="#DejaVuSans-116"/>
     <use x="544.429688" xlink:href="#DejaVuSans-105"/>
     <use x="572.212891" xlink:href="#DejaVuSans-118"/>
     <use x="631.392578" xlink:href="#DejaVuSans-101"/>
     <use x="692.916016" xlink:href="#DejaVuSans-115"/>
    </g>
   </g>
  </g>
  <g id="axes_4">
   <g id="patch_17">
    <path d="M 725.977155 219.990852 
L 918.390948 219.990852 
L 918.390948 22.318125 
L 725.977155 22.318125 
z
" style="fill:#ffffff;"/>
   </g>
   <g id="matplotlib.axis_7">
    <g id="xtick_13">
     <g id="line2d_41">
      <g>
       <use style="stroke:#000000;stroke-width:0.8;" x="734.723237" xlink:href="#mb0d3cfb578" y="219.990852"/>
      </g>
     </g>
     <g id="text_38">
      <!-- 0 -->
      <g transform="translate(731.541987 234.58929)scale(0.1 -0.1)">
       <use xlink:href="#DejaVuSans-48"/>
      </g>
     </g>
    </g>
    <g id="xtick_14">
     <g id="line2d_42">
      <g>
       <use style="stroke:#000000;stroke-width:0.8;" x="780.755245" xlink:href="#mb0d3cfb578" y="219.990852"/>
      </g>
     </g>
     <g id="text_39">
      <!-- 5 -->
      <g transform="translate(777.573995 234.58929)scale(0.1 -0.1)">
       <use xlink:href="#DejaVuSans-53"/>
      </g>
     </g>
    </g>
    <g id="xtick_15">
     <g id="line2d_43">
      <g>
       <use style="stroke:#000000;stroke-width:0.8;" x="826.787253" xlink:href="#mb0d3cfb578" y="219.990852"/>
      </g>
     </g>
     <g id="text_40">
      <!-- 10 -->
      <g transform="translate(820.424753 234.58929)scale(0.1 -0.1)">
       <use xlink:href="#DejaVuSans-49"/>
       <use x="63.623047" xlink:href="#DejaVuSans-48"/>
      </g>
     </g>
    </g>
    <g id="xtick_16">
     <g id="line2d_44">
      <g>
       <use style="stroke:#000000;stroke-width:0.8;" x="872.81926" xlink:href="#mb0d3cfb578" y="219.990852"/>
      </g>
     </g>
     <g id="text_41">
      <!-- 15 -->
      <g transform="translate(866.45676 234.58929)scale(0.1 -0.1)">
       <use xlink:href="#DejaVuSans-49"/>
       <use x="63.623047" xlink:href="#DejaVuSans-53"/>
      </g>
     </g>
    </g>
   </g>
   <g id="matplotlib.axis_8">
    <g id="ytick_23">
     <g id="line2d_45">
      <g>
       <use style="stroke:#000000;stroke-width:0.8;" x="725.977155" xlink:href="#m1621ec7607" y="178.014808"/>
      </g>
     </g>
     <g id="text_42">
      <!-- 3000 -->
      <g transform="translate(693.527155 181.814027)scale(0.1 -0.1)">
       <use xlink:href="#DejaVuSans-51"/>
       <use x="63.623047" xlink:href="#DejaVuSans-48"/>
       <use x="127.246094" xlink:href="#DejaVuSans-48"/>
       <use x="190.869141" xlink:href="#DejaVuSans-48"/>
      </g>
     </g>
    </g>
    <g id="ytick_24">
     <g id="line2d_46">
      <g>
       <use style="stroke:#000000;stroke-width:0.8;" x="725.977155" xlink:href="#m1621ec7607" y="135.390881"/>
      </g>
     </g>
     <g id="text_43">
      <!-- 4000 -->
      <g transform="translate(693.527155 139.190099)scale(0.1 -0.1)">
       <use xlink:href="#DejaVuSans-52"/>
       <use x="63.623047" xlink:href="#DejaVuSans-48"/>
       <use x="127.246094" xlink:href="#DejaVuSans-48"/>
       <use x="190.869141" xlink:href="#DejaVuSans-48"/>
      </g>
     </g>
    </g>
    <g id="ytick_25">
     <g id="line2d_47">
      <g>
       <use style="stroke:#000000;stroke-width:0.8;" x="725.977155" xlink:href="#m1621ec7607" y="92.766953"/>
      </g>
     </g>
     <g id="text_44">
      <!-- 5000 -->
      <g transform="translate(693.527155 96.566172)scale(0.1 -0.1)">
       <use xlink:href="#DejaVuSans-53"/>
       <use x="63.623047" xlink:href="#DejaVuSans-48"/>
       <use x="127.246094" xlink:href="#DejaVuSans-48"/>
       <use x="190.869141" xlink:href="#DejaVuSans-48"/>
      </g>
     </g>
    </g>
    <g id="ytick_26">
     <g id="line2d_48">
      <g>
       <use style="stroke:#000000;stroke-width:0.8;" x="725.977155" xlink:href="#m1621ec7607" y="50.143025"/>
      </g>
     </g>
     <g id="text_45">
      <!-- 6000 -->
      <g transform="translate(693.527155 53.942244)scale(0.1 -0.1)">
       <use xlink:href="#DejaVuSans-54"/>
       <use x="63.623047" xlink:href="#DejaVuSans-48"/>
       <use x="127.246094" xlink:href="#DejaVuSans-48"/>
       <use x="190.869141" xlink:href="#DejaVuSans-48"/>
      </g>
     </g>
    </g>
   </g>
   <g id="line2d_49">
    <path clip-path="url(#p29a19a7b07)" d="M 734.723237 197.451319 
L 743.929638 198.21855 
L 753.13604 198.985781 
L 762.342441 199.497268 
L 771.548843 201.031729 
L 780.755245 200.648114 
L 789.961646 201.287473 
L 799.168048 202.821934 
L 808.374449 204.100652 
L 817.580851 205.251498 
L 826.787253 205.507242 
L 835.993654 205.762985 
L 845.200056 207.297447 
L 854.406457 208.064677 
L 863.612859 208.320421 
L 872.81926 208.192549 
L 882.025662 208.192549 
L 891.232064 208.448293 
L 900.438465 209.343395 
L 909.644867 211.005728 
" style="fill:none;stroke:#ff7f50;stroke-linecap:square;stroke-width:1.5;"/>
   </g>
   <g id="line2d_50">
    <path clip-path="url(#p29a19a7b07)" d="M 734.723237 31.303249 
L 743.929638 32.240975 
L 753.13604 32.667215 
L 762.342441 36.588616 
L 771.548843 36.077129 
L 780.755245 36.886984 
L 789.961646 38.634565 
L 799.168048 40.21165 
L 808.374449 41.703487 
L 817.580851 41.788735 
L 826.787253 42.811709 
L 835.993654 45.198649 
L 845.200056 47.074102 
L 854.406457 47.500342 
L 863.612859 47.585589 
L 872.81926 47.37247 
L 882.025662 48.395444 
L 891.232064 50.015153 
L 900.438465 54.405418 
L 909.644867 56.238247 
" style="fill:none;stroke:#6495ed;stroke-linecap:square;stroke-width:1.5;"/>
   </g>
   <g id="patch_18">
    <path d="M 725.977155 219.990852 
L 725.977155 22.318125 
" style="fill:none;stroke:#000000;stroke-linecap:square;stroke-linejoin:miter;stroke-width:0.8;"/>
   </g>
   <g id="patch_19">
    <path d="M 918.390948 219.990852 
L 918.390948 22.318125 
" style="fill:none;stroke:#000000;stroke-linecap:square;stroke-linejoin:miter;stroke-width:0.8;"/>
   </g>
   <g id="patch_20">
    <path d="M 725.977155 219.990852 
L 918.390948 219.990852 
" style="fill:none;stroke:#000000;stroke-linecap:square;stroke-linejoin:miter;stroke-width:0.8;"/>
   </g>
   <g id="patch_21">
    <path d="M 725.977155 22.318125 
L 918.390948 22.318125 
" style="fill:none;stroke:#000000;stroke-linecap:square;stroke-linejoin:miter;stroke-width:0.8;"/>
   </g>
   <g id="text_46">
    <!-- False Negatives -->
    <g transform="translate(775.158114 16.318125)scale(0.12 -0.12)">
     <use xlink:href="#DejaVuSans-70"/>
     <use x="48.394531" xlink:href="#DejaVuSans-97"/>
     <use x="109.673828" xlink:href="#DejaVuSans-108"/>
     <use x="137.457031" xlink:href="#DejaVuSans-115"/>
     <use x="189.556641" xlink:href="#DejaVuSans-101"/>
     <use x="251.080078" xlink:href="#DejaVuSans-32"/>
     <use x="282.867188" xlink:href="#DejaVuSans-78"/>
     <use x="357.671875" xlink:href="#DejaVuSans-101"/>
     <use x="419.195312" xlink:href="#DejaVuSans-103"/>
     <use x="482.671875" xlink:href="#DejaVuSans-97"/>
     <use x="543.951172" xlink:href="#DejaVuSans-116"/>
     <use x="583.160156" xlink:href="#DejaVuSans-105"/>
     <use x="610.943359" xlink:href="#DejaVuSans-118"/>
     <use x="670.123047" xlink:href="#DejaVuSans-101"/>
     <use x="731.646484" xlink:href="#DejaVuSans-115"/>
    </g>
   </g>
  </g>
  <g id="axes_5">
   <g id="patch_22">
    <path d="M 956.873707 219.990852 
L 1149.2875 219.990852 
L 1149.2875 22.318125 
L 956.873707 22.318125 
z
" style="fill:#ffffff;"/>
   </g>
   <g id="matplotlib.axis_9">
    <g id="xtick_17">
     <g id="line2d_51">
      <g>
       <use style="stroke:#000000;stroke-width:0.8;" x="965.619788" xlink:href="#mb0d3cfb578" y="219.990852"/>
      </g>
     </g>
     <g id="text_47">
      <!-- 0 -->
      <g transform="translate(962.438538 234.58929)scale(0.1 -0.1)">
       <use xlink:href="#DejaVuSans-48"/>
      </g>
     </g>
    </g>
    <g id="xtick_18">
     <g id="line2d_52">
      <g>
       <use style="stroke:#000000;stroke-width:0.8;" x="1011.651796" xlink:href="#mb0d3cfb578" y="219.990852"/>
      </g>
     </g>
     <g id="text_48">
      <!-- 5 -->
      <g transform="translate(1008.470546 234.58929)scale(0.1 -0.1)">
       <use xlink:href="#DejaVuSans-53"/>
      </g>
     </g>
    </g>
    <g id="xtick_19">
     <g id="line2d_53">
      <g>
       <use style="stroke:#000000;stroke-width:0.8;" x="1057.683804" xlink:href="#mb0d3cfb578" y="219.990852"/>
      </g>
     </g>
     <g id="text_49">
      <!-- 10 -->
      <g transform="translate(1051.321304 234.58929)scale(0.1 -0.1)">
       <use xlink:href="#DejaVuSans-49"/>
       <use x="63.623047" xlink:href="#DejaVuSans-48"/>
      </g>
     </g>
    </g>
    <g id="xtick_20">
     <g id="line2d_54">
      <g>
       <use style="stroke:#000000;stroke-width:0.8;" x="1103.715812" xlink:href="#mb0d3cfb578" y="219.990852"/>
      </g>
     </g>
     <g id="text_50">
      <!-- 15 -->
      <g transform="translate(1097.353312 234.58929)scale(0.1 -0.1)">
       <use xlink:href="#DejaVuSans-49"/>
       <use x="63.623047" xlink:href="#DejaVuSans-53"/>
      </g>
     </g>
    </g>
   </g>
   <g id="matplotlib.axis_10">
    <g id="ytick_27">
     <g id="line2d_55">
      <g>
       <use style="stroke:#000000;stroke-width:0.8;" x="956.873707" xlink:href="#m1621ec7607" y="193.996048"/>
      </g>
     </g>
     <g id="text_51">
      <!-- 0.9895 -->
      <g transform="translate(914.883082 197.795267)scale(0.1 -0.1)">
       <defs>
        <path d="M 10.6875 12.40625 
L 21 12.40625 
L 21 0 
L 10.6875 0 
z
" id="DejaVuSans-46"/>
        <path d="M 10.984375 1.515625 
L 10.984375 10.5 
Q 14.703125 8.734375 18.5 7.8125 
Q 22.3125 6.890625 25.984375 6.890625 
Q 35.75 6.890625 40.890625 13.453125 
Q 46.046875 20.015625 46.78125 33.40625 
Q 43.953125 29.203125 39.59375 26.953125 
Q 35.25 24.703125 29.984375 24.703125 
Q 19.046875 24.703125 12.671875 31.3125 
Q 6.296875 37.9375 6.296875 49.421875 
Q 6.296875 60.640625 12.9375 67.421875 
Q 19.578125 74.21875 30.609375 74.21875 
Q 43.265625 74.21875 49.921875 64.515625 
Q 56.59375 54.828125 56.59375 36.375 
Q 56.59375 19.140625 48.40625 8.859375 
Q 40.234375 -1.421875 26.421875 -1.421875 
Q 22.703125 -1.421875 18.890625 -0.6875 
Q 15.09375 0.046875 10.984375 1.515625 
z
M 30.609375 32.421875 
Q 37.25 32.421875 41.125 36.953125 
Q 45.015625 41.5 45.015625 49.421875 
Q 45.015625 57.28125 41.125 61.84375 
Q 37.25 66.40625 30.609375 66.40625 
Q 23.96875 66.40625 20.09375 61.84375 
Q 16.21875 57.28125 16.21875 49.421875 
Q 16.21875 41.5 20.09375 36.953125 
Q 23.96875 32.421875 30.609375 32.421875 
z
" id="DejaVuSans-57"/>
        <path d="M 31.78125 34.625 
Q 24.75 34.625 20.71875 30.859375 
Q 16.703125 27.09375 16.703125 20.515625 
Q 16.703125 13.921875 20.71875 10.15625 
Q 24.75 6.390625 31.78125 6.390625 
Q 38.8125 6.390625 42.859375 10.171875 
Q 46.921875 13.96875 46.921875 20.515625 
Q 46.921875 27.09375 42.890625 30.859375 
Q 38.875 34.625 31.78125 34.625 
z
M 21.921875 38.8125 
Q 15.578125 40.375 12.03125 44.71875 
Q 8.5 49.078125 8.5 55.328125 
Q 8.5 64.0625 14.71875 69.140625 
Q 20.953125 74.21875 31.78125 74.21875 
Q 42.671875 74.21875 48.875 69.140625 
Q 55.078125 64.0625 55.078125 55.328125 
Q 55.078125 49.078125 51.53125 44.71875 
Q 48 40.375 41.703125 38.8125 
Q 48.828125 37.15625 52.796875 32.3125 
Q 56.78125 27.484375 56.78125 20.515625 
Q 56.78125 9.90625 50.3125 4.234375 
Q 43.84375 -1.421875 31.78125 -1.421875 
Q 19.734375 -1.421875 13.25 4.234375 
Q 6.78125 9.90625 6.78125 20.515625 
Q 6.78125 27.484375 10.78125 32.3125 
Q 14.796875 37.15625 21.921875 38.8125 
z
M 18.3125 54.390625 
Q 18.3125 48.734375 21.84375 45.5625 
Q 25.390625 42.390625 31.78125 42.390625 
Q 38.140625 42.390625 41.71875 45.5625 
Q 45.3125 48.734375 45.3125 54.390625 
Q 45.3125 60.0625 41.71875 63.234375 
Q 38.140625 66.40625 31.78125 66.40625 
Q 25.390625 66.40625 21.84375 63.234375 
Q 18.3125 60.0625 18.3125 54.390625 
z
" id="DejaVuSans-56"/>
       </defs>
       <use xlink:href="#DejaVuSans-48"/>
       <use x="63.623047" xlink:href="#DejaVuSans-46"/>
       <use x="95.410156" xlink:href="#DejaVuSans-57"/>
       <use x="159.033203" xlink:href="#DejaVuSans-56"/>
       <use x="222.65625" xlink:href="#DejaVuSans-57"/>
       <use x="286.279297" xlink:href="#DejaVuSans-53"/>
      </g>
     </g>
    </g>
    <g id="ytick_28">
     <g id="line2d_56">
      <g>
       <use style="stroke:#000000;stroke-width:0.8;" x="956.873707" xlink:href="#m1621ec7607" y="162.105091"/>
      </g>
     </g>
     <g id="text_52">
      <!-- 0.9900 -->
      <g transform="translate(914.883082 165.904309)scale(0.1 -0.1)">
       <use xlink:href="#DejaVuSans-48"/>
       <use x="63.623047" xlink:href="#DejaVuSans-46"/>
       <use x="95.410156" xlink:href="#DejaVuSans-57"/>
       <use x="159.033203" xlink:href="#DejaVuSans-57"/>
       <use x="222.65625" xlink:href="#DejaVuSans-48"/>
       <use x="286.279297" xlink:href="#DejaVuSans-48"/>
      </g>
     </g>
    </g>
    <g id="ytick_29">
     <g id="line2d_57">
      <g>
       <use style="stroke:#000000;stroke-width:0.8;" x="956.873707" xlink:href="#m1621ec7607" y="130.214133"/>
      </g>
     </g>
     <g id="text_53">
      <!-- 0.9905 -->
      <g transform="translate(914.883082 134.013352)scale(0.1 -0.1)">
       <use xlink:href="#DejaVuSans-48"/>
       <use x="63.623047" xlink:href="#DejaVuSans-46"/>
       <use x="95.410156" xlink:href="#DejaVuSans-57"/>
       <use x="159.033203" xlink:href="#DejaVuSans-57"/>
       <use x="222.65625" xlink:href="#DejaVuSans-48"/>
       <use x="286.279297" xlink:href="#DejaVuSans-53"/>
      </g>
     </g>
    </g>
    <g id="ytick_30">
     <g id="line2d_58">
      <g>
       <use style="stroke:#000000;stroke-width:0.8;" x="956.873707" xlink:href="#m1621ec7607" y="98.323176"/>
      </g>
     </g>
     <g id="text_54">
      <!-- 0.9910 -->
      <g transform="translate(914.883082 102.122395)scale(0.1 -0.1)">
       <use xlink:href="#DejaVuSans-48"/>
       <use x="63.623047" xlink:href="#DejaVuSans-46"/>
       <use x="95.410156" xlink:href="#DejaVuSans-57"/>
       <use x="159.033203" xlink:href="#DejaVuSans-57"/>
       <use x="222.65625" xlink:href="#DejaVuSans-49"/>
       <use x="286.279297" xlink:href="#DejaVuSans-48"/>
      </g>
     </g>
    </g>
    <g id="ytick_31">
     <g id="line2d_59">
      <g>
       <use style="stroke:#000000;stroke-width:0.8;" x="956.873707" xlink:href="#m1621ec7607" y="66.432219"/>
      </g>
     </g>
     <g id="text_55">
      <!-- 0.9915 -->
      <g transform="translate(914.883082 70.231438)scale(0.1 -0.1)">
       <use xlink:href="#DejaVuSans-48"/>
       <use x="63.623047" xlink:href="#DejaVuSans-46"/>
       <use x="95.410156" xlink:href="#DejaVuSans-57"/>
       <use x="159.033203" xlink:href="#DejaVuSans-57"/>
       <use x="222.65625" xlink:href="#DejaVuSans-49"/>
       <use x="286.279297" xlink:href="#DejaVuSans-53"/>
      </g>
     </g>
    </g>
    <g id="ytick_32">
     <g id="line2d_60">
      <g>
       <use style="stroke:#000000;stroke-width:0.8;" x="956.873707" xlink:href="#m1621ec7607" y="34.541262"/>
      </g>
     </g>
     <g id="text_56">
      <!-- 0.9920 -->
      <g transform="translate(914.883082 38.340481)scale(0.1 -0.1)">
       <use xlink:href="#DejaVuSans-48"/>
       <use x="63.623047" xlink:href="#DejaVuSans-46"/>
       <use x="95.410156" xlink:href="#DejaVuSans-57"/>
       <use x="159.033203" xlink:href="#DejaVuSans-57"/>
       <use x="222.65625" xlink:href="#DejaVuSans-50"/>
       <use x="286.279297" xlink:href="#DejaVuSans-48"/>
      </g>
     </g>
    </g>
   </g>
   <g id="line2d_61">
    <path clip-path="url(#pe518361d32)" d="M 965.619788 52.478709 
L 974.82619 49.988596 
L 984.032592 46.251527 
L 993.238993 44.381091 
L 1002.445395 43.761414 
L 1011.651796 44.381091 
L 1020.858198 41.2675 
L 1030.064599 36.906952 
L 1039.271001 34.41684 
L 1048.477403 35.040318 
L 1057.683804 33.169883 
L 1066.890206 33.793361 
L 1076.096607 38.153909 
L 1085.303009 37.530431 
L 1094.509411 36.906952 
L 1103.715812 35.663797 
L 1112.922214 33.793361 
L 1122.128615 34.41684 
L 1131.335017 31.303249 
L 1140.541418 41.890979 
" style="fill:none;stroke:#ff7f50;stroke-linecap:square;stroke-width:1.5;"/>
   </g>
   <g id="line2d_62">
    <path clip-path="url(#pe518361d32)" d="M 965.619788 211.005728 
L 974.82619 210.367043 
L 984.032592 208.454789 
L 993.238993 202.820672 
L 1002.445395 202.714224 
L 1011.651796 201.223958 
L 1020.858198 198.460124 
L 1030.064599 197.927886 
L 1039.271001 197.505897 
L 1048.477403 196.654317 
L 1057.683804 195.483394 
L 1066.890206 195.589841 
L 1076.096607 195.376946 
L 1085.303009 195.164051 
L 1094.509411 193.784035 
L 1103.715812 191.44599 
L 1112.922214 191.871781 
L 1122.128615 190.913753 
L 1131.335017 191.126648 
L 1140.541418 191.871781 
" style="fill:none;stroke:#6495ed;stroke-linecap:square;stroke-width:1.5;"/>
   </g>
   <g id="patch_23">
    <path d="M 956.873707 219.990852 
L 956.873707 22.318125 
" style="fill:none;stroke:#000000;stroke-linecap:square;stroke-linejoin:miter;stroke-width:0.8;"/>
   </g>
   <g id="patch_24">
    <path d="M 1149.2875 219.990852 
L 1149.2875 22.318125 
" style="fill:none;stroke:#000000;stroke-linecap:square;stroke-linejoin:miter;stroke-width:0.8;"/>
   </g>
   <g id="patch_25">
    <path d="M 956.873707 219.990852 
L 1149.2875 219.990852 
" style="fill:none;stroke:#000000;stroke-linecap:square;stroke-linejoin:miter;stroke-width:0.8;"/>
   </g>
   <g id="patch_26">
    <path d="M 956.873707 22.318125 
L 1149.2875 22.318125 
" style="fill:none;stroke:#000000;stroke-linecap:square;stroke-linejoin:miter;stroke-width:0.8;"/>
   </g>
   <g id="text_57">
    <!-- BinaryAccuracy -->
    <g transform="translate(1006.406228 16.318125)scale(0.12 -0.12)">
     <defs>
      <path d="M 19.671875 34.8125 
L 19.671875 8.109375 
L 35.5 8.109375 
Q 43.453125 8.109375 47.28125 11.40625 
Q 51.125 14.703125 51.125 21.484375 
Q 51.125 28.328125 47.28125 31.5625 
Q 43.453125 34.8125 35.5 34.8125 
z
M 19.671875 64.796875 
L 19.671875 42.828125 
L 34.28125 42.828125 
Q 41.5 42.828125 45.03125 45.53125 
Q 48.578125 48.25 48.578125 53.8125 
Q 48.578125 59.328125 45.03125 62.0625 
Q 41.5 64.796875 34.28125 64.796875 
z
M 9.8125 72.90625 
L 35.015625 72.90625 
Q 46.296875 72.90625 52.390625 68.21875 
Q 58.5 63.53125 58.5 54.890625 
Q 58.5 48.1875 55.375 44.234375 
Q 52.25 40.28125 46.1875 39.3125 
Q 53.46875 37.75 57.5 32.78125 
Q 61.53125 27.828125 61.53125 20.40625 
Q 61.53125 10.640625 54.890625 5.3125 
Q 48.25 0 35.984375 0 
L 9.8125 0 
z
" id="DejaVuSans-66"/>
      <path d="M 54.890625 33.015625 
L 54.890625 0 
L 45.90625 0 
L 45.90625 32.71875 
Q 45.90625 40.484375 42.875 44.328125 
Q 39.84375 48.1875 33.796875 48.1875 
Q 26.515625 48.1875 22.3125 43.546875 
Q 18.109375 38.921875 18.109375 30.90625 
L 18.109375 0 
L 9.078125 0 
L 9.078125 54.6875 
L 18.109375 54.6875 
L 18.109375 46.1875 
Q 21.34375 51.125 25.703125 53.5625 
Q 30.078125 56 35.796875 56 
Q 45.21875 56 50.046875 50.171875 
Q 54.890625 44.34375 54.890625 33.015625 
z
" id="DejaVuSans-110"/>
      <path d="M 32.171875 -5.078125 
Q 28.375 -14.84375 24.75 -17.8125 
Q 21.140625 -20.796875 15.09375 -20.796875 
L 7.90625 -20.796875 
L 7.90625 -13.28125 
L 13.1875 -13.28125 
Q 16.890625 -13.28125 18.9375 -11.515625 
Q 21 -9.765625 23.484375 -3.21875 
L 25.09375 0.875 
L 2.984375 54.6875 
L 12.5 54.6875 
L 29.59375 11.921875 
L 46.6875 54.6875 
L 56.203125 54.6875 
z
" id="DejaVuSans-121"/>
      <path d="M 34.1875 63.1875 
L 20.796875 26.90625 
L 47.609375 26.90625 
z
M 28.609375 72.90625 
L 39.796875 72.90625 
L 67.578125 0 
L 57.328125 0 
L 50.6875 18.703125 
L 17.828125 18.703125 
L 11.1875 0 
L 0.78125 0 
z
" id="DejaVuSans-65"/>
      <path d="M 48.78125 52.59375 
L 48.78125 44.1875 
Q 44.96875 46.296875 41.140625 47.34375 
Q 37.3125 48.390625 33.40625 48.390625 
Q 24.65625 48.390625 19.8125 42.84375 
Q 14.984375 37.3125 14.984375 27.296875 
Q 14.984375 17.28125 19.8125 11.734375 
Q 24.65625 6.203125 33.40625 6.203125 
Q 37.3125 6.203125 41.140625 7.25 
Q 44.96875 8.296875 48.78125 10.40625 
L 48.78125 2.09375 
Q 45.015625 0.34375 40.984375 -0.53125 
Q 36.96875 -1.421875 32.421875 -1.421875 
Q 20.0625 -1.421875 12.78125 6.34375 
Q 5.515625 14.109375 5.515625 27.296875 
Q 5.515625 40.671875 12.859375 48.328125 
Q 20.21875 56 33.015625 56 
Q 37.15625 56 41.109375 55.140625 
Q 45.0625 54.296875 48.78125 52.59375 
z
" id="DejaVuSans-99"/>
     </defs>
     <use xlink:href="#DejaVuSans-66"/>
     <use x="68.603516" xlink:href="#DejaVuSans-105"/>
     <use x="96.386719" xlink:href="#DejaVuSans-110"/>
     <use x="159.765625" xlink:href="#DejaVuSans-97"/>
     <use x="221.044922" xlink:href="#DejaVuSans-114"/>
     <use x="262.158203" xlink:href="#DejaVuSans-121"/>
     <use x="321.337891" xlink:href="#DejaVuSans-65"/>
     <use x="387.996094" xlink:href="#DejaVuSans-99"/>
     <use x="442.976562" xlink:href="#DejaVuSans-99"/>
     <use x="497.957031" xlink:href="#DejaVuSans-117"/>
     <use x="561.335938" xlink:href="#DejaVuSans-114"/>
     <use x="602.449219" xlink:href="#DejaVuSans-97"/>
     <use x="663.728516" xlink:href="#DejaVuSans-99"/>
     <use x="718.708984" xlink:href="#DejaVuSans-121"/>
    </g>
   </g>
  </g>
  <g id="axes_6">
   <g id="patch_27">
    <path d="M 33.2875 457.198125 
L 225.701293 457.198125 
L 225.701293 259.525398 
L 33.2875 259.525398 
z
" style="fill:#ffffff;"/>
   </g>
   <g id="matplotlib.axis_11">
    <g id="xtick_21">
     <g id="line2d_63">
      <g>
       <use style="stroke:#000000;stroke-width:0.8;" x="42.033582" xlink:href="#mb0d3cfb578" y="457.198125"/>
      </g>
     </g>
     <g id="text_58">
      <!-- 0 -->
      <g transform="translate(38.852332 471.796562)scale(0.1 -0.1)">
       <use xlink:href="#DejaVuSans-48"/>
      </g>
     </g>
    </g>
    <g id="xtick_22">
     <g id="line2d_64">
      <g>
       <use style="stroke:#000000;stroke-width:0.8;" x="88.065589" xlink:href="#mb0d3cfb578" y="457.198125"/>
      </g>
     </g>
     <g id="text_59">
      <!-- 5 -->
      <g transform="translate(84.884339 471.796562)scale(0.1 -0.1)">
       <use xlink:href="#DejaVuSans-53"/>
      </g>
     </g>
    </g>
    <g id="xtick_23">
     <g id="line2d_65">
      <g>
       <use style="stroke:#000000;stroke-width:0.8;" x="134.097597" xlink:href="#mb0d3cfb578" y="457.198125"/>
      </g>
     </g>
     <g id="text_60">
      <!-- 10 -->
      <g transform="translate(127.735097 471.796562)scale(0.1 -0.1)">
       <use xlink:href="#DejaVuSans-49"/>
       <use x="63.623047" xlink:href="#DejaVuSans-48"/>
      </g>
     </g>
    </g>
    <g id="xtick_24">
     <g id="line2d_66">
      <g>
       <use style="stroke:#000000;stroke-width:0.8;" x="180.129605" xlink:href="#mb0d3cfb578" y="457.198125"/>
      </g>
     </g>
     <g id="text_61">
      <!-- 15 -->
      <g transform="translate(173.767105 471.796562)scale(0.1 -0.1)">
       <use xlink:href="#DejaVuSans-49"/>
       <use x="63.623047" xlink:href="#DejaVuSans-53"/>
      </g>
     </g>
    </g>
   </g>
   <g id="matplotlib.axis_12">
    <g id="ytick_33">
     <g id="line2d_67">
      <g>
       <use style="stroke:#000000;stroke-width:0.8;" x="33.2875" xlink:href="#m1621ec7607" y="448.213001"/>
      </g>
     </g>
     <g id="text_62">
      <!-- 0.0 -->
      <g transform="translate(10.384375 452.01222)scale(0.1 -0.1)">
       <use xlink:href="#DejaVuSans-48"/>
       <use x="63.623047" xlink:href="#DejaVuSans-46"/>
       <use x="95.410156" xlink:href="#DejaVuSans-48"/>
      </g>
     </g>
    </g>
    <g id="ytick_34">
     <g id="line2d_68">
      <g>
       <use style="stroke:#000000;stroke-width:0.8;" x="33.2875" xlink:href="#m1621ec7607" y="406.282423"/>
      </g>
     </g>
     <g id="text_63">
      <!-- 0.2 -->
      <g transform="translate(10.384375 410.081642)scale(0.1 -0.1)">
       <use xlink:href="#DejaVuSans-48"/>
       <use x="63.623047" xlink:href="#DejaVuSans-46"/>
       <use x="95.410156" xlink:href="#DejaVuSans-50"/>
      </g>
     </g>
    </g>
    <g id="ytick_35">
     <g id="line2d_69">
      <g>
       <use style="stroke:#000000;stroke-width:0.8;" x="33.2875" xlink:href="#m1621ec7607" y="364.351845"/>
      </g>
     </g>
     <g id="text_64">
      <!-- 0.4 -->
      <g transform="translate(10.384375 368.151064)scale(0.1 -0.1)">
       <use xlink:href="#DejaVuSans-48"/>
       <use x="63.623047" xlink:href="#DejaVuSans-46"/>
       <use x="95.410156" xlink:href="#DejaVuSans-52"/>
      </g>
     </g>
    </g>
    <g id="ytick_36">
     <g id="line2d_70">
      <g>
       <use style="stroke:#000000;stroke-width:0.8;" x="33.2875" xlink:href="#m1621ec7607" y="322.421267"/>
      </g>
     </g>
     <g id="text_65">
      <!-- 0.6 -->
      <g transform="translate(10.384375 326.220485)scale(0.1 -0.1)">
       <use xlink:href="#DejaVuSans-48"/>
       <use x="63.623047" xlink:href="#DejaVuSans-46"/>
       <use x="95.410156" xlink:href="#DejaVuSans-54"/>
      </g>
     </g>
    </g>
    <g id="ytick_37">
     <g id="line2d_71">
      <g>
       <use style="stroke:#000000;stroke-width:0.8;" x="33.2875" xlink:href="#m1621ec7607" y="280.490689"/>
      </g>
     </g>
     <g id="text_66">
      <!-- 0.8 -->
      <g transform="translate(10.384375 284.289907)scale(0.1 -0.1)">
       <use xlink:href="#DejaVuSans-48"/>
       <use x="63.623047" xlink:href="#DejaVuSans-46"/>
       <use x="95.410156" xlink:href="#DejaVuSans-56"/>
      </g>
     </g>
    </g>
   </g>
   <g id="line2d_72">
    <path clip-path="url(#pe064860323)" d="M 42.033582 448.213001 
L 51.239983 290.973333 
L 60.446385 268.510522 
L 69.652786 271.663197 
L 78.859188 308.444403 
L 88.065589 306.55564 
L 97.271991 298.460933 
L 106.478393 298.968569 
L 115.684794 302.853665 
L 124.891196 312.161661 
L 134.097597 309.180035 
L 143.303999 311.938627 
L 152.510401 324.033982 
L 161.716802 324.800305 
L 170.923204 324.459556 
L 180.129605 322.421262 
L 189.336007 318.721511 
L 198.542408 320.339605 
L 207.74881 318.228208 
L 216.955212 331.248751 
" style="fill:none;stroke:#ff7f50;stroke-linecap:square;stroke-width:1.5;"/>
   </g>
   <g id="line2d_73">
    <path clip-path="url(#pe064860323)" d="M 42.033582 293.731926 
L 51.239983 305.470612 
L 60.446385 286.605569 
L 69.652786 292.148521 
L 78.859188 285.149639 
L 88.065589 284.834845 
L 97.271991 285.656051 
L 106.478393 294.793535 
L 115.684794 300.889349 
L 124.891196 298.386617 
L 134.097597 299.550047 
L 143.303999 307.16682 
L 152.510401 310.450657 
L 161.716802 309.973124 
L 170.923204 307.336895 
L 180.129605 302.291807 
L 189.336007 304.885486 
L 198.542408 306.778161 
L 207.74881 313.51852 
L 216.955212 315.967167 
" style="fill:none;stroke:#6495ed;stroke-linecap:square;stroke-width:1.5;"/>
   </g>
   <g id="patch_28">
    <path d="M 33.2875 457.198125 
L 33.2875 259.525398 
" style="fill:none;stroke:#000000;stroke-linecap:square;stroke-linejoin:miter;stroke-width:0.8;"/>
   </g>
   <g id="patch_29">
    <path d="M 225.701293 457.198125 
L 225.701293 259.525398 
" style="fill:none;stroke:#000000;stroke-linecap:square;stroke-linejoin:miter;stroke-width:0.8;"/>
   </g>
   <g id="patch_30">
    <path d="M 33.2875 457.198125 
L 225.701293 457.198125 
" style="fill:none;stroke:#000000;stroke-linecap:square;stroke-linejoin:miter;stroke-width:0.8;"/>
   </g>
   <g id="patch_31">
    <path d="M 33.2875 259.525398 
L 225.701293 259.525398 
" style="fill:none;stroke:#000000;stroke-linecap:square;stroke-linejoin:miter;stroke-width:0.8;"/>
   </g>
   <g id="text_67">
    <!-- Precision -->
    <g transform="translate(102.725959 253.525398)scale(0.12 -0.12)">
     <use xlink:href="#DejaVuSans-80"/>
     <use x="58.552734" xlink:href="#DejaVuSans-114"/>
     <use x="97.416016" xlink:href="#DejaVuSans-101"/>
     <use x="158.939453" xlink:href="#DejaVuSans-99"/>
     <use x="213.919922" xlink:href="#DejaVuSans-105"/>
     <use x="241.703125" xlink:href="#DejaVuSans-115"/>
     <use x="293.802734" xlink:href="#DejaVuSans-105"/>
     <use x="321.585938" xlink:href="#DejaVuSans-111"/>
     <use x="382.767578" xlink:href="#DejaVuSans-110"/>
    </g>
   </g>
  </g>
  <g id="axes_7">
   <g id="patch_32">
    <path d="M 264.184052 457.198125 
L 456.597845 457.198125 
L 456.597845 259.525398 
L 264.184052 259.525398 
z
" style="fill:#ffffff;"/>
   </g>
   <g id="matplotlib.axis_13">
    <g id="xtick_25">
     <g id="line2d_74">
      <g>
       <use style="stroke:#000000;stroke-width:0.8;" x="272.930133" xlink:href="#mb0d3cfb578" y="457.198125"/>
      </g>
     </g>
     <g id="text_68">
      <!-- 0 -->
      <g transform="translate(269.748883 471.796562)scale(0.1 -0.1)">
       <use xlink:href="#DejaVuSans-48"/>
      </g>
     </g>
    </g>
    <g id="xtick_26">
     <g id="line2d_75">
      <g>
       <use style="stroke:#000000;stroke-width:0.8;" x="318.962141" xlink:href="#mb0d3cfb578" y="457.198125"/>
      </g>
     </g>
     <g id="text_69">
      <!-- 5 -->
      <g transform="translate(315.780891 471.796562)scale(0.1 -0.1)">
       <use xlink:href="#DejaVuSans-53"/>
      </g>
     </g>
    </g>
    <g id="xtick_27">
     <g id="line2d_76">
      <g>
       <use style="stroke:#000000;stroke-width:0.8;" x="364.994149" xlink:href="#mb0d3cfb578" y="457.198125"/>
      </g>
     </g>
     <g id="text_70">
      <!-- 10 -->
      <g transform="translate(358.631649 471.796562)scale(0.1 -0.1)">
       <use xlink:href="#DejaVuSans-49"/>
       <use x="63.623047" xlink:href="#DejaVuSans-48"/>
      </g>
     </g>
    </g>
    <g id="xtick_28">
     <g id="line2d_77">
      <g>
       <use style="stroke:#000000;stroke-width:0.8;" x="411.026157" xlink:href="#mb0d3cfb578" y="457.198125"/>
      </g>
     </g>
     <g id="text_71">
      <!-- 15 -->
      <g transform="translate(404.663657 471.796562)scale(0.1 -0.1)">
       <use xlink:href="#DejaVuSans-49"/>
       <use x="63.623047" xlink:href="#DejaVuSans-53"/>
      </g>
     </g>
    </g>
   </g>
   <g id="matplotlib.axis_14">
    <g id="ytick_38">
     <g id="line2d_78">
      <g>
       <use style="stroke:#000000;stroke-width:0.8;" x="264.184052" xlink:href="#m1621ec7607" y="448.213001"/>
      </g>
     </g>
     <g id="text_72">
      <!-- 0.00 -->
      <g transform="translate(234.918427 452.01222)scale(0.1 -0.1)">
       <use xlink:href="#DejaVuSans-48"/>
       <use x="63.623047" xlink:href="#DejaVuSans-46"/>
       <use x="95.410156" xlink:href="#DejaVuSans-48"/>
       <use x="159.033203" xlink:href="#DejaVuSans-48"/>
      </g>
     </g>
    </g>
    <g id="ytick_39">
     <g id="line2d_79">
      <g>
       <use style="stroke:#000000;stroke-width:0.8;" x="264.184052" xlink:href="#m1621ec7607" y="419.460604"/>
      </g>
     </g>
     <g id="text_73">
      <!-- 0.02 -->
      <g transform="translate(234.918427 423.259823)scale(0.1 -0.1)">
       <use xlink:href="#DejaVuSans-48"/>
       <use x="63.623047" xlink:href="#DejaVuSans-46"/>
       <use x="95.410156" xlink:href="#DejaVuSans-48"/>
       <use x="159.033203" xlink:href="#DejaVuSans-50"/>
      </g>
     </g>
    </g>
    <g id="ytick_40">
     <g id="line2d_80">
      <g>
       <use style="stroke:#000000;stroke-width:0.8;" x="264.184052" xlink:href="#m1621ec7607" y="390.708208"/>
      </g>
     </g>
     <g id="text_74">
      <!-- 0.04 -->
      <g transform="translate(234.918427 394.507426)scale(0.1 -0.1)">
       <use xlink:href="#DejaVuSans-48"/>
       <use x="63.623047" xlink:href="#DejaVuSans-46"/>
       <use x="95.410156" xlink:href="#DejaVuSans-48"/>
       <use x="159.033203" xlink:href="#DejaVuSans-52"/>
      </g>
     </g>
    </g>
    <g id="ytick_41">
     <g id="line2d_81">
      <g>
       <use style="stroke:#000000;stroke-width:0.8;" x="264.184052" xlink:href="#m1621ec7607" y="361.955811"/>
      </g>
     </g>
     <g id="text_75">
      <!-- 0.06 -->
      <g transform="translate(234.918427 365.75503)scale(0.1 -0.1)">
       <use xlink:href="#DejaVuSans-48"/>
       <use x="63.623047" xlink:href="#DejaVuSans-46"/>
       <use x="95.410156" xlink:href="#DejaVuSans-48"/>
       <use x="159.033203" xlink:href="#DejaVuSans-54"/>
      </g>
     </g>
    </g>
    <g id="ytick_42">
     <g id="line2d_82">
      <g>
       <use style="stroke:#000000;stroke-width:0.8;" x="264.184052" xlink:href="#m1621ec7607" y="333.203414"/>
      </g>
     </g>
     <g id="text_76">
      <!-- 0.08 -->
      <g transform="translate(234.918427 337.002633)scale(0.1 -0.1)">
       <use xlink:href="#DejaVuSans-48"/>
       <use x="63.623047" xlink:href="#DejaVuSans-46"/>
       <use x="95.410156" xlink:href="#DejaVuSans-48"/>
       <use x="159.033203" xlink:href="#DejaVuSans-56"/>
      </g>
     </g>
    </g>
    <g id="ytick_43">
     <g id="line2d_83">
      <g>
       <use style="stroke:#000000;stroke-width:0.8;" x="264.184052" xlink:href="#m1621ec7607" y="304.451018"/>
      </g>
     </g>
     <g id="text_77">
      <!-- 0.10 -->
      <g transform="translate(234.918427 308.250236)scale(0.1 -0.1)">
       <use xlink:href="#DejaVuSans-48"/>
       <use x="63.623047" xlink:href="#DejaVuSans-46"/>
       <use x="95.410156" xlink:href="#DejaVuSans-49"/>
       <use x="159.033203" xlink:href="#DejaVuSans-48"/>
      </g>
     </g>
    </g>
    <g id="ytick_44">
     <g id="line2d_84">
      <g>
       <use style="stroke:#000000;stroke-width:0.8;" x="264.184052" xlink:href="#m1621ec7607" y="275.698621"/>
      </g>
     </g>
     <g id="text_78">
      <!-- 0.12 -->
      <g transform="translate(234.918427 279.49784)scale(0.1 -0.1)">
       <use xlink:href="#DejaVuSans-48"/>
       <use x="63.623047" xlink:href="#DejaVuSans-46"/>
       <use x="95.410156" xlink:href="#DejaVuSans-49"/>
       <use x="159.033203" xlink:href="#DejaVuSans-50"/>
      </g>
     </g>
    </g>
   </g>
   <g id="line2d_85">
    <path clip-path="url(#pd2da4b577c)" d="M 272.930133 448.213001 
L 282.136535 438.041162 
L 291.342936 427.869324 
L 300.549338 421.088098 
L 309.75574 400.744421 
L 318.962141 405.830342 
L 328.168543 397.353811 
L 337.374944 377.010133 
L 346.581346 360.057066 
L 355.787747 344.79931 
L 364.994149 341.4087 
L 374.200551 338.01809 
L 383.406952 317.674407 
L 392.613354 307.502566 
L 401.819755 304.111955 
L 411.026157 305.807266 
L 420.232559 305.807266 
L 429.43896 302.416645 
L 438.645362 290.549504 
L 447.851763 268.510522 
" style="fill:none;stroke:#ff7f50;stroke-linecap:square;stroke-width:1.5;"/>
   </g>
   <g id="line2d_86">
    <path clip-path="url(#pd2da4b577c)" d="M 272.930133 438.900843 
L 282.136535 434.023046 
L 291.342936 431.805866 
L 300.549338 411.407805 
L 309.75574 414.068422 
L 318.962141 409.855777 
L 328.168543 400.76534 
L 337.374944 392.561771 
L 346.581346 384.801641 
L 355.787747 384.358201 
L 364.994149 379.036969 
L 374.200551 366.62076 
L 383.406952 356.865163 
L 392.613354 354.647987 
L 401.819755 354.204547 
L 411.026157 355.313135 
L 420.232559 349.991902 
L 429.43896 341.566624 
L 438.645362 318.729665 
L 447.851763 309.195787 
" style="fill:none;stroke:#6495ed;stroke-linecap:square;stroke-width:1.5;"/>
   </g>
   <g id="patch_33">
    <path d="M 264.184052 457.198125 
L 264.184052 259.525398 
" style="fill:none;stroke:#000000;stroke-linecap:square;stroke-linejoin:miter;stroke-width:0.8;"/>
   </g>
   <g id="patch_34">
    <path d="M 456.597845 457.198125 
L 456.597845 259.525398 
" style="fill:none;stroke:#000000;stroke-linecap:square;stroke-linejoin:miter;stroke-width:0.8;"/>
   </g>
   <g id="patch_35">
    <path d="M 264.184052 457.198125 
L 456.597845 457.198125 
" style="fill:none;stroke:#000000;stroke-linecap:square;stroke-linejoin:miter;stroke-width:0.8;"/>
   </g>
   <g id="patch_36">
    <path d="M 264.184052 259.525398 
L 456.597845 259.525398 
" style="fill:none;stroke:#000000;stroke-linecap:square;stroke-linejoin:miter;stroke-width:0.8;"/>
   </g>
   <g id="text_79">
    <!-- Recall -->
    <g transform="translate(342.490323 253.525398)scale(0.12 -0.12)">
     <defs>
      <path d="M 44.390625 34.1875 
Q 47.5625 33.109375 50.5625 29.59375 
Q 53.5625 26.078125 56.59375 19.921875 
L 66.609375 0 
L 56 0 
L 46.6875 18.703125 
Q 43.0625 26.03125 39.671875 28.421875 
Q 36.28125 30.8125 30.421875 30.8125 
L 19.671875 30.8125 
L 19.671875 0 
L 9.8125 0 
L 9.8125 72.90625 
L 32.078125 72.90625 
Q 44.578125 72.90625 50.734375 67.671875 
Q 56.890625 62.453125 56.890625 51.90625 
Q 56.890625 45.015625 53.6875 40.46875 
Q 50.484375 35.9375 44.390625 34.1875 
z
M 19.671875 64.796875 
L 19.671875 38.921875 
L 32.078125 38.921875 
Q 39.203125 38.921875 42.84375 42.21875 
Q 46.484375 45.515625 46.484375 51.90625 
Q 46.484375 58.296875 42.84375 61.546875 
Q 39.203125 64.796875 32.078125 64.796875 
z
" id="DejaVuSans-82"/>
     </defs>
     <use xlink:href="#DejaVuSans-82"/>
     <use x="64.982422" xlink:href="#DejaVuSans-101"/>
     <use x="126.505859" xlink:href="#DejaVuSans-99"/>
     <use x="181.486328" xlink:href="#DejaVuSans-97"/>
     <use x="242.765625" xlink:href="#DejaVuSans-108"/>
     <use x="270.548828" xlink:href="#DejaVuSans-108"/>
    </g>
   </g>
  </g>
  <g id="axes_8">
   <g id="patch_37">
    <path d="M 495.080603 457.198125 
L 687.494397 457.198125 
L 687.494397 259.525398 
L 495.080603 259.525398 
z
" style="fill:#ffffff;"/>
   </g>
   <g id="matplotlib.axis_15">
    <g id="xtick_29">
     <g id="line2d_87">
      <g>
       <use style="stroke:#000000;stroke-width:0.8;" x="503.826685" xlink:href="#mb0d3cfb578" y="457.198125"/>
      </g>
     </g>
     <g id="text_80">
      <!-- 0 -->
      <g transform="translate(500.645435 471.796562)scale(0.1 -0.1)">
       <use xlink:href="#DejaVuSans-48"/>
      </g>
     </g>
    </g>
    <g id="xtick_30">
     <g id="line2d_88">
      <g>
       <use style="stroke:#000000;stroke-width:0.8;" x="549.858693" xlink:href="#mb0d3cfb578" y="457.198125"/>
      </g>
     </g>
     <g id="text_81">
      <!-- 5 -->
      <g transform="translate(546.677443 471.796562)scale(0.1 -0.1)">
       <use xlink:href="#DejaVuSans-53"/>
      </g>
     </g>
    </g>
    <g id="xtick_31">
     <g id="line2d_89">
      <g>
       <use style="stroke:#000000;stroke-width:0.8;" x="595.890701" xlink:href="#mb0d3cfb578" y="457.198125"/>
      </g>
     </g>
     <g id="text_82">
      <!-- 10 -->
      <g transform="translate(589.528201 471.796562)scale(0.1 -0.1)">
       <use xlink:href="#DejaVuSans-49"/>
       <use x="63.623047" xlink:href="#DejaVuSans-48"/>
      </g>
     </g>
    </g>
    <g id="xtick_32">
     <g id="line2d_90">
      <g>
       <use style="stroke:#000000;stroke-width:0.8;" x="641.922709" xlink:href="#mb0d3cfb578" y="457.198125"/>
      </g>
     </g>
     <g id="text_83">
      <!-- 15 -->
      <g transform="translate(635.560209 471.796562)scale(0.1 -0.1)">
       <use xlink:href="#DejaVuSans-49"/>
       <use x="63.623047" xlink:href="#DejaVuSans-53"/>
      </g>
     </g>
    </g>
   </g>
   <g id="matplotlib.axis_16">
    <g id="ytick_45">
     <g id="line2d_91">
      <g>
       <use style="stroke:#000000;stroke-width:0.8;" x="495.080603" xlink:href="#m1621ec7607" y="427.634627"/>
      </g>
     </g>
     <g id="text_84">
      <!-- 0.6 -->
      <g transform="translate(472.177478 431.433846)scale(0.1 -0.1)">
       <use xlink:href="#DejaVuSans-48"/>
       <use x="63.623047" xlink:href="#DejaVuSans-46"/>
       <use x="95.410156" xlink:href="#DejaVuSans-54"/>
      </g>
     </g>
    </g>
    <g id="ytick_46">
     <g id="line2d_92">
      <g>
       <use style="stroke:#000000;stroke-width:0.8;" x="495.080603" xlink:href="#m1621ec7607" y="385.592073"/>
      </g>
     </g>
     <g id="text_85">
      <!-- 0.7 -->
      <g transform="translate(472.177478 389.391292)scale(0.1 -0.1)">
       <defs>
        <path d="M 8.203125 72.90625 
L 55.078125 72.90625 
L 55.078125 68.703125 
L 28.609375 0 
L 18.3125 0 
L 43.21875 64.59375 
L 8.203125 64.59375 
z
" id="DejaVuSans-55"/>
       </defs>
       <use xlink:href="#DejaVuSans-48"/>
       <use x="63.623047" xlink:href="#DejaVuSans-46"/>
       <use x="95.410156" xlink:href="#DejaVuSans-55"/>
      </g>
     </g>
    </g>
    <g id="ytick_47">
     <g id="line2d_93">
      <g>
       <use style="stroke:#000000;stroke-width:0.8;" x="495.080603" xlink:href="#m1621ec7607" y="343.549518"/>
      </g>
     </g>
     <g id="text_86">
      <!-- 0.8 -->
      <g transform="translate(472.177478 347.348737)scale(0.1 -0.1)">
       <use xlink:href="#DejaVuSans-48"/>
       <use x="63.623047" xlink:href="#DejaVuSans-46"/>
       <use x="95.410156" xlink:href="#DejaVuSans-56"/>
      </g>
     </g>
    </g>
    <g id="ytick_48">
     <g id="line2d_94">
      <g>
       <use style="stroke:#000000;stroke-width:0.8;" x="495.080603" xlink:href="#m1621ec7607" y="301.506964"/>
      </g>
     </g>
     <g id="text_87">
      <!-- 0.9 -->
      <g transform="translate(472.177478 305.306183)scale(0.1 -0.1)">
       <use xlink:href="#DejaVuSans-48"/>
       <use x="63.623047" xlink:href="#DejaVuSans-46"/>
       <use x="95.410156" xlink:href="#DejaVuSans-57"/>
      </g>
     </g>
    </g>
   </g>
   <g id="line2d_95">
    <path clip-path="url(#p57ee48bf17)" d="M 503.826685 448.213001 
L 513.033087 398.136395 
L 522.239488 367.073043 
L 531.44589 334.593615 
L 540.652291 289.499954 
L 549.858693 309.360939 
L 559.065094 311.969238 
L 568.271496 301.102592 
L 577.477898 281.501922 
L 586.684299 274.91686 
L 595.890701 279.69279 
L 605.097102 278.576047 
L 614.303504 271.138893 
L 623.509906 268.923374 
L 632.716307 269.689162 
L 641.922709 272.598924 
L 651.12911 275.558705 
L 660.335512 272.265485 
L 669.541913 268.510522 
L 678.748315 275.878086 
" style="fill:none;stroke:#ff7f50;stroke-linecap:square;stroke-width:1.5;"/>
   </g>
   <g id="line2d_96">
    <path clip-path="url(#p57ee48bf17)" d="M 503.826685 383.437302 
L 513.033087 339.943403 
L 522.239488 329.857053 
L 531.44589 286.250337 
L 540.652291 296.221639 
L 549.858693 298.06425 
L 559.065094 288.913315 
L 568.271496 278.735925 
L 577.477898 279.970497 
L 586.684299 286.297849 
L 595.890701 284.535302 
L 605.097102 273.929398 
L 614.303504 269.896352 
L 623.509906 273.901858 
L 632.716307 280.215978 
L 641.922709 283.684087 
L 651.12911 276.652093 
L 660.335512 270.150228 
L 669.541913 277.728892 
L 678.748315 291.829818 
" style="fill:none;stroke:#6495ed;stroke-linecap:square;stroke-width:1.5;"/>
   </g>
   <g id="patch_38">
    <path d="M 495.080603 457.198125 
L 495.080603 259.525398 
" style="fill:none;stroke:#000000;stroke-linecap:square;stroke-linejoin:miter;stroke-width:0.8;"/>
   </g>
   <g id="patch_39">
    <path d="M 687.494397 457.198125 
L 687.494397 259.525398 
" style="fill:none;stroke:#000000;stroke-linecap:square;stroke-linejoin:miter;stroke-width:0.8;"/>
   </g>
   <g id="patch_40">
    <path d="M 495.080603 457.198125 
L 687.494397 457.198125 
" style="fill:none;stroke:#000000;stroke-linecap:square;stroke-linejoin:miter;stroke-width:0.8;"/>
   </g>
   <g id="patch_41">
    <path d="M 495.080603 259.525398 
L 687.494397 259.525398 
" style="fill:none;stroke:#000000;stroke-linecap:square;stroke-linejoin:miter;stroke-width:0.8;"/>
   </g>
   <g id="text_88">
    <!-- Area under Curve -->
    <g transform="translate(538.394688 253.525398)scale(0.12 -0.12)">
     <defs>
      <path d="M 45.40625 46.390625 
L 45.40625 75.984375 
L 54.390625 75.984375 
L 54.390625 0 
L 45.40625 0 
L 45.40625 8.203125 
Q 42.578125 3.328125 38.25 0.953125 
Q 33.9375 -1.421875 27.875 -1.421875 
Q 17.96875 -1.421875 11.734375 6.484375 
Q 5.515625 14.40625 5.515625 27.296875 
Q 5.515625 40.1875 11.734375 48.09375 
Q 17.96875 56 27.875 56 
Q 33.9375 56 38.25 53.625 
Q 42.578125 51.265625 45.40625 46.390625 
z
M 14.796875 27.296875 
Q 14.796875 17.390625 18.875 11.75 
Q 22.953125 6.109375 30.078125 6.109375 
Q 37.203125 6.109375 41.296875 11.75 
Q 45.40625 17.390625 45.40625 27.296875 
Q 45.40625 37.203125 41.296875 42.84375 
Q 37.203125 48.484375 30.078125 48.484375 
Q 22.953125 48.484375 18.875 42.84375 
Q 14.796875 37.203125 14.796875 27.296875 
z
" id="DejaVuSans-100"/>
      <path d="M 64.40625 67.28125 
L 64.40625 56.890625 
Q 59.421875 61.53125 53.78125 63.8125 
Q 48.140625 66.109375 41.796875 66.109375 
Q 29.296875 66.109375 22.65625 58.46875 
Q 16.015625 50.828125 16.015625 36.375 
Q 16.015625 21.96875 22.65625 14.328125 
Q 29.296875 6.6875 41.796875 6.6875 
Q 48.140625 6.6875 53.78125 8.984375 
Q 59.421875 11.28125 64.40625 15.921875 
L 64.40625 5.609375 
Q 59.234375 2.09375 53.4375 0.328125 
Q 47.65625 -1.421875 41.21875 -1.421875 
Q 24.65625 -1.421875 15.125 8.703125 
Q 5.609375 18.84375 5.609375 36.375 
Q 5.609375 53.953125 15.125 64.078125 
Q 24.65625 74.21875 41.21875 74.21875 
Q 47.75 74.21875 53.53125 72.484375 
Q 59.328125 70.75 64.40625 67.28125 
z
" id="DejaVuSans-67"/>
     </defs>
     <use xlink:href="#DejaVuSans-65"/>
     <use x="68.408203" xlink:href="#DejaVuSans-114"/>
     <use x="107.271484" xlink:href="#DejaVuSans-101"/>
     <use x="168.794922" xlink:href="#DejaVuSans-97"/>
     <use x="230.074219" xlink:href="#DejaVuSans-32"/>
     <use x="261.861328" xlink:href="#DejaVuSans-117"/>
     <use x="325.240234" xlink:href="#DejaVuSans-110"/>
     <use x="388.619141" xlink:href="#DejaVuSans-100"/>
     <use x="452.095703" xlink:href="#DejaVuSans-101"/>
     <use x="513.619141" xlink:href="#DejaVuSans-114"/>
     <use x="554.732422" xlink:href="#DejaVuSans-32"/>
     <use x="586.519531" xlink:href="#DejaVuSans-67"/>
     <use x="656.34375" xlink:href="#DejaVuSans-117"/>
     <use x="719.722656" xlink:href="#DejaVuSans-114"/>
     <use x="760.835938" xlink:href="#DejaVuSans-118"/>
     <use x="820.015625" xlink:href="#DejaVuSans-101"/>
    </g>
   </g>
  </g>
  <g id="axes_9">
   <g id="patch_42">
    <path d="M 725.977155 457.198125 
L 918.390948 457.198125 
L 918.390948 259.525398 
L 725.977155 259.525398 
z
" style="fill:#ffffff;"/>
   </g>
   <g id="matplotlib.axis_17">
    <g id="xtick_33">
     <g id="line2d_97">
      <g>
       <use style="stroke:#000000;stroke-width:0.8;" x="734.723237" xlink:href="#mb0d3cfb578" y="457.198125"/>
      </g>
     </g>
     <g id="text_89">
      <!-- 0 -->
      <g transform="translate(731.541987 471.796562)scale(0.1 -0.1)">
       <use xlink:href="#DejaVuSans-48"/>
      </g>
     </g>
    </g>
    <g id="xtick_34">
     <g id="line2d_98">
      <g>
       <use style="stroke:#000000;stroke-width:0.8;" x="780.755245" xlink:href="#mb0d3cfb578" y="457.198125"/>
      </g>
     </g>
     <g id="text_90">
      <!-- 5 -->
      <g transform="translate(777.573995 471.796562)scale(0.1 -0.1)">
       <use xlink:href="#DejaVuSans-53"/>
      </g>
     </g>
    </g>
    <g id="xtick_35">
     <g id="line2d_99">
      <g>
       <use style="stroke:#000000;stroke-width:0.8;" x="826.787253" xlink:href="#mb0d3cfb578" y="457.198125"/>
      </g>
     </g>
     <g id="text_91">
      <!-- 10 -->
      <g transform="translate(820.424753 471.796562)scale(0.1 -0.1)">
       <use xlink:href="#DejaVuSans-49"/>
       <use x="63.623047" xlink:href="#DejaVuSans-48"/>
      </g>
     </g>
    </g>
    <g id="xtick_36">
     <g id="line2d_100">
      <g>
       <use style="stroke:#000000;stroke-width:0.8;" x="872.81926" xlink:href="#mb0d3cfb578" y="457.198125"/>
      </g>
     </g>
     <g id="text_92">
      <!-- 15 -->
      <g transform="translate(866.45676 471.796562)scale(0.1 -0.1)">
       <use xlink:href="#DejaVuSans-49"/>
       <use x="63.623047" xlink:href="#DejaVuSans-53"/>
      </g>
     </g>
    </g>
   </g>
   <g id="matplotlib.axis_18">
    <g id="ytick_49">
     <g id="line2d_101">
      <g>
       <use style="stroke:#000000;stroke-width:0.8;" x="725.977155" xlink:href="#m1621ec7607" y="442.455697"/>
      </g>
     </g>
     <g id="text_93">
      <!-- 0.01 -->
      <g transform="translate(696.71153 446.254916)scale(0.1 -0.1)">
       <use xlink:href="#DejaVuSans-48"/>
       <use x="63.623047" xlink:href="#DejaVuSans-46"/>
       <use x="95.410156" xlink:href="#DejaVuSans-48"/>
       <use x="159.033203" xlink:href="#DejaVuSans-49"/>
      </g>
     </g>
    </g>
    <g id="ytick_50">
     <g id="line2d_102">
      <g>
       <use style="stroke:#000000;stroke-width:0.8;" x="725.977155" xlink:href="#m1621ec7607" y="408.811913"/>
      </g>
     </g>
     <g id="text_94">
      <!-- 0.02 -->
      <g transform="translate(696.71153 412.611132)scale(0.1 -0.1)">
       <use xlink:href="#DejaVuSans-48"/>
       <use x="63.623047" xlink:href="#DejaVuSans-46"/>
       <use x="95.410156" xlink:href="#DejaVuSans-48"/>
       <use x="159.033203" xlink:href="#DejaVuSans-50"/>
      </g>
     </g>
    </g>
    <g id="ytick_51">
     <g id="line2d_103">
      <g>
       <use style="stroke:#000000;stroke-width:0.8;" x="725.977155" xlink:href="#m1621ec7607" y="375.168128"/>
      </g>
     </g>
     <g id="text_95">
      <!-- 0.03 -->
      <g transform="translate(696.71153 378.967347)scale(0.1 -0.1)">
       <use xlink:href="#DejaVuSans-48"/>
       <use x="63.623047" xlink:href="#DejaVuSans-46"/>
       <use x="95.410156" xlink:href="#DejaVuSans-48"/>
       <use x="159.033203" xlink:href="#DejaVuSans-51"/>
      </g>
     </g>
    </g>
    <g id="ytick_52">
     <g id="line2d_104">
      <g>
       <use style="stroke:#000000;stroke-width:0.8;" x="725.977155" xlink:href="#m1621ec7607" y="341.524344"/>
      </g>
     </g>
     <g id="text_96">
      <!-- 0.04 -->
      <g transform="translate(696.71153 345.323563)scale(0.1 -0.1)">
       <use xlink:href="#DejaVuSans-48"/>
       <use x="63.623047" xlink:href="#DejaVuSans-46"/>
       <use x="95.410156" xlink:href="#DejaVuSans-48"/>
       <use x="159.033203" xlink:href="#DejaVuSans-52"/>
      </g>
     </g>
    </g>
    <g id="ytick_53">
     <g id="line2d_105">
      <g>
       <use style="stroke:#000000;stroke-width:0.8;" x="725.977155" xlink:href="#m1621ec7607" y="307.88056"/>
      </g>
     </g>
     <g id="text_97">
      <!-- 0.05 -->
      <g transform="translate(696.71153 311.679778)scale(0.1 -0.1)">
       <use xlink:href="#DejaVuSans-48"/>
       <use x="63.623047" xlink:href="#DejaVuSans-46"/>
       <use x="95.410156" xlink:href="#DejaVuSans-48"/>
       <use x="159.033203" xlink:href="#DejaVuSans-53"/>
      </g>
     </g>
    </g>
    <g id="ytick_54">
     <g id="line2d_106">
      <g>
       <use style="stroke:#000000;stroke-width:0.8;" x="725.977155" xlink:href="#m1621ec7607" y="274.236775"/>
      </g>
     </g>
     <g id="text_98">
      <!-- 0.06 -->
      <g transform="translate(696.71153 278.035994)scale(0.1 -0.1)">
       <use xlink:href="#DejaVuSans-48"/>
       <use x="63.623047" xlink:href="#DejaVuSans-46"/>
       <use x="95.410156" xlink:href="#DejaVuSans-48"/>
       <use x="159.033203" xlink:href="#DejaVuSans-54"/>
      </g>
     </g>
    </g>
   </g>
   <g id="line2d_107">
    <path clip-path="url(#pe25d220273)" d="M 734.723237 448.213001 
L 743.929638 370.667873 
L 753.13604 365.780129 
L 762.342441 445.744692 
L 771.548843 405.040135 
L 780.755245 442.348799 
L 789.961646 443.381682 
L 799.168048 439.780891 
L 808.374449 438.998639 
L 817.580851 429.434127 
L 826.787253 441.348019 
L 835.993654 442.441467 
L 845.200056 436.918925 
L 854.406457 430.804705 
L 863.612859 436.797236 
L 872.81926 441.754276 
L 882.025662 443.732207 
L 891.232064 442.843682 
L 900.438465 439.000086 
L 909.644867 360.067407 
" style="fill:none;stroke:#ff7f50;stroke-linecap:square;stroke-width:1.5;"/>
   </g>
   <g id="line2d_108">
    <path clip-path="url(#pe25d220273)" d="M 734.723237 341.42754 
L 743.929638 384.907748 
L 753.13604 435.773423 
L 762.342441 390.182456 
L 771.548843 432.505328 
L 780.755245 434.164224 
L 789.961646 429.902296 
L 799.168048 427.898004 
L 808.374449 418.694273 
L 817.580851 430.329321 
L 826.787253 431.839347 
L 835.993654 424.202893 
L 845.200056 417.200531 
L 854.406457 424.27485 
L 863.612859 430.727722 
L 872.81926 433.954361 
L 882.025662 432.895407 
L 891.232064 428.127376 
L 900.438465 327.025102 
L 909.644867 268.510522 
" style="fill:none;stroke:#6495ed;stroke-linecap:square;stroke-width:1.5;"/>
   </g>
   <g id="patch_43">
    <path d="M 725.977155 457.198125 
L 725.977155 259.525398 
" style="fill:none;stroke:#000000;stroke-linecap:square;stroke-linejoin:miter;stroke-width:0.8;"/>
   </g>
   <g id="patch_44">
    <path d="M 918.390948 457.198125 
L 918.390948 259.525398 
" style="fill:none;stroke:#000000;stroke-linecap:square;stroke-linejoin:miter;stroke-width:0.8;"/>
   </g>
   <g id="patch_45">
    <path d="M 725.977155 457.198125 
L 918.390948 457.198125 
" style="fill:none;stroke:#000000;stroke-linecap:square;stroke-linejoin:miter;stroke-width:0.8;"/>
   </g>
   <g id="patch_46">
    <path d="M 725.977155 259.525398 
L 918.390948 259.525398 
" style="fill:none;stroke:#000000;stroke-linecap:square;stroke-linejoin:miter;stroke-width:0.8;"/>
   </g>
   <g id="text_99">
    <!-- Mean absolute error -->
    <g transform="translate(761.703114 253.525398)scale(0.12 -0.12)">
     <defs>
      <path d="M 9.8125 72.90625 
L 24.515625 72.90625 
L 43.109375 23.296875 
L 61.8125 72.90625 
L 76.515625 72.90625 
L 76.515625 0 
L 66.890625 0 
L 66.890625 64.015625 
L 48.09375 14.015625 
L 38.1875 14.015625 
L 19.390625 64.015625 
L 19.390625 0 
L 9.8125 0 
z
" id="DejaVuSans-77"/>
      <path d="M 48.6875 27.296875 
Q 48.6875 37.203125 44.609375 42.84375 
Q 40.53125 48.484375 33.40625 48.484375 
Q 26.265625 48.484375 22.1875 42.84375 
Q 18.109375 37.203125 18.109375 27.296875 
Q 18.109375 17.390625 22.1875 11.75 
Q 26.265625 6.109375 33.40625 6.109375 
Q 40.53125 6.109375 44.609375 11.75 
Q 48.6875 17.390625 48.6875 27.296875 
z
M 18.109375 46.390625 
Q 20.953125 51.265625 25.265625 53.625 
Q 29.59375 56 35.59375 56 
Q 45.5625 56 51.78125 48.09375 
Q 58.015625 40.1875 58.015625 27.296875 
Q 58.015625 14.40625 51.78125 6.484375 
Q 45.5625 -1.421875 35.59375 -1.421875 
Q 29.59375 -1.421875 25.265625 0.953125 
Q 20.953125 3.328125 18.109375 8.203125 
L 18.109375 0 
L 9.078125 0 
L 9.078125 75.984375 
L 18.109375 75.984375 
z
" id="DejaVuSans-98"/>
     </defs>
     <use xlink:href="#DejaVuSans-77"/>
     <use x="86.279297" xlink:href="#DejaVuSans-101"/>
     <use x="147.802734" xlink:href="#DejaVuSans-97"/>
     <use x="209.082031" xlink:href="#DejaVuSans-110"/>
     <use x="272.460938" xlink:href="#DejaVuSans-32"/>
     <use x="304.248047" xlink:href="#DejaVuSans-97"/>
     <use x="365.527344" xlink:href="#DejaVuSans-98"/>
     <use x="429.003906" xlink:href="#DejaVuSans-115"/>
     <use x="481.103516" xlink:href="#DejaVuSans-111"/>
     <use x="542.285156" xlink:href="#DejaVuSans-108"/>
     <use x="570.068359" xlink:href="#DejaVuSans-117"/>
     <use x="633.447266" xlink:href="#DejaVuSans-116"/>
     <use x="672.65625" xlink:href="#DejaVuSans-101"/>
     <use x="734.179688" xlink:href="#DejaVuSans-32"/>
     <use x="765.966797" xlink:href="#DejaVuSans-101"/>
     <use x="827.490234" xlink:href="#DejaVuSans-114"/>
     <use x="866.853516" xlink:href="#DejaVuSans-114"/>
     <use x="905.716797" xlink:href="#DejaVuSans-111"/>
     <use x="966.898438" xlink:href="#DejaVuSans-114"/>
    </g>
   </g>
  </g>
  <g id="axes_10"/>
  <g id="legend_1">
   <g id="patch_47">
    <path d="M 868.2875 393.754375 
L 949.66875 393.754375 
Q 951.66875 393.754375 951.66875 391.754375 
L 951.66875 363.398125 
Q 951.66875 361.398125 949.66875 361.398125 
L 868.2875 361.398125 
Q 866.2875 361.398125 866.2875 363.398125 
L 866.2875 391.754375 
Q 866.2875 393.754375 868.2875 393.754375 
z
" style="fill:#ffffff;opacity:0.8;stroke:#cccccc;stroke-linejoin:miter;"/>
   </g>
   <g id="line2d_109">
    <path d="M 870.2875 369.496562 
L 890.2875 369.496562 
" style="fill:none;stroke:#ff7f50;stroke-linecap:square;stroke-width:1.5;"/>
   </g>
   <g id="line2d_110"/>
   <g id="text_100">
    <!-- Training -->
    <g transform="translate(898.2875 372.996562)scale(0.1 -0.1)">
     <use xlink:href="#DejaVuSans-84"/>
     <use x="46.333984" xlink:href="#DejaVuSans-114"/>
     <use x="87.447266" xlink:href="#DejaVuSans-97"/>
     <use x="148.726562" xlink:href="#DejaVuSans-105"/>
     <use x="176.509766" xlink:href="#DejaVuSans-110"/>
     <use x="239.888672" xlink:href="#DejaVuSans-105"/>
     <use x="267.671875" xlink:href="#DejaVuSans-110"/>
     <use x="331.050781" xlink:href="#DejaVuSans-103"/>
    </g>
   </g>
   <g id="line2d_111">
    <path d="M 870.2875 384.174687 
L 890.2875 384.174687 
" style="fill:none;stroke:#6495ed;stroke-linecap:square;stroke-width:1.5;"/>
   </g>
   <g id="line2d_112"/>
   <g id="text_101">
    <!-- Validation -->
    <g transform="translate(898.2875 387.674687)scale(0.1 -0.1)">
     <defs>
      <path d="M 28.609375 0 
L 0.78125 72.90625 
L 11.078125 72.90625 
L 34.1875 11.53125 
L 57.328125 72.90625 
L 67.578125 72.90625 
L 39.796875 0 
z
" id="DejaVuSans-86"/>
     </defs>
     <use xlink:href="#DejaVuSans-86"/>
     <use x="60.658203" xlink:href="#DejaVuSans-97"/>
     <use x="121.9375" xlink:href="#DejaVuSans-108"/>
     <use x="149.720703" xlink:href="#DejaVuSans-105"/>
     <use x="177.503906" xlink:href="#DejaVuSans-100"/>
     <use x="240.980469" xlink:href="#DejaVuSans-97"/>
     <use x="302.259766" xlink:href="#DejaVuSans-116"/>
     <use x="341.46875" xlink:href="#DejaVuSans-105"/>
     <use x="369.251953" xlink:href="#DejaVuSans-111"/>
     <use x="430.433594" xlink:href="#DejaVuSans-110"/>
    </g>
   </g>
  </g>
 </g>
 <defs>
  <clipPath id="pa496dda500">
   <rect height="197.672727" width="192.413793" x="33.2875" y="22.318125"/>
  </clipPath>
  <clipPath id="p04eb63012e">
   <rect height="197.672727" width="192.413793" x="264.184052" y="22.318125"/>
  </clipPath>
  <clipPath id="p6ed843b3f7">
   <rect height="197.672727" width="192.413793" x="495.080603" y="22.318125"/>
  </clipPath>
  <clipPath id="p29a19a7b07">
   <rect height="197.672727" width="192.413793" x="725.977155" y="22.318125"/>
  </clipPath>
  <clipPath id="pe518361d32">
   <rect height="197.672727" width="192.413793" x="956.873707" y="22.318125"/>
  </clipPath>
  <clipPath id="pe064860323">
   <rect height="197.672727" width="192.413793" x="33.2875" y="259.525398"/>
  </clipPath>
  <clipPath id="pd2da4b577c">
   <rect height="197.672727" width="192.413793" x="264.184052" y="259.525398"/>
  </clipPath>
  <clipPath id="p57ee48bf17">
   <rect height="197.672727" width="192.413793" x="495.080603" y="259.525398"/>
  </clipPath>
  <clipPath id="pe25d220273">
   <rect height="197.672727" width="192.413793" x="725.977155" y="259.525398"/>
  </clipPath>
 </defs>
</svg>
