<?xml version="1.0" encoding="utf-8" standalone="no"?>
<!DOCTYPE svg PUBLIC "-//W3C//DTD SVG 1.1//EN"
  "http://www.w3.org/Graphics/SVG/1.1/DTD/svg11.dtd">
<!-- Created with matplotlib (https://matplotlib.org/) -->
<svg height="248.518125pt" version="1.1" viewBox="0 0 377.304687 248.518125" width="377.304687pt" xmlns="http://www.w3.org/2000/svg" xmlns:xlink="http://www.w3.org/1999/xlink">
 <metadata>
  <rdf:RDF xmlns:cc="http://creativecommons.org/ns#" xmlns:dc="http://purl.org/dc/elements/1.1/" xmlns:rdf="http://www.w3.org/1999/02/22-rdf-syntax-ns#">
   <cc:Work>
    <dc:type rdf:resource="http://purl.org/dc/dcmitype/StillImage"/>
    <dc:date>2021-02-16T15:58:36.200193</dc:date>
    <dc:format>image/svg+xml</dc:format>
    <dc:creator>
     <cc:Agent>
      <dc:title>Matplotlib v3.3.4, https://matplotlib.org/</dc:title>
     </cc:Agent>
    </dc:creator>
   </cc:Work>
  </rdf:RDF>
 </metadata>
 <defs>
  <style type="text/css">*{stroke-linecap:butt;stroke-linejoin:round;}</style>
 </defs>
 <g id="figure_1">
  <g id="patch_1">
   <path d="M 0 248.518125 
L 377.304687 248.518125 
L 377.304687 0 
L 0 0 
z
" style="fill:none;"/>
  </g>
  <g id="axes_1">
   <g id="patch_2">
    <path d="M 35.304688 224.64 
L 370.104688 224.64 
L 370.104688 7.2 
L 35.304688 7.2 
z
" style="fill:#ffffff;"/>
   </g>
   <g id="matplotlib.axis_1">
    <g id="xtick_1">
     <g id="line2d_1">
      <defs>
       <path d="M 0 0 
L 0 3.5 
" id="m925052ae3b" style="stroke:#000000;stroke-width:0.8;"/>
      </defs>
      <g>
       <use style="stroke:#000000;stroke-width:0.8;" x="35.309991" xlink:href="#m925052ae3b" y="224.64"/>
      </g>
     </g>
     <g id="text_1">
      <!-- −4 -->
      <g transform="translate(27.938897 239.238438)scale(0.1 -0.1)">
       <defs>
        <path d="M 10.59375 35.5 
L 73.1875 35.5 
L 73.1875 27.203125 
L 10.59375 27.203125 
z
" id="DejaVuSans-8722"/>
        <path d="M 37.796875 64.3125 
L 12.890625 25.390625 
L 37.796875 25.390625 
z
M 35.203125 72.90625 
L 47.609375 72.90625 
L 47.609375 25.390625 
L 58.015625 25.390625 
L 58.015625 17.1875 
L 47.609375 17.1875 
L 47.609375 0 
L 37.796875 0 
L 37.796875 17.1875 
L 4.890625 17.1875 
L 4.890625 26.703125 
z
" id="DejaVuSans-52"/>
       </defs>
       <use xlink:href="#DejaVuSans-8722"/>
       <use x="83.789062" xlink:href="#DejaVuSans-52"/>
      </g>
     </g>
    </g>
    <g id="xtick_2">
     <g id="line2d_2">
      <g>
       <use style="stroke:#000000;stroke-width:0.8;" x="78.855744" xlink:href="#m925052ae3b" y="224.64"/>
      </g>
     </g>
     <g id="text_2">
      <!-- −2 -->
      <g transform="translate(71.48465 239.238438)scale(0.1 -0.1)">
       <defs>
        <path d="M 19.1875 8.296875 
L 53.609375 8.296875 
L 53.609375 0 
L 7.328125 0 
L 7.328125 8.296875 
Q 12.9375 14.109375 22.625 23.890625 
Q 32.328125 33.6875 34.8125 36.53125 
Q 39.546875 41.84375 41.421875 45.53125 
Q 43.3125 49.21875 43.3125 52.78125 
Q 43.3125 58.59375 39.234375 62.25 
Q 35.15625 65.921875 28.609375 65.921875 
Q 23.96875 65.921875 18.8125 64.3125 
Q 13.671875 62.703125 7.8125 59.421875 
L 7.8125 69.390625 
Q 13.765625 71.78125 18.9375 73 
Q 24.125 74.21875 28.421875 74.21875 
Q 39.75 74.21875 46.484375 68.546875 
Q 53.21875 62.890625 53.21875 53.421875 
Q 53.21875 48.921875 51.53125 44.890625 
Q 49.859375 40.875 45.40625 35.40625 
Q 44.1875 33.984375 37.640625 27.21875 
Q 31.109375 20.453125 19.1875 8.296875 
z
" id="DejaVuSans-50"/>
       </defs>
       <use xlink:href="#DejaVuSans-8722"/>
       <use x="83.789062" xlink:href="#DejaVuSans-50"/>
      </g>
     </g>
    </g>
    <g id="xtick_3">
     <g id="line2d_3">
      <g>
       <use style="stroke:#000000;stroke-width:0.8;" x="122.401497" xlink:href="#m925052ae3b" y="224.64"/>
      </g>
     </g>
     <g id="text_3">
      <!-- 0 -->
      <g transform="translate(119.220247 239.238438)scale(0.1 -0.1)">
       <defs>
        <path d="M 31.78125 66.40625 
Q 24.171875 66.40625 20.328125 58.90625 
Q 16.5 51.421875 16.5 36.375 
Q 16.5 21.390625 20.328125 13.890625 
Q 24.171875 6.390625 31.78125 6.390625 
Q 39.453125 6.390625 43.28125 13.890625 
Q 47.125 21.390625 47.125 36.375 
Q 47.125 51.421875 43.28125 58.90625 
Q 39.453125 66.40625 31.78125 66.40625 
z
M 31.78125 74.21875 
Q 44.046875 74.21875 50.515625 64.515625 
Q 56.984375 54.828125 56.984375 36.375 
Q 56.984375 17.96875 50.515625 8.265625 
Q 44.046875 -1.421875 31.78125 -1.421875 
Q 19.53125 -1.421875 13.0625 8.265625 
Q 6.59375 17.96875 6.59375 36.375 
Q 6.59375 54.828125 13.0625 64.515625 
Q 19.53125 74.21875 31.78125 74.21875 
z
" id="DejaVuSans-48"/>
       </defs>
       <use xlink:href="#DejaVuSans-48"/>
      </g>
     </g>
    </g>
    <g id="xtick_4">
     <g id="line2d_4">
      <g>
       <use style="stroke:#000000;stroke-width:0.8;" x="165.94725" xlink:href="#m925052ae3b" y="224.64"/>
      </g>
     </g>
     <g id="text_4">
      <!-- 2 -->
      <g transform="translate(162.766 239.238438)scale(0.1 -0.1)">
       <use xlink:href="#DejaVuSans-50"/>
      </g>
     </g>
    </g>
    <g id="xtick_5">
     <g id="line2d_5">
      <g>
       <use style="stroke:#000000;stroke-width:0.8;" x="209.493002" xlink:href="#m925052ae3b" y="224.64"/>
      </g>
     </g>
     <g id="text_5">
      <!-- 4 -->
      <g transform="translate(206.311752 239.238438)scale(0.1 -0.1)">
       <use xlink:href="#DejaVuSans-52"/>
      </g>
     </g>
    </g>
    <g id="xtick_6">
     <g id="line2d_6">
      <g>
       <use style="stroke:#000000;stroke-width:0.8;" x="253.038755" xlink:href="#m925052ae3b" y="224.64"/>
      </g>
     </g>
     <g id="text_6">
      <!-- 6 -->
      <g transform="translate(249.857505 239.238438)scale(0.1 -0.1)">
       <defs>
        <path d="M 33.015625 40.375 
Q 26.375 40.375 22.484375 35.828125 
Q 18.609375 31.296875 18.609375 23.390625 
Q 18.609375 15.53125 22.484375 10.953125 
Q 26.375 6.390625 33.015625 6.390625 
Q 39.65625 6.390625 43.53125 10.953125 
Q 47.40625 15.53125 47.40625 23.390625 
Q 47.40625 31.296875 43.53125 35.828125 
Q 39.65625 40.375 33.015625 40.375 
z
M 52.59375 71.296875 
L 52.59375 62.3125 
Q 48.875 64.0625 45.09375 64.984375 
Q 41.3125 65.921875 37.59375 65.921875 
Q 27.828125 65.921875 22.671875 59.328125 
Q 17.53125 52.734375 16.796875 39.40625 
Q 19.671875 43.65625 24.015625 45.921875 
Q 28.375 48.1875 33.59375 48.1875 
Q 44.578125 48.1875 50.953125 41.515625 
Q 57.328125 34.859375 57.328125 23.390625 
Q 57.328125 12.15625 50.6875 5.359375 
Q 44.046875 -1.421875 33.015625 -1.421875 
Q 20.359375 -1.421875 13.671875 8.265625 
Q 6.984375 17.96875 6.984375 36.375 
Q 6.984375 53.65625 15.1875 63.9375 
Q 23.390625 74.21875 37.203125 74.21875 
Q 40.921875 74.21875 44.703125 73.484375 
Q 48.484375 72.75 52.59375 71.296875 
z
" id="DejaVuSans-54"/>
       </defs>
       <use xlink:href="#DejaVuSans-54"/>
      </g>
     </g>
    </g>
    <g id="xtick_7">
     <g id="line2d_7">
      <g>
       <use style="stroke:#000000;stroke-width:0.8;" x="296.584508" xlink:href="#m925052ae3b" y="224.64"/>
      </g>
     </g>
     <g id="text_7">
      <!-- 8 -->
      <g transform="translate(293.403258 239.238438)scale(0.1 -0.1)">
       <defs>
        <path d="M 31.78125 34.625 
Q 24.75 34.625 20.71875 30.859375 
Q 16.703125 27.09375 16.703125 20.515625 
Q 16.703125 13.921875 20.71875 10.15625 
Q 24.75 6.390625 31.78125 6.390625 
Q 38.8125 6.390625 42.859375 10.171875 
Q 46.921875 13.96875 46.921875 20.515625 
Q 46.921875 27.09375 42.890625 30.859375 
Q 38.875 34.625 31.78125 34.625 
z
M 21.921875 38.8125 
Q 15.578125 40.375 12.03125 44.71875 
Q 8.5 49.078125 8.5 55.328125 
Q 8.5 64.0625 14.71875 69.140625 
Q 20.953125 74.21875 31.78125 74.21875 
Q 42.671875 74.21875 48.875 69.140625 
Q 55.078125 64.0625 55.078125 55.328125 
Q 55.078125 49.078125 51.53125 44.71875 
Q 48 40.375 41.703125 38.8125 
Q 48.828125 37.15625 52.796875 32.3125 
Q 56.78125 27.484375 56.78125 20.515625 
Q 56.78125 9.90625 50.3125 4.234375 
Q 43.84375 -1.421875 31.78125 -1.421875 
Q 19.734375 -1.421875 13.25 4.234375 
Q 6.78125 9.90625 6.78125 20.515625 
Q 6.78125 27.484375 10.78125 32.3125 
Q 14.796875 37.15625 21.921875 38.8125 
z
M 18.3125 54.390625 
Q 18.3125 48.734375 21.84375 45.5625 
Q 25.390625 42.390625 31.78125 42.390625 
Q 38.140625 42.390625 41.71875 45.5625 
Q 45.3125 48.734375 45.3125 54.390625 
Q 45.3125 60.0625 41.71875 63.234375 
Q 38.140625 66.40625 31.78125 66.40625 
Q 25.390625 66.40625 21.84375 63.234375 
Q 18.3125 60.0625 18.3125 54.390625 
z
" id="DejaVuSans-56"/>
       </defs>
       <use xlink:href="#DejaVuSans-56"/>
      </g>
     </g>
    </g>
    <g id="xtick_8">
     <g id="line2d_8">
      <g>
       <use style="stroke:#000000;stroke-width:0.8;" x="340.130261" xlink:href="#m925052ae3b" y="224.64"/>
      </g>
     </g>
     <g id="text_8">
      <!-- 10 -->
      <g transform="translate(333.767761 239.238438)scale(0.1 -0.1)">
       <defs>
        <path d="M 12.40625 8.296875 
L 28.515625 8.296875 
L 28.515625 63.921875 
L 10.984375 60.40625 
L 10.984375 69.390625 
L 28.421875 72.90625 
L 38.28125 72.90625 
L 38.28125 8.296875 
L 54.390625 8.296875 
L 54.390625 0 
L 12.40625 0 
z
" id="DejaVuSans-49"/>
       </defs>
       <use xlink:href="#DejaVuSans-49"/>
       <use x="63.623047" xlink:href="#DejaVuSans-48"/>
      </g>
     </g>
    </g>
   </g>
   <g id="matplotlib.axis_2">
    <g id="ytick_1">
     <g id="line2d_9">
      <defs>
       <path d="M 0 0 
L -3.5 0 
" id="mb780f03d7a" style="stroke:#000000;stroke-width:0.8;"/>
      </defs>
      <g>
       <use style="stroke:#000000;stroke-width:0.8;" x="35.304688" xlink:href="#mb780f03d7a" y="209.054495"/>
      </g>
     </g>
     <g id="text_9">
      <!-- −10 -->
      <g transform="translate(7.2 212.853714)scale(0.1 -0.1)">
       <use xlink:href="#DejaVuSans-8722"/>
       <use x="83.789062" xlink:href="#DejaVuSans-49"/>
       <use x="147.412109" xlink:href="#DejaVuSans-48"/>
      </g>
     </g>
    </g>
    <g id="ytick_2">
     <g id="line2d_10">
      <g>
       <use style="stroke:#000000;stroke-width:0.8;" x="35.304688" xlink:href="#mb780f03d7a" y="181.254355"/>
      </g>
     </g>
     <g id="text_10">
      <!-- −8 -->
      <g transform="translate(13.5625 185.053574)scale(0.1 -0.1)">
       <use xlink:href="#DejaVuSans-8722"/>
       <use x="83.789062" xlink:href="#DejaVuSans-56"/>
      </g>
     </g>
    </g>
    <g id="ytick_3">
     <g id="line2d_11">
      <g>
       <use style="stroke:#000000;stroke-width:0.8;" x="35.304688" xlink:href="#mb780f03d7a" y="153.454215"/>
      </g>
     </g>
     <g id="text_11">
      <!-- −6 -->
      <g transform="translate(13.5625 157.253434)scale(0.1 -0.1)">
       <use xlink:href="#DejaVuSans-8722"/>
       <use x="83.789062" xlink:href="#DejaVuSans-54"/>
      </g>
     </g>
    </g>
    <g id="ytick_4">
     <g id="line2d_12">
      <g>
       <use style="stroke:#000000;stroke-width:0.8;" x="35.304688" xlink:href="#mb780f03d7a" y="125.654075"/>
      </g>
     </g>
     <g id="text_12">
      <!-- −4 -->
      <g transform="translate(13.5625 129.453294)scale(0.1 -0.1)">
       <use xlink:href="#DejaVuSans-8722"/>
       <use x="83.789062" xlink:href="#DejaVuSans-52"/>
      </g>
     </g>
    </g>
    <g id="ytick_5">
     <g id="line2d_13">
      <g>
       <use style="stroke:#000000;stroke-width:0.8;" x="35.304688" xlink:href="#mb780f03d7a" y="97.853935"/>
      </g>
     </g>
     <g id="text_13">
      <!-- −2 -->
      <g transform="translate(13.5625 101.653154)scale(0.1 -0.1)">
       <use xlink:href="#DejaVuSans-8722"/>
       <use x="83.789062" xlink:href="#DejaVuSans-50"/>
      </g>
     </g>
    </g>
    <g id="ytick_6">
     <g id="line2d_14">
      <g>
       <use style="stroke:#000000;stroke-width:0.8;" x="35.304688" xlink:href="#mb780f03d7a" y="70.053795"/>
      </g>
     </g>
     <g id="text_14">
      <!-- 0 -->
      <g transform="translate(21.942188 73.853014)scale(0.1 -0.1)">
       <use xlink:href="#DejaVuSans-48"/>
      </g>
     </g>
    </g>
    <g id="ytick_7">
     <g id="line2d_15">
      <g>
       <use style="stroke:#000000;stroke-width:0.8;" x="35.304688" xlink:href="#mb780f03d7a" y="42.253656"/>
      </g>
     </g>
     <g id="text_15">
      <!-- 2 -->
      <g transform="translate(21.942188 46.052874)scale(0.1 -0.1)">
       <use xlink:href="#DejaVuSans-50"/>
      </g>
     </g>
    </g>
    <g id="ytick_8">
     <g id="line2d_16">
      <g>
       <use style="stroke:#000000;stroke-width:0.8;" x="35.304688" xlink:href="#mb780f03d7a" y="14.453516"/>
      </g>
     </g>
     <g id="text_16">
      <!-- 4 -->
      <g transform="translate(21.942188 18.252734)scale(0.1 -0.1)">
       <use xlink:href="#DejaVuSans-52"/>
      </g>
     </g>
    </g>
   </g>
   <g id="line2d_17">
    <defs>
     <path d="M 0 1.5 
C 0.397805 1.5 0.77937 1.341951 1.06066 1.06066 
C 1.341951 0.77937 1.5 0.397805 1.5 0 
C 1.5 -0.397805 1.341951 -0.77937 1.06066 -1.06066 
C 0.77937 -1.341951 0.397805 -1.5 0 -1.5 
C -0.397805 -1.5 -0.77937 -1.341951 -1.06066 -1.06066 
C -1.341951 -0.77937 -1.5 -0.397805 -1.5 0 
C -1.5 0.397805 -1.341951 0.77937 -1.06066 1.06066 
C -0.77937 1.341951 -0.397805 1.5 0 1.5 
z
" id="m34a5725c0b" style="stroke:#ff0000;"/>
    </defs>
    <g clip-path="url(#pcf720d1e31)">
     <use style="fill:#ff0000;stroke:#ff0000;" x="261.889408" xlink:href="#m34a5725c0b" y="135.076057"/>
     <use style="fill:#ff0000;stroke:#ff0000;" x="333.887043" xlink:href="#m34a5725c0b" y="149.526071"/>
     <use style="fill:#ff0000;stroke:#ff0000;" x="276.761087" xlink:href="#m34a5725c0b" y="186.089008"/>
     <use style="fill:#ff0000;stroke:#ff0000;" x="114.778656" xlink:href="#m34a5725c0b" y="60.573742"/>
     <use style="fill:#ff0000;stroke:#ff0000;" x="97.104318" xlink:href="#m34a5725c0b" y="32.921074"/>
     <use style="fill:#ff0000;stroke:#ff0000;" x="289.886897" xlink:href="#m34a5725c0b" y="172.674609"/>
     <use style="fill:#ff0000;stroke:#ff0000;" x="85.775898" xlink:href="#m34a5725c0b" y="44.593321"/>
     <use style="fill:#ff0000;stroke:#ff0000;" x="299.867785" xlink:href="#m34a5725c0b" y="125.933031"/>
     <use style="fill:#ff0000;stroke:#ff0000;" x="106.342736" xlink:href="#m34a5725c0b" y="29.243365"/>
     <use style="fill:#ff0000;stroke:#ff0000;" x="259.629919" xlink:href="#m34a5725c0b" y="107.432075"/>
     <use style="fill:#ff0000;stroke:#ff0000;" x="98.72096" xlink:href="#m34a5725c0b" y="61.796633"/>
     <use style="fill:#ff0000;stroke:#ff0000;" x="273.291653" xlink:href="#m34a5725c0b" y="132.880424"/>
     <use style="fill:#ff0000;stroke:#ff0000;" x="74.083344" xlink:href="#m34a5725c0b" y="57.401611"/>
     <use style="fill:#ff0000;stroke:#ff0000;" x="318.377588" xlink:href="#m34a5725c0b" y="129.249545"/>
     <use style="fill:#ff0000;stroke:#ff0000;" x="116.010099" xlink:href="#m34a5725c0b" y="48.500085"/>
     <use style="fill:#ff0000;stroke:#ff0000;" x="283.94379" xlink:href="#m34a5725c0b" y="131.997348"/>
     <use style="fill:#ff0000;stroke:#ff0000;" x="301.601685" xlink:href="#m34a5725c0b" y="214.756364"/>
     <use style="fill:#ff0000;stroke:#ff0000;" x="280.779877" xlink:href="#m34a5725c0b" y="120.391938"/>
     <use style="fill:#ff0000;stroke:#ff0000;" x="305.459212" xlink:href="#m34a5725c0b" y="192.51844"/>
     <use style="fill:#ff0000;stroke:#ff0000;" x="307.148156" xlink:href="#m34a5725c0b" y="179.396771"/>
     <use style="fill:#ff0000;stroke:#ff0000;" x="93.773395" xlink:href="#m34a5725c0b" y="52.452277"/>
     <use style="fill:#ff0000;stroke:#ff0000;" x="283.15139" xlink:href="#m34a5725c0b" y="125.980912"/>
     <use style="fill:#ff0000;stroke:#ff0000;" x="312.920698" xlink:href="#m34a5725c0b" y="189.049385"/>
     <use style="fill:#ff0000;stroke:#ff0000;" x="322.791454" xlink:href="#m34a5725c0b" y="132.340141"/>
     <use style="fill:#ff0000;stroke:#ff0000;" x="304.80137" xlink:href="#m34a5725c0b" y="189.84333"/>
     <use style="fill:#ff0000;stroke:#ff0000;" x="320.564498" xlink:href="#m34a5725c0b" y="201.540162"/>
     <use style="fill:#ff0000;stroke:#ff0000;" x="91.297837" xlink:href="#m34a5725c0b" y="17.083636"/>
     <use style="fill:#ff0000;stroke:#ff0000;" x="107.617815" xlink:href="#m34a5725c0b" y="34.662073"/>
     <use style="fill:#ff0000;stroke:#ff0000;" x="296.387525" xlink:href="#m34a5725c0b" y="114.459411"/>
     <use style="fill:#ff0000;stroke:#ff0000;" x="68.91921" xlink:href="#m34a5725c0b" y="37.803134"/>
     <use style="fill:#ff0000;stroke:#ff0000;" x="50.578305" xlink:href="#m34a5725c0b" y="28.628438"/>
     <use style="fill:#ff0000;stroke:#ff0000;" x="282.762376" xlink:href="#m34a5725c0b" y="185.387936"/>
     <use style="fill:#ff0000;stroke:#ff0000;" x="346.21644" xlink:href="#m34a5725c0b" y="96.66594"/>
     <use style="fill:#ff0000;stroke:#ff0000;" x="106.93808" xlink:href="#m34a5725c0b" y="35.19406"/>
     <use style="fill:#ff0000;stroke:#ff0000;" x="301.321314" xlink:href="#m34a5725c0b" y="132.656952"/>
     <use style="fill:#ff0000;stroke:#ff0000;" x="114.246638" xlink:href="#m34a5725c0b" y="31.264655"/>
     <use style="fill:#ff0000;stroke:#ff0000;" x="303.631542" xlink:href="#m34a5725c0b" y="170.255167"/>
     <use style="fill:#ff0000;stroke:#ff0000;" x="273.917233" xlink:href="#m34a5725c0b" y="174.024667"/>
     <use style="fill:#ff0000;stroke:#ff0000;" x="116.13028" xlink:href="#m34a5725c0b" y="56.487288"/>
     <use style="fill:#ff0000;stroke:#ff0000;" x="317.545899" xlink:href="#m34a5725c0b" y="108.225866"/>
     <use style="fill:#ff0000;stroke:#ff0000;" x="327.587738" xlink:href="#m34a5725c0b" y="132.437566"/>
     <use style="fill:#ff0000;stroke:#ff0000;" x="294.84522" xlink:href="#m34a5725c0b" y="127.67795"/>
     <use style="fill:#ff0000;stroke:#ff0000;" x="264.534499" xlink:href="#m34a5725c0b" y="178.170455"/>
     <use style="fill:#ff0000;stroke:#ff0000;" x="290.915818" xlink:href="#m34a5725c0b" y="133.414037"/>
     <use style="fill:#ff0000;stroke:#ff0000;" x="307.873804" xlink:href="#m34a5725c0b" y="107.997176"/>
     <use style="fill:#ff0000;stroke:#ff0000;" x="265.875333" xlink:href="#m34a5725c0b" y="174.462619"/>
     <use style="fill:#ff0000;stroke:#ff0000;" x="287.725308" xlink:href="#m34a5725c0b" y="165.139299"/>
     <use style="fill:#ff0000;stroke:#ff0000;" x="292.694107" xlink:href="#m34a5725c0b" y="175.971069"/>
     <use style="fill:#ff0000;stroke:#ff0000;" x="296.968029" xlink:href="#m34a5725c0b" y="202.354497"/>
     <use style="fill:#ff0000;stroke:#ff0000;" x="296.24925" xlink:href="#m34a5725c0b" y="128.024665"/>
     <use style="fill:#ff0000;stroke:#ff0000;" x="284.895432" xlink:href="#m34a5725c0b" y="112.779308"/>
     <use style="fill:#ff0000;stroke:#ff0000;" x="279.234909" xlink:href="#m34a5725c0b" y="172.44866"/>
     <use style="fill:#ff0000;stroke:#ff0000;" x="313.482131" xlink:href="#m34a5725c0b" y="160.300089"/>
     <use style="fill:#ff0000;stroke:#ff0000;" x="284.615707" xlink:href="#m34a5725c0b" y="108.880343"/>
     <use style="fill:#ff0000;stroke:#ff0000;" x="95.439488" xlink:href="#m34a5725c0b" y="56.074031"/>
     <use style="fill:#ff0000;stroke:#ff0000;" x="291.90577" xlink:href="#m34a5725c0b" y="174.901775"/>
     <use style="fill:#ff0000;stroke:#ff0000;" x="263.671793" xlink:href="#m34a5725c0b" y="132.863786"/>
     <use style="fill:#ff0000;stroke:#ff0000;" x="308.117447" xlink:href="#m34a5725c0b" y="117.844198"/>
     <use style="fill:#ff0000;stroke:#ff0000;" x="265.69512" xlink:href="#m34a5725c0b" y="203.773554"/>
     <use style="fill:#ff0000;stroke:#ff0000;" x="272.091502" xlink:href="#m34a5725c0b" y="175.753828"/>
     <use style="fill:#ff0000;stroke:#ff0000;" x="104.266274" xlink:href="#m34a5725c0b" y="40.627586"/>
     <use style="fill:#ff0000;stroke:#ff0000;" x="292.979854" xlink:href="#m34a5725c0b" y="117.081353"/>
     <use style="fill:#ff0000;stroke:#ff0000;" x="288.767327" xlink:href="#m34a5725c0b" y="147.678574"/>
     <use style="fill:#ff0000;stroke:#ff0000;" x="298.767347" xlink:href="#m34a5725c0b" y="173.322401"/>
     <use style="fill:#ff0000;stroke:#ff0000;" x="328.019457" xlink:href="#m34a5725c0b" y="180.507641"/>
     <use style="fill:#ff0000;stroke:#ff0000;" x="64.401044" xlink:href="#m34a5725c0b" y="25.388153"/>
     <use style="fill:#ff0000;stroke:#ff0000;" x="240.536756" xlink:href="#m34a5725c0b" y="173.81302"/>
     <use style="fill:#ff0000;stroke:#ff0000;" x="322.238073" xlink:href="#m34a5725c0b" y="117.399412"/>
     <use style="fill:#ff0000;stroke:#ff0000;" x="118.373461" xlink:href="#m34a5725c0b" y="18.49262"/>
     <use style="fill:#ff0000;stroke:#ff0000;" x="303.061117" xlink:href="#m34a5725c0b" y="186.035371"/>
     <use style="fill:#ff0000;stroke:#ff0000;" x="114.235585" xlink:href="#m34a5725c0b" y="66.190837"/>
     <use style="fill:#ff0000;stroke:#ff0000;" x="287.616124" xlink:href="#m34a5725c0b" y="193.03018"/>
     <use style="fill:#ff0000;stroke:#ff0000;" x="98.753949" xlink:href="#m34a5725c0b" y="52.024189"/>
     <use style="fill:#ff0000;stroke:#ff0000;" x="234.769361" xlink:href="#m34a5725c0b" y="158.526376"/>
     <use style="fill:#ff0000;stroke:#ff0000;" x="262.539597" xlink:href="#m34a5725c0b" y="184.314064"/>
     <use style="fill:#ff0000;stroke:#ff0000;" x="66.906906" xlink:href="#m34a5725c0b" y="52.758062"/>
     <use style="fill:#ff0000;stroke:#ff0000;" x="261.005973" xlink:href="#m34a5725c0b" y="155.121806"/>
     <use style="fill:#ff0000;stroke:#ff0000;" x="348.643524" xlink:href="#m34a5725c0b" y="136.811279"/>
     <use style="fill:#ff0000;stroke:#ff0000;" x="331.266388" xlink:href="#m34a5725c0b" y="92.987716"/>
     <use style="fill:#ff0000;stroke:#ff0000;" x="89.130479" xlink:href="#m34a5725c0b" y="43.13551"/>
     <use style="fill:#ff0000;stroke:#ff0000;" x="289.356939" xlink:href="#m34a5725c0b" y="123.168492"/>
     <use style="fill:#ff0000;stroke:#ff0000;" x="347.058943" xlink:href="#m34a5725c0b" y="119.328192"/>
     <use style="fill:#ff0000;stroke:#ff0000;" x="287.968774" xlink:href="#m34a5725c0b" y="161.454106"/>
     <use style="fill:#ff0000;stroke:#ff0000;" x="289.043001" xlink:href="#m34a5725c0b" y="186.675221"/>
     <use style="fill:#ff0000;stroke:#ff0000;" x="91.113875" xlink:href="#m34a5725c0b" y="36.471787"/>
     <use style="fill:#ff0000;stroke:#ff0000;" x="287.071531" xlink:href="#m34a5725c0b" y="139.980928"/>
     <use style="fill:#ff0000;stroke:#ff0000;" x="304.968207" xlink:href="#m34a5725c0b" y="112.336"/>
     <use style="fill:#ff0000;stroke:#ff0000;" x="325.470954" xlink:href="#m34a5725c0b" y="177.781778"/>
     <use style="fill:#ff0000;stroke:#ff0000;" x="264.578978" xlink:href="#m34a5725c0b" y="125.327763"/>
     <use style="fill:#ff0000;stroke:#ff0000;" x="313.838212" xlink:href="#m34a5725c0b" y="125.876977"/>
     <use style="fill:#ff0000;stroke:#ff0000;" x="135.342593" xlink:href="#m34a5725c0b" y="34.622227"/>
     <use style="fill:#ff0000;stroke:#ff0000;" x="269.938358" xlink:href="#m34a5725c0b" y="137.406551"/>
     <use style="fill:#ff0000;stroke:#ff0000;" x="91.900579" xlink:href="#m34a5725c0b" y="54.070087"/>
     <use style="fill:#ff0000;stroke:#ff0000;" x="128.483615" xlink:href="#m34a5725c0b" y="58.664111"/>
     <use style="fill:#ff0000;stroke:#ff0000;" x="252.868974" xlink:href="#m34a5725c0b" y="187.177854"/>
     <use style="fill:#ff0000;stroke:#ff0000;" x="303.863687" xlink:href="#m34a5725c0b" y="120.895928"/>
     <use style="fill:#ff0000;stroke:#ff0000;" x="305.925041" xlink:href="#m34a5725c0b" y="174.369807"/>
     <use style="fill:#ff0000;stroke:#ff0000;" x="271.406601" xlink:href="#m34a5725c0b" y="179.995637"/>
     <use style="fill:#ff0000;stroke:#ff0000;" x="68.749899" xlink:href="#m34a5725c0b" y="26.212628"/>
     <use style="fill:#ff0000;stroke:#ff0000;" x="270.35148" xlink:href="#m34a5725c0b" y="169.143094"/>
     <use style="fill:#ff0000;stroke:#ff0000;" x="319.126432" xlink:href="#m34a5725c0b" y="130.830771"/>
     <use style="fill:#ff0000;stroke:#ff0000;" x="107.302656" xlink:href="#m34a5725c0b" y="43.633737"/>
     <use style="fill:#ff0000;stroke:#ff0000;" x="300.007362" xlink:href="#m34a5725c0b" y="182.34657"/>
     <use style="fill:#ff0000;stroke:#ff0000;" x="290.463463" xlink:href="#m34a5725c0b" y="202.502549"/>
     <use style="fill:#ff0000;stroke:#ff0000;" x="89.819019" xlink:href="#m34a5725c0b" y="41.71908"/>
     <use style="fill:#ff0000;stroke:#ff0000;" x="259.466265" xlink:href="#m34a5725c0b" y="172.453032"/>
     <use style="fill:#ff0000;stroke:#ff0000;" x="276.852563" xlink:href="#m34a5725c0b" y="107.66943"/>
     <use style="fill:#ff0000;stroke:#ff0000;" x="78.177082" xlink:href="#m34a5725c0b" y="46.532703"/>
     <use style="fill:#ff0000;stroke:#ff0000;" x="305.534683" xlink:href="#m34a5725c0b" y="185.18996"/>
     <use style="fill:#ff0000;stroke:#ff0000;" x="291.810703" xlink:href="#m34a5725c0b" y="192.951754"/>
     <use style="fill:#ff0000;stroke:#ff0000;" x="135.264228" xlink:href="#m34a5725c0b" y="64.826432"/>
     <use style="fill:#ff0000;stroke:#ff0000;" x="71.603994" xlink:href="#m34a5725c0b" y="35.182284"/>
     <use style="fill:#ff0000;stroke:#ff0000;" x="296.79711" xlink:href="#m34a5725c0b" y="113.1017"/>
     <use style="fill:#ff0000;stroke:#ff0000;" x="66.893917" xlink:href="#m34a5725c0b" y="67.379658"/>
     <use style="fill:#ff0000;stroke:#ff0000;" x="298.448832" xlink:href="#m34a5725c0b" y="104.050948"/>
     <use style="fill:#ff0000;stroke:#ff0000;" x="304.768093" xlink:href="#m34a5725c0b" y="153.724508"/>
     <use style="fill:#ff0000;stroke:#ff0000;" x="288.605891" xlink:href="#m34a5725c0b" y="169.111293"/>
     <use style="fill:#ff0000;stroke:#ff0000;" x="297.891269" xlink:href="#m34a5725c0b" y="111.528942"/>
     <use style="fill:#ff0000;stroke:#ff0000;" x="98.942241" xlink:href="#m34a5725c0b" y="53.481614"/>
     <use style="fill:#ff0000;stroke:#ff0000;" x="81.696399" xlink:href="#m34a5725c0b" y="51.114078"/>
     <use style="fill:#ff0000;stroke:#ff0000;" x="339.715463" xlink:href="#m34a5725c0b" y="124.961697"/>
     <use style="fill:#ff0000;stroke:#ff0000;" x="275.708978" xlink:href="#m34a5725c0b" y="182.115866"/>
     <use style="fill:#ff0000;stroke:#ff0000;" x="109.805998" xlink:href="#m34a5725c0b" y="25.055016"/>
     <use style="fill:#ff0000;stroke:#ff0000;" x="83.954981" xlink:href="#m34a5725c0b" y="49.480227"/>
     <use style="fill:#ff0000;stroke:#ff0000;" x="288.376412" xlink:href="#m34a5725c0b" y="117.257139"/>
     <use style="fill:#ff0000;stroke:#ff0000;" x="282.878159" xlink:href="#m34a5725c0b" y="188.053257"/>
     <use style="fill:#ff0000;stroke:#ff0000;" x="81.22477" xlink:href="#m34a5725c0b" y="43.461089"/>
     <use style="fill:#ff0000;stroke:#ff0000;" x="292.998959" xlink:href="#m34a5725c0b" y="202.016558"/>
     <use style="fill:#ff0000;stroke:#ff0000;" x="310.765102" xlink:href="#m34a5725c0b" y="129.915325"/>
     <use style="fill:#ff0000;stroke:#ff0000;" x="75.228049" xlink:href="#m34a5725c0b" y="22.180268"/>
     <use style="fill:#ff0000;stroke:#ff0000;" x="319.96471" xlink:href="#m34a5725c0b" y="131.222789"/>
     <use style="fill:#ff0000;stroke:#ff0000;" x="312.169958" xlink:href="#m34a5725c0b" y="134.616514"/>
     <use style="fill:#ff0000;stroke:#ff0000;" x="298.990066" xlink:href="#m34a5725c0b" y="132.558208"/>
     <use style="fill:#ff0000;stroke:#ff0000;" x="313.632967" xlink:href="#m34a5725c0b" y="103.549455"/>
     <use style="fill:#ff0000;stroke:#ff0000;" x="83.315474" xlink:href="#m34a5725c0b" y="26.587784"/>
     <use style="fill:#ff0000;stroke:#ff0000;" x="315.693285" xlink:href="#m34a5725c0b" y="165.088562"/>
     <use style="fill:#ff0000;stroke:#ff0000;" x="125.944734" xlink:href="#m34a5725c0b" y="38.578557"/>
     <use style="fill:#ff0000;stroke:#ff0000;" x="295.19434" xlink:href="#m34a5725c0b" y="162.221157"/>
     <use style="fill:#ff0000;stroke:#ff0000;" x="343.75291" xlink:href="#m34a5725c0b" y="133.433795"/>
     <use style="fill:#ff0000;stroke:#ff0000;" x="113.921957" xlink:href="#m34a5725c0b" y="20.292446"/>
     <use style="fill:#ff0000;stroke:#ff0000;" x="274.294568" xlink:href="#m34a5725c0b" y="214.191329"/>
     <use style="fill:#ff0000;stroke:#ff0000;" x="86.918527" xlink:href="#m34a5725c0b" y="37.969877"/>
     <use style="fill:#ff0000;stroke:#ff0000;" x="93.773004" xlink:href="#m34a5725c0b" y="19.733527"/>
     <use style="fill:#ff0000;stroke:#ff0000;" x="50.522869" xlink:href="#m34a5725c0b" y="40.27687"/>
     <use style="fill:#ff0000;stroke:#ff0000;" x="288.396456" xlink:href="#m34a5725c0b" y="167.102407"/>
     <use style="fill:#ff0000;stroke:#ff0000;" x="317.372162" xlink:href="#m34a5725c0b" y="190.48407"/>
     <use style="fill:#ff0000;stroke:#ff0000;" x="339.976481" xlink:href="#m34a5725c0b" y="177.925609"/>
     <use style="fill:#ff0000;stroke:#ff0000;" x="295.506494" xlink:href="#m34a5725c0b" y="197.285972"/>
     <use style="fill:#ff0000;stroke:#ff0000;" x="274.342398" xlink:href="#m34a5725c0b" y="193.696041"/>
     <use style="fill:#ff0000;stroke:#ff0000;" x="307.771811" xlink:href="#m34a5725c0b" y="109.901059"/>
     <use style="fill:#ff0000;stroke:#ff0000;" x="86.659056" xlink:href="#m34a5725c0b" y="26.036737"/>
     <use style="fill:#ff0000;stroke:#ff0000;" x="110.4277" xlink:href="#m34a5725c0b" y="36.33982"/>
     <use style="fill:#ff0000;stroke:#ff0000;" x="253.643361" xlink:href="#m34a5725c0b" y="128.497183"/>
     <use style="fill:#ff0000;stroke:#ff0000;" x="284.533832" xlink:href="#m34a5725c0b" y="196.698899"/>
     <use style="fill:#ff0000;stroke:#ff0000;" x="297.870558" xlink:href="#m34a5725c0b" y="173.286676"/>
     <use style="fill:#ff0000;stroke:#ff0000;" x="87.78262" xlink:href="#m34a5725c0b" y="42.47333"/>
     <use style="fill:#ff0000;stroke:#ff0000;" x="111.225226" xlink:href="#m34a5725c0b" y="41.006832"/>
     <use style="fill:#ff0000;stroke:#ff0000;" x="354.360471" xlink:href="#m34a5725c0b" y="139.540982"/>
     <use style="fill:#ff0000;stroke:#ff0000;" x="276.434446" xlink:href="#m34a5725c0b" y="136.052002"/>
     <use style="fill:#ff0000;stroke:#ff0000;" x="109.128293" xlink:href="#m34a5725c0b" y="38.970157"/>
     <use style="fill:#ff0000;stroke:#ff0000;" x="107.311493" xlink:href="#m34a5725c0b" y="81.342633"/>
     <use style="fill:#ff0000;stroke:#ff0000;" x="338.612412" xlink:href="#m34a5725c0b" y="126.804088"/>
     <use style="fill:#ff0000;stroke:#ff0000;" x="99.853192" xlink:href="#m34a5725c0b" y="58.669896"/>
     <use style="fill:#ff0000;stroke:#ff0000;" x="326.402762" xlink:href="#m34a5725c0b" y="114.072566"/>
     <use style="fill:#ff0000;stroke:#ff0000;" x="291.324268" xlink:href="#m34a5725c0b" y="161.314041"/>
     <use style="fill:#ff0000;stroke:#ff0000;" x="289.04728" xlink:href="#m34a5725c0b" y="170.774648"/>
     <use style="fill:#ff0000;stroke:#ff0000;" x="85.396925" xlink:href="#m34a5725c0b" y="41.65251"/>
     <use style="fill:#ff0000;stroke:#ff0000;" x="111.748791" xlink:href="#m34a5725c0b" y="43.035551"/>
     <use style="fill:#ff0000;stroke:#ff0000;" x="89.974528" xlink:href="#m34a5725c0b" y="58.055403"/>
     <use style="fill:#ff0000;stroke:#ff0000;" x="284.865366" xlink:href="#m34a5725c0b" y="190.892363"/>
     <use style="fill:#ff0000;stroke:#ff0000;" x="241.744225" xlink:href="#m34a5725c0b" y="174.764067"/>
     <use style="fill:#ff0000;stroke:#ff0000;" x="101.695623" xlink:href="#m34a5725c0b" y="47.034908"/>
     <use style="fill:#ff0000;stroke:#ff0000;" x="297.939627" xlink:href="#m34a5725c0b" y="191.053936"/>
     <use style="fill:#ff0000;stroke:#ff0000;" x="282.918522" xlink:href="#m34a5725c0b" y="111.763645"/>
     <use style="fill:#ff0000;stroke:#ff0000;" x="98.355542" xlink:href="#m34a5725c0b" y="44.036885"/>
     <use style="fill:#ff0000;stroke:#ff0000;" x="326.544435" xlink:href="#m34a5725c0b" y="124.371298"/>
     <use style="fill:#ff0000;stroke:#ff0000;" x="88.363122" xlink:href="#m34a5725c0b" y="30.369176"/>
     <use style="fill:#ff0000;stroke:#ff0000;" x="243.94415" xlink:href="#m34a5725c0b" y="92.02521"/>
     <use style="fill:#ff0000;stroke:#ff0000;" x="299.834396" xlink:href="#m34a5725c0b" y="168.152371"/>
     <use style="fill:#ff0000;stroke:#ff0000;" x="118.53929" xlink:href="#m34a5725c0b" y="59.639463"/>
     <use style="fill:#ff0000;stroke:#ff0000;" x="289.850028" xlink:href="#m34a5725c0b" y="112.291763"/>
     <use style="fill:#ff0000;stroke:#ff0000;" x="279.894174" xlink:href="#m34a5725c0b" y="195.012753"/>
     <use style="fill:#ff0000;stroke:#ff0000;" x="296.247075" xlink:href="#m34a5725c0b" y="126.578746"/>
     <use style="fill:#ff0000;stroke:#ff0000;" x="298.083365" xlink:href="#m34a5725c0b" y="170.254743"/>
     <use style="fill:#ff0000;stroke:#ff0000;" x="270.487225" xlink:href="#m34a5725c0b" y="115.081959"/>
     <use style="fill:#ff0000;stroke:#ff0000;" x="309.937663" xlink:href="#m34a5725c0b" y="188.29928"/>
     <use style="fill:#ff0000;stroke:#ff0000;" x="104.344" xlink:href="#m34a5725c0b" y="32.632678"/>
     <use style="fill:#ff0000;stroke:#ff0000;" x="277.497866" xlink:href="#m34a5725c0b" y="175.129552"/>
     <use style="fill:#ff0000;stroke:#ff0000;" x="126.431267" xlink:href="#m34a5725c0b" y="58.058657"/>
     <use style="fill:#ff0000;stroke:#ff0000;" x="299.734519" xlink:href="#m34a5725c0b" y="123.186433"/>
     <use style="fill:#ff0000;stroke:#ff0000;" x="285.789433" xlink:href="#m34a5725c0b" y="178.521137"/>
     <use style="fill:#ff0000;stroke:#ff0000;" x="96.189573" xlink:href="#m34a5725c0b" y="36.269218"/>
     <use style="fill:#ff0000;stroke:#ff0000;" x="71.965229" xlink:href="#m34a5725c0b" y="36.024206"/>
     <use style="fill:#ff0000;stroke:#ff0000;" x="354.886506" xlink:href="#m34a5725c0b" y="134.38457"/>
     <use style="fill:#ff0000;stroke:#ff0000;" x="302.265825" xlink:href="#m34a5725c0b" y="125.34956"/>
     <use style="fill:#ff0000;stroke:#ff0000;" x="290.508965" xlink:href="#m34a5725c0b" y="99.532241"/>
     <use style="fill:#ff0000;stroke:#ff0000;" x="282.240153" xlink:href="#m34a5725c0b" y="184.945692"/>
     <use style="fill:#ff0000;stroke:#ff0000;" x="77.434582" xlink:href="#m34a5725c0b" y="64.934753"/>
     <use style="fill:#ff0000;stroke:#ff0000;" x="122.130613" xlink:href="#m34a5725c0b" y="22.081202"/>
     <use style="fill:#ff0000;stroke:#ff0000;" x="285.136087" xlink:href="#m34a5725c0b" y="179.165662"/>
    </g>
   </g>
   <g id="patch_3">
    <path d="M 35.304688 224.64 
L 35.304688 7.2 
" style="fill:none;stroke:#000000;stroke-linecap:square;stroke-linejoin:miter;stroke-width:0.8;"/>
   </g>
   <g id="patch_4">
    <path d="M 370.104688 224.64 
L 370.104688 7.2 
" style="fill:none;stroke:#000000;stroke-linecap:square;stroke-linejoin:miter;stroke-width:0.8;"/>
   </g>
   <g id="patch_5">
    <path d="M 35.304688 224.64 
L 370.104688 224.64 
" style="fill:none;stroke:#000000;stroke-linecap:square;stroke-linejoin:miter;stroke-width:0.8;"/>
   </g>
   <g id="patch_6">
    <path d="M 35.304688 7.2 
L 370.104688 7.2 
" style="fill:none;stroke:#000000;stroke-linecap:square;stroke-linejoin:miter;stroke-width:0.8;"/>
   </g>
  </g>
 </g>
 <defs>
  <clipPath id="pcf720d1e31">
   <rect height="217.44" width="334.8" x="35.304688" y="7.2"/>
  </clipPath>
 </defs>
</svg>
