<?xml version="1.0" encoding="utf-8" standalone="no"?>
<!DOCTYPE svg PUBLIC "-//W3C//DTD SVG 1.1//EN"
  "http://www.w3.org/Graphics/SVG/1.1/DTD/svg11.dtd">
<!-- Created with matplotlib (https://matplotlib.org/) -->
<svg height="248.518125pt" version="1.1" viewBox="0 0 377.304688 248.518125" width="377.304688pt" xmlns="http://www.w3.org/2000/svg" xmlns:xlink="http://www.w3.org/1999/xlink">
 <metadata>
  <rdf:RDF xmlns:cc="http://creativecommons.org/ns#" xmlns:dc="http://purl.org/dc/elements/1.1/" xmlns:rdf="http://www.w3.org/1999/02/22-rdf-syntax-ns#">
   <cc:Work>
    <dc:type rdf:resource="http://purl.org/dc/dcmitype/StillImage"/>
    <dc:date>2021-02-16T14:25:14.123680</dc:date>
    <dc:format>image/svg+xml</dc:format>
    <dc:creator>
     <cc:Agent>
      <dc:title>Matplotlib v3.3.4, https://matplotlib.org/</dc:title>
     </cc:Agent>
    </dc:creator>
   </cc:Work>
  </rdf:RDF>
 </metadata>
 <defs>
  <style type="text/css">*{stroke-linecap:butt;stroke-linejoin:round;}</style>
 </defs>
 <g id="figure_1">
  <g id="patch_1">
   <path d="M 0 248.518125 
L 377.304688 248.518125 
L 377.304688 0 
L 0 0 
z
" style="fill:none;"/>
  </g>
  <g id="axes_1">
   <g id="patch_2">
    <path d="M 35.304688 224.64 
L 370.104688 224.64 
L 370.104688 7.2 
L 35.304688 7.2 
z
" style="fill:#ffffff;"/>
   </g>
   <g id="PathCollection_1">
    <defs>
     <path d="M 0 3 
C 0.795609 3 1.55874 2.683901 2.12132 2.12132 
C 2.683901 1.55874 3 0.795609 3 -0 
C 3 -0.795609 2.683901 -1.55874 2.12132 -2.12132 
C 1.55874 -2.683901 0.795609 -3 0 -3 
C -0.795609 -3 -1.55874 -2.683901 -2.12132 -2.12132 
C -2.683901 -1.55874 -3 -0.795609 -3 0 
C -3 0.795609 -2.683901 1.55874 -2.12132 2.12132 
C -1.55874 2.683901 -0.795609 3 0 3 
z
" id="C0_0_3475b4198c"/>
    </defs>
    <g clip-path="url(#pf7de930395)">
     <use style="fill:#21918c;stroke:#21918c;" x="311.829917" xlink:href="#C0_0_3475b4198c" y="116.649006"/>
    </g>
    <g clip-path="url(#pf7de930395)">
     <use style="fill:#440154;stroke:#440154;" x="290.474764" xlink:href="#C0_0_3475b4198c" y="171.0202"/>
    </g>
    <g clip-path="url(#pf7de930395)">
     <use style="fill:#fde725;stroke:#fde725;" x="82.480548" xlink:href="#C0_0_3475b4198c" y="22.49728"/>
    </g>
    <g clip-path="url(#pf7de930395)">
     <use style="fill:#fde725;stroke:#fde725;" x="105.977726" xlink:href="#C0_0_3475b4198c" y="17.083636"/>
    </g>
    <g clip-path="url(#pf7de930395)">
     <use style="fill:#21918c;stroke:#21918c;" x="320.066254" xlink:href="#C0_0_3475b4198c" y="117.875172"/>
    </g>
    <g clip-path="url(#pf7de930395)">
     <use style="fill:#fde725;stroke:#fde725;" x="84.70578" xlink:href="#C0_0_3475b4198c" y="53.291054"/>
    </g>
    <g clip-path="url(#pf7de930395)">
     <use style="fill:#fde725;stroke:#fde725;" x="108.934303" xlink:href="#C0_0_3475b4198c" y="41.896222"/>
    </g>
    <g clip-path="url(#pf7de930395)">
     <use style="fill:#440154;stroke:#440154;" x="298.112431" xlink:href="#C0_0_3475b4198c" y="167.716698"/>
    </g>
    <g clip-path="url(#pf7de930395)">
     <use style="fill:#fde725;stroke:#fde725;" x="94.23211" xlink:href="#C0_0_3475b4198c" y="24.399253"/>
    </g>
    <g clip-path="url(#pf7de930395)">
     <use style="fill:#21918c;stroke:#21918c;" x="302.803051" xlink:href="#C0_0_3475b4198c" y="131.805597"/>
    </g>
    <g clip-path="url(#pf7de930395)">
     <use style="fill:#fde725;stroke:#fde725;" x="61.70539" xlink:href="#C0_0_3475b4198c" y="36.702842"/>
    </g>
    <g clip-path="url(#pf7de930395)">
     <use style="fill:#fde725;stroke:#fde725;" x="94.650942" xlink:href="#C0_0_3475b4198c" y="22.862247"/>
    </g>
    <g clip-path="url(#pf7de930395)">
     <use style="fill:#fde725;stroke:#fde725;" x="106.226869" xlink:href="#C0_0_3475b4198c" y="28.231023"/>
    </g>
    <g clip-path="url(#pf7de930395)">
     <use style="fill:#440154;stroke:#440154;" x="276.354931" xlink:href="#C0_0_3475b4198c" y="181.078939"/>
    </g>
    <g clip-path="url(#pf7de930395)">
     <use style="fill:#21918c;stroke:#21918c;" x="296.380622" xlink:href="#C0_0_3475b4198c" y="130.348318"/>
    </g>
    <g clip-path="url(#pf7de930395)">
     <use style="fill:#440154;stroke:#440154;" x="301.76611" xlink:href="#C0_0_3475b4198c" y="180.283935"/>
    </g>
    <g clip-path="url(#pf7de930395)">
     <use style="fill:#21918c;stroke:#21918c;" x="324.169472" xlink:href="#C0_0_3475b4198c" y="133.644124"/>
    </g>
    <g clip-path="url(#pf7de930395)">
     <use style="fill:#440154;stroke:#440154;" x="288.49518" xlink:href="#C0_0_3475b4198c" y="186.169198"/>
    </g>
    <g clip-path="url(#pf7de930395)">
     <use style="fill:#fde725;stroke:#fde725;" x="97.790946" xlink:href="#C0_0_3475b4198c" y="37.38804"/>
    </g>
    <g clip-path="url(#pf7de930395)">
     <use style="fill:#fde725;stroke:#fde725;" x="67.747034" xlink:href="#C0_0_3475b4198c" y="25.104012"/>
    </g>
    <g clip-path="url(#pf7de930395)">
     <use style="fill:#440154;stroke:#440154;" x="242.22079" xlink:href="#C0_0_3475b4198c" y="180.839342"/>
    </g>
    <g clip-path="url(#pf7de930395)">
     <use style="fill:#440154;stroke:#440154;" x="300.919701" xlink:href="#C0_0_3475b4198c" y="200.357036"/>
    </g>
    <g clip-path="url(#pf7de930395)">
     <use style="fill:#fde725;stroke:#fde725;" x="94.088489" xlink:href="#C0_0_3475b4198c" y="38.119026"/>
    </g>
    <g clip-path="url(#pf7de930395)">
     <use style="fill:#21918c;stroke:#21918c;" x="305.135825" xlink:href="#C0_0_3475b4198c" y="103.095305"/>
    </g>
    <g clip-path="url(#pf7de930395)">
     <use style="fill:#fde725;stroke:#fde725;" x="103.006526" xlink:href="#C0_0_3475b4198c" y="21.995431"/>
    </g>
    <g clip-path="url(#pf7de930395)">
     <use style="fill:#fde725;stroke:#fde725;" x="96.893411" xlink:href="#C0_0_3475b4198c" y="44.888115"/>
    </g>
    <g clip-path="url(#pf7de930395)">
     <use style="fill:#440154;stroke:#440154;" x="272.70867" xlink:href="#C0_0_3475b4198c" y="175.552723"/>
    </g>
    <g clip-path="url(#pf7de930395)">
     <use style="fill:#fde725;stroke:#fde725;" x="58.955095" xlink:href="#C0_0_3475b4198c" y="47.738463"/>
    </g>
    <g clip-path="url(#pf7de930395)">
     <use style="fill:#21918c;stroke:#21918c;" x="318.917212" xlink:href="#C0_0_3475b4198c" y="135.392076"/>
    </g>
    <g clip-path="url(#pf7de930395)">
     <use style="fill:#440154;stroke:#440154;" x="291.375229" xlink:href="#C0_0_3475b4198c" y="175.516722"/>
    </g>
    <g clip-path="url(#pf7de930395)">
     <use style="fill:#440154;stroke:#440154;" x="268.131461" xlink:href="#C0_0_3475b4198c" y="181.574726"/>
    </g>
    <g clip-path="url(#pf7de930395)">
     <use style="fill:#440154;stroke:#440154;" x="319.074201" xlink:href="#C0_0_3475b4198c" y="170.962763"/>
    </g>
    <g clip-path="url(#pf7de930395)">
     <use style="fill:#440154;stroke:#440154;" x="278.18713" xlink:href="#C0_0_3475b4198c" y="190.238634"/>
    </g>
    <g clip-path="url(#pf7de930395)">
     <use style="fill:#440154;stroke:#440154;" x="292.685157" xlink:href="#C0_0_3475b4198c" y="179.550597"/>
    </g>
    <g clip-path="url(#pf7de930395)">
     <use style="fill:#21918c;stroke:#21918c;" x="340.053473" xlink:href="#C0_0_3475b4198c" y="121.737716"/>
    </g>
    <g clip-path="url(#pf7de930395)">
     <use style="fill:#fde725;stroke:#fde725;" x="50.522869" xlink:href="#C0_0_3475b4198c" y="40.290805"/>
    </g>
    <g clip-path="url(#pf7de930395)">
     <use style="fill:#440154;stroke:#440154;" x="287.55025" xlink:href="#C0_0_3475b4198c" y="200.174125"/>
    </g>
    <g clip-path="url(#pf7de930395)">
     <use style="fill:#440154;stroke:#440154;" x="276.789695" xlink:href="#C0_0_3475b4198c" y="203.348048"/>
    </g>
    <g clip-path="url(#pf7de930395)">
     <use style="fill:#440154;stroke:#440154;" x="294.652399" xlink:href="#C0_0_3475b4198c" y="202.505473"/>
    </g>
    <g clip-path="url(#pf7de930395)">
     <use style="fill:#fde725;stroke:#fde725;" x="138.538304" xlink:href="#C0_0_3475b4198c" y="36.288435"/>
    </g>
    <g clip-path="url(#pf7de930395)">
     <use style="fill:#21918c;stroke:#21918c;" x="354.886506" xlink:href="#C0_0_3475b4198c" y="121.900541"/>
    </g>
    <g clip-path="url(#pf7de930395)">
     <use style="fill:#21918c;stroke:#21918c;" x="342.659517" xlink:href="#C0_0_3475b4198c" y="124.823547"/>
    </g>
    <g clip-path="url(#pf7de930395)">
     <use style="fill:#fde725;stroke:#fde725;" x="81.50742" xlink:href="#C0_0_3475b4198c" y="44.253189"/>
    </g>
    <g clip-path="url(#pf7de930395)">
     <use style="fill:#fde725;stroke:#fde725;" x="112.076798" xlink:href="#C0_0_3475b4198c" y="37.324583"/>
    </g>
    <g clip-path="url(#pf7de930395)">
     <use style="fill:#fde725;stroke:#fde725;" x="110.370877" xlink:href="#C0_0_3475b4198c" y="47.218234"/>
    </g>
    <g clip-path="url(#pf7de930395)">
     <use style="fill:#440154;stroke:#440154;" x="243.455521" xlink:href="#C0_0_3475b4198c" y="181.915982"/>
    </g>
    <g clip-path="url(#pf7de930395)">
     <use style="fill:#21918c;stroke:#21918c;" x="318.883183" xlink:href="#C0_0_3475b4198c" y="94.503525"/>
    </g>
    <g clip-path="url(#pf7de930395)">
     <use style="fill:#440154;stroke:#440154;" x="282.466818" xlink:href="#C0_0_3475b4198c" y="204.83864"/>
    </g>
    <g clip-path="url(#pf7de930395)">
     <use style="fill:#fde725;stroke:#fde725;" x="58.051714" xlink:href="#C0_0_3475b4198c" y="70.431385"/>
    </g>
    <g clip-path="url(#pf7de930395)">
     <use style="fill:#440154;stroke:#440154;" x="266.760353" xlink:href="#C0_0_3475b4198c" y="185.772206"/>
    </g>
    <g clip-path="url(#pf7de930395)">
     <use style="fill:#fde725;stroke:#fde725;" x="90.7475" xlink:href="#C0_0_3475b4198c" y="27.367439"/>
    </g>
    <g clip-path="url(#pf7de930395)">
     <use style="fill:#440154;stroke:#440154;" x="264.720411" xlink:href="#C0_0_3475b4198c" y="192.727119"/>
    </g>
    <g clip-path="url(#pf7de930395)">
     <use style="fill:#fde725;stroke:#fde725;" x="142.666909" xlink:href="#C0_0_3475b4198c" y="45.879329"/>
    </g>
    <g clip-path="url(#pf7de930395)">
     <use style="fill:#21918c;stroke:#21918c;" x="317.720971" xlink:href="#C0_0_3475b4198c" y="113.217167"/>
    </g>
    <g clip-path="url(#pf7de930395)">
     <use style="fill:#440154;stroke:#440154;" x="303.034122" xlink:href="#C0_0_3475b4198c" y="190.499805"/>
    </g>
    <g clip-path="url(#pf7de930395)">
     <use style="fill:#21918c;stroke:#21918c;" x="302.807427" xlink:href="#C0_0_3475b4198c" y="113.805248"/>
    </g>
    <g clip-path="url(#pf7de930395)">
     <use style="fill:#21918c;stroke:#21918c;" x="319.589907" xlink:href="#C0_0_3475b4198c" y="138.420451"/>
    </g>
    <g clip-path="url(#pf7de930395)">
     <use style="fill:#440154;stroke:#440154;" x="285.518176" xlink:href="#C0_0_3475b4198c" y="196.960098"/>
    </g>
    <g clip-path="url(#pf7de930395)">
     <use style="fill:#fde725;stroke:#fde725;" x="117.484415" xlink:href="#C0_0_3475b4198c" y="42.932558"/>
    </g>
    <g clip-path="url(#pf7de930395)">
     <use style="fill:#21918c;stroke:#21918c;" x="295.846609" xlink:href="#C0_0_3475b4198c" y="129.847672"/>
    </g>
    <g clip-path="url(#pf7de930395)">
     <use style="fill:#21918c;stroke:#21918c;" x="319.667082" xlink:href="#C0_0_3475b4198c" y="130.124198"/>
    </g>
    <g clip-path="url(#pf7de930395)">
     <use style="fill:#21918c;stroke:#21918c;" x="327.219858" xlink:href="#C0_0_3475b4198c" y="134.493286"/>
    </g>
    <g clip-path="url(#pf7de930395)">
     <use style="fill:#440154;stroke:#440154;" x="287.827084" xlink:href="#C0_0_3475b4198c" y="186.898837"/>
    </g>
    <g clip-path="url(#pf7de930395)">
     <use style="fill:#fde725;stroke:#fde725;" x="101.877068" xlink:href="#C0_0_3475b4198c" y="31.685754"/>
    </g>
    <g clip-path="url(#pf7de930395)">
     <use style="fill:#440154;stroke:#440154;" x="261.577689" xlink:href="#C0_0_3475b4198c" y="179.29976"/>
    </g>
    <g clip-path="url(#pf7de930395)">
     <use style="fill:#21918c;stroke:#21918c;" x="285.468822" xlink:href="#C0_0_3475b4198c" y="119.441962"/>
    </g>
    <g clip-path="url(#pf7de930395)">
     <use style="fill:#440154;stroke:#440154;" x="299.926167" xlink:href="#C0_0_3475b4198c" y="213.149911"/>
    </g>
    <g clip-path="url(#pf7de930395)">
     <use style="fill:#fde725;stroke:#fde725;" x="87.042787" xlink:href="#C0_0_3475b4198c" y="34.258425"/>
    </g>
    <g clip-path="url(#pf7de930395)">
     <use style="fill:#440154;stroke:#440154;" x="267.947179" xlink:href="#C0_0_3475b4198c" y="214.756364"/>
    </g>
    <g clip-path="url(#pf7de930395)">
     <use style="fill:#21918c;stroke:#21918c;" x="292.773512" xlink:href="#C0_0_3475b4198c" y="115.700324"/>
    </g>
    <g clip-path="url(#pf7de930395)">
     <use style="fill:#21918c;stroke:#21918c;" x="287.721629" xlink:href="#C0_0_3475b4198c" y="162.955389"/>
    </g>
    <g clip-path="url(#pf7de930395)">
     <use style="fill:#fde725;stroke:#fde725;" x="115.868197" xlink:href="#C0_0_3475b4198c" y="17.342527"/>
    </g>
    <g clip-path="url(#pf7de930395)">
     <use style="fill:#fde725;stroke:#fde725;" x="86.439863" xlink:href="#C0_0_3475b4198c" y="62.005225"/>
    </g>
    <g clip-path="url(#pf7de930395)">
     <use style="fill:#fde725;stroke:#fde725;" x="80.69713" xlink:href="#C0_0_3475b4198c" y="37.442244"/>
    </g>
    <g clip-path="url(#pf7de930395)">
     <use style="fill:#440154;stroke:#440154;" x="302.85725" xlink:href="#C0_0_3475b4198c" y="174.431168"/>
    </g>
    <g clip-path="url(#pf7de930395)">
     <use style="fill:#21918c;stroke:#21918c;" x="335.03624" xlink:href="#C0_0_3475b4198c" y="148.633552"/>
    </g>
    <g clip-path="url(#pf7de930395)">
     <use style="fill:#21918c;stroke:#21918c;" x="247.304022" xlink:href="#C0_0_3475b4198c" y="99.939512"/>
    </g>
    <g clip-path="url(#pf7de930395)">
     <use style="fill:#fde725;stroke:#fde725;" x="111.712677" xlink:href="#C0_0_3475b4198c" y="76.293494"/>
    </g>
    <g clip-path="url(#pf7de930395)">
     <use style="fill:#21918c;stroke:#21918c;" x="315.645285" xlink:href="#C0_0_3475b4198c" y="163.59504"/>
    </g>
    <g clip-path="url(#pf7de930395)">
     <use style="fill:#fde725;stroke:#fde725;" x="87.547009" xlink:href="#C0_0_3475b4198c" y="21.945352"/>
    </g>
    <g clip-path="url(#pf7de930395)">
     <use style="fill:#21918c;stroke:#21918c;" x="317.137668" xlink:href="#C0_0_3475b4198c" y="131.081251"/>
    </g>
    <g clip-path="url(#pf7de930395)">
     <use style="fill:#fde725;stroke:#fde725;" x="146.047586" xlink:href="#C0_0_3475b4198c" y="29.910988"/>
    </g>
    <g clip-path="url(#pf7de930395)">
     <use style="fill:#440154;stroke:#440154;" x="290.723727" xlink:href="#C0_0_3475b4198c" y="166.848353"/>
    </g>
    <g clip-path="url(#pf7de930395)">
     <use style="fill:#21918c;stroke:#21918c;" x="306.536592" xlink:href="#C0_0_3475b4198c" y="119.687891"/>
    </g>
    <g clip-path="url(#pf7de930395)">
     <use style="fill:#440154;stroke:#440154;" x="295.867483" xlink:href="#C0_0_3475b4198c" y="212.767344"/>
    </g>
    <g clip-path="url(#pf7de930395)">
     <use style="fill:#21918c;stroke:#21918c;" x="309.412476" xlink:href="#C0_0_3475b4198c" y="143.817567"/>
    </g>
    <g clip-path="url(#pf7de930395)">
     <use style="fill:#21918c;stroke:#21918c;" x="265.812288" xlink:href="#C0_0_3475b4198c" y="132.374606"/>
    </g>
    <g clip-path="url(#pf7de930395)">
     <use style="fill:#21918c;stroke:#21918c;" x="331.771827" xlink:href="#C0_0_3475b4198c" y="136.11743"/>
    </g>
    <g clip-path="url(#pf7de930395)">
     <use style="fill:#440154;stroke:#440154;" x="310.33614" xlink:href="#C0_0_3475b4198c" y="187.160465"/>
    </g>
    <g clip-path="url(#pf7de930395)">
     <use style="fill:#440154;stroke:#440154;" x="273.787614" xlink:href="#C0_0_3475b4198c" y="187.838415"/>
    </g>
    <g clip-path="url(#pf7de930395)">
     <use style="fill:#440154;stroke:#440154;" x="301.066685" xlink:href="#C0_0_3475b4198c" y="176.811172"/>
    </g>
    <g clip-path="url(#pf7de930395)">
     <use style="fill:#21918c;stroke:#21918c;" x="301.343958" xlink:href="#C0_0_3475b4198c" y="138.99977"/>
    </g>
    <g clip-path="url(#pf7de930395)">
     <use style="fill:#21918c;stroke:#21918c;" x="290.997251" xlink:href="#C0_0_3475b4198c" y="118.735246"/>
    </g>
    <g clip-path="url(#pf7de930395)">
     <use style="fill:#fde725;stroke:#fde725;" x="80.459004" xlink:href="#C0_0_3475b4198c" y="21.347493"/>
    </g>
    <g clip-path="url(#pf7de930395)">
     <use style="fill:#440154;stroke:#440154;" x="294.749612" xlink:href="#C0_0_3475b4198c" y="182.071875"/>
    </g>
    <g clip-path="url(#pf7de930395)">
     <use style="fill:#21918c;stroke:#21918c;" x="290.243836" xlink:href="#C0_0_3475b4198c" y="131.14197"/>
    </g>
    <g clip-path="url(#pf7de930395)">
     <use style="fill:#21918c;stroke:#21918c;" x="298.192075" xlink:href="#C0_0_3475b4198c" y="143.152968"/>
    </g>
    <g clip-path="url(#pf7de930395)">
     <use style="fill:#21918c;stroke:#21918c;" x="304.255584" xlink:href="#C0_0_3475b4198c" y="149.723028"/>
    </g>
    <g clip-path="url(#pf7de930395)">
     <use style="fill:#440154;stroke:#440154;" x="291.161065" xlink:href="#C0_0_3475b4198c" y="173.242549"/>
    </g>
    <g clip-path="url(#pf7de930395)">
     <use style="fill:#fde725;stroke:#fde725;" x="121.232186" xlink:href="#C0_0_3475b4198c" y="44.64125"/>
    </g>
   </g>
   <g id="matplotlib.axis_1">
    <g id="xtick_1">
     <g id="line2d_1">
      <defs>
       <path d="M 0 0 
L 0 3.5 
" id="m590f86e9d0" style="stroke:#000000;stroke-width:0.8;"/>
      </defs>
      <g>
       <use style="stroke:#000000;stroke-width:0.8;" x="76.889348" xlink:href="#m590f86e9d0" y="224.64"/>
      </g>
     </g>
     <g id="text_1">
      <!-- −2 -->
      <g transform="translate(69.518254 239.238438)scale(0.1 -0.1)">
       <defs>
        <path d="M 10.59375 35.5 
L 73.1875 35.5 
L 73.1875 27.203125 
L 10.59375 27.203125 
z
" id="DejaVuSans-8722"/>
        <path d="M 19.1875 8.296875 
L 53.609375 8.296875 
L 53.609375 0 
L 7.328125 0 
L 7.328125 8.296875 
Q 12.9375 14.109375 22.625 23.890625 
Q 32.328125 33.6875 34.8125 36.53125 
Q 39.546875 41.84375 41.421875 45.53125 
Q 43.3125 49.21875 43.3125 52.78125 
Q 43.3125 58.59375 39.234375 62.25 
Q 35.15625 65.921875 28.609375 65.921875 
Q 23.96875 65.921875 18.8125 64.3125 
Q 13.671875 62.703125 7.8125 59.421875 
L 7.8125 69.390625 
Q 13.765625 71.78125 18.9375 73 
Q 24.125 74.21875 28.421875 74.21875 
Q 39.75 74.21875 46.484375 68.546875 
Q 53.21875 62.890625 53.21875 53.421875 
Q 53.21875 48.921875 51.53125 44.890625 
Q 49.859375 40.875 45.40625 35.40625 
Q 44.1875 33.984375 37.640625 27.21875 
Q 31.109375 20.453125 19.1875 8.296875 
z
" id="DejaVuSans-50"/>
       </defs>
       <use xlink:href="#DejaVuSans-8722"/>
       <use x="83.789062" xlink:href="#DejaVuSans-50"/>
      </g>
     </g>
    </g>
    <g id="xtick_2">
     <g id="line2d_2">
      <g>
       <use style="stroke:#000000;stroke-width:0.8;" x="121.418276" xlink:href="#m590f86e9d0" y="224.64"/>
      </g>
     </g>
     <g id="text_2">
      <!-- 0 -->
      <g transform="translate(118.237026 239.238438)scale(0.1 -0.1)">
       <defs>
        <path d="M 31.78125 66.40625 
Q 24.171875 66.40625 20.328125 58.90625 
Q 16.5 51.421875 16.5 36.375 
Q 16.5 21.390625 20.328125 13.890625 
Q 24.171875 6.390625 31.78125 6.390625 
Q 39.453125 6.390625 43.28125 13.890625 
Q 47.125 21.390625 47.125 36.375 
Q 47.125 51.421875 43.28125 58.90625 
Q 39.453125 66.40625 31.78125 66.40625 
z
M 31.78125 74.21875 
Q 44.046875 74.21875 50.515625 64.515625 
Q 56.984375 54.828125 56.984375 36.375 
Q 56.984375 17.96875 50.515625 8.265625 
Q 44.046875 -1.421875 31.78125 -1.421875 
Q 19.53125 -1.421875 13.0625 8.265625 
Q 6.59375 17.96875 6.59375 36.375 
Q 6.59375 54.828125 13.0625 64.515625 
Q 19.53125 74.21875 31.78125 74.21875 
z
" id="DejaVuSans-48"/>
       </defs>
       <use xlink:href="#DejaVuSans-48"/>
      </g>
     </g>
    </g>
    <g id="xtick_3">
     <g id="line2d_3">
      <g>
       <use style="stroke:#000000;stroke-width:0.8;" x="165.947204" xlink:href="#m590f86e9d0" y="224.64"/>
      </g>
     </g>
     <g id="text_3">
      <!-- 2 -->
      <g transform="translate(162.765954 239.238438)scale(0.1 -0.1)">
       <use xlink:href="#DejaVuSans-50"/>
      </g>
     </g>
    </g>
    <g id="xtick_4">
     <g id="line2d_4">
      <g>
       <use style="stroke:#000000;stroke-width:0.8;" x="210.476131" xlink:href="#m590f86e9d0" y="224.64"/>
      </g>
     </g>
     <g id="text_4">
      <!-- 4 -->
      <g transform="translate(207.294881 239.238438)scale(0.1 -0.1)">
       <defs>
        <path d="M 37.796875 64.3125 
L 12.890625 25.390625 
L 37.796875 25.390625 
z
M 35.203125 72.90625 
L 47.609375 72.90625 
L 47.609375 25.390625 
L 58.015625 25.390625 
L 58.015625 17.1875 
L 47.609375 17.1875 
L 47.609375 0 
L 37.796875 0 
L 37.796875 17.1875 
L 4.890625 17.1875 
L 4.890625 26.703125 
z
" id="DejaVuSans-52"/>
       </defs>
       <use xlink:href="#DejaVuSans-52"/>
      </g>
     </g>
    </g>
    <g id="xtick_5">
     <g id="line2d_5">
      <g>
       <use style="stroke:#000000;stroke-width:0.8;" x="255.005059" xlink:href="#m590f86e9d0" y="224.64"/>
      </g>
     </g>
     <g id="text_5">
      <!-- 6 -->
      <g transform="translate(251.823809 239.238438)scale(0.1 -0.1)">
       <defs>
        <path d="M 33.015625 40.375 
Q 26.375 40.375 22.484375 35.828125 
Q 18.609375 31.296875 18.609375 23.390625 
Q 18.609375 15.53125 22.484375 10.953125 
Q 26.375 6.390625 33.015625 6.390625 
Q 39.65625 6.390625 43.53125 10.953125 
Q 47.40625 15.53125 47.40625 23.390625 
Q 47.40625 31.296875 43.53125 35.828125 
Q 39.65625 40.375 33.015625 40.375 
z
M 52.59375 71.296875 
L 52.59375 62.3125 
Q 48.875 64.0625 45.09375 64.984375 
Q 41.3125 65.921875 37.59375 65.921875 
Q 27.828125 65.921875 22.671875 59.328125 
Q 17.53125 52.734375 16.796875 39.40625 
Q 19.671875 43.65625 24.015625 45.921875 
Q 28.375 48.1875 33.59375 48.1875 
Q 44.578125 48.1875 50.953125 41.515625 
Q 57.328125 34.859375 57.328125 23.390625 
Q 57.328125 12.15625 50.6875 5.359375 
Q 44.046875 -1.421875 33.015625 -1.421875 
Q 20.359375 -1.421875 13.671875 8.265625 
Q 6.984375 17.96875 6.984375 36.375 
Q 6.984375 53.65625 15.1875 63.9375 
Q 23.390625 74.21875 37.203125 74.21875 
Q 40.921875 74.21875 44.703125 73.484375 
Q 48.484375 72.75 52.59375 71.296875 
z
" id="DejaVuSans-54"/>
       </defs>
       <use xlink:href="#DejaVuSans-54"/>
      </g>
     </g>
    </g>
    <g id="xtick_6">
     <g id="line2d_6">
      <g>
       <use style="stroke:#000000;stroke-width:0.8;" x="299.533987" xlink:href="#m590f86e9d0" y="224.64"/>
      </g>
     </g>
     <g id="text_6">
      <!-- 8 -->
      <g transform="translate(296.352737 239.238438)scale(0.1 -0.1)">
       <defs>
        <path d="M 31.78125 34.625 
Q 24.75 34.625 20.71875 30.859375 
Q 16.703125 27.09375 16.703125 20.515625 
Q 16.703125 13.921875 20.71875 10.15625 
Q 24.75 6.390625 31.78125 6.390625 
Q 38.8125 6.390625 42.859375 10.171875 
Q 46.921875 13.96875 46.921875 20.515625 
Q 46.921875 27.09375 42.890625 30.859375 
Q 38.875 34.625 31.78125 34.625 
z
M 21.921875 38.8125 
Q 15.578125 40.375 12.03125 44.71875 
Q 8.5 49.078125 8.5 55.328125 
Q 8.5 64.0625 14.71875 69.140625 
Q 20.953125 74.21875 31.78125 74.21875 
Q 42.671875 74.21875 48.875 69.140625 
Q 55.078125 64.0625 55.078125 55.328125 
Q 55.078125 49.078125 51.53125 44.71875 
Q 48 40.375 41.703125 38.8125 
Q 48.828125 37.15625 52.796875 32.3125 
Q 56.78125 27.484375 56.78125 20.515625 
Q 56.78125 9.90625 50.3125 4.234375 
Q 43.84375 -1.421875 31.78125 -1.421875 
Q 19.734375 -1.421875 13.25 4.234375 
Q 6.78125 9.90625 6.78125 20.515625 
Q 6.78125 27.484375 10.78125 32.3125 
Q 14.796875 37.15625 21.921875 38.8125 
z
M 18.3125 54.390625 
Q 18.3125 48.734375 21.84375 45.5625 
Q 25.390625 42.390625 31.78125 42.390625 
Q 38.140625 42.390625 41.71875 45.5625 
Q 45.3125 48.734375 45.3125 54.390625 
Q 45.3125 60.0625 41.71875 63.234375 
Q 38.140625 66.40625 31.78125 66.40625 
Q 25.390625 66.40625 21.84375 63.234375 
Q 18.3125 60.0625 18.3125 54.390625 
z
" id="DejaVuSans-56"/>
       </defs>
       <use xlink:href="#DejaVuSans-56"/>
      </g>
     </g>
    </g>
    <g id="xtick_7">
     <g id="line2d_7">
      <g>
       <use style="stroke:#000000;stroke-width:0.8;" x="344.062915" xlink:href="#m590f86e9d0" y="224.64"/>
      </g>
     </g>
     <g id="text_7">
      <!-- 10 -->
      <g transform="translate(337.700415 239.238438)scale(0.1 -0.1)">
       <defs>
        <path d="M 12.40625 8.296875 
L 28.515625 8.296875 
L 28.515625 63.921875 
L 10.984375 60.40625 
L 10.984375 69.390625 
L 28.421875 72.90625 
L 38.28125 72.90625 
L 38.28125 8.296875 
L 54.390625 8.296875 
L 54.390625 0 
L 12.40625 0 
z
" id="DejaVuSans-49"/>
       </defs>
       <use xlink:href="#DejaVuSans-49"/>
       <use x="63.623047" xlink:href="#DejaVuSans-48"/>
      </g>
     </g>
    </g>
   </g>
   <g id="matplotlib.axis_2">
    <g id="ytick_1">
     <g id="line2d_8">
      <defs>
       <path d="M 0 0 
L -3.5 0 
" id="m1d7586836e" style="stroke:#000000;stroke-width:0.8;"/>
      </defs>
      <g>
       <use style="stroke:#000000;stroke-width:0.8;" x="35.304688" xlink:href="#m1d7586836e" y="220.734688"/>
      </g>
     </g>
     <g id="text_8">
      <!-- −10 -->
      <g transform="translate(7.2 224.533906)scale(0.1 -0.1)">
       <use xlink:href="#DejaVuSans-8722"/>
       <use x="83.789062" xlink:href="#DejaVuSans-49"/>
       <use x="147.412109" xlink:href="#DejaVuSans-48"/>
      </g>
     </g>
    </g>
    <g id="ytick_2">
     <g id="line2d_9">
      <g>
       <use style="stroke:#000000;stroke-width:0.8;" x="35.304688" xlink:href="#m1d7586836e" y="189.263356"/>
      </g>
     </g>
     <g id="text_9">
      <!-- −8 -->
      <g transform="translate(13.5625 193.062574)scale(0.1 -0.1)">
       <use xlink:href="#DejaVuSans-8722"/>
       <use x="83.789062" xlink:href="#DejaVuSans-56"/>
      </g>
     </g>
    </g>
    <g id="ytick_3">
     <g id="line2d_10">
      <g>
       <use style="stroke:#000000;stroke-width:0.8;" x="35.304688" xlink:href="#m1d7586836e" y="157.792024"/>
      </g>
     </g>
     <g id="text_10">
      <!-- −6 -->
      <g transform="translate(13.5625 161.591243)scale(0.1 -0.1)">
       <use xlink:href="#DejaVuSans-8722"/>
       <use x="83.789062" xlink:href="#DejaVuSans-54"/>
      </g>
     </g>
    </g>
    <g id="ytick_4">
     <g id="line2d_11">
      <g>
       <use style="stroke:#000000;stroke-width:0.8;" x="35.304688" xlink:href="#m1d7586836e" y="126.320692"/>
      </g>
     </g>
     <g id="text_11">
      <!-- −4 -->
      <g transform="translate(13.5625 130.119911)scale(0.1 -0.1)">
       <use xlink:href="#DejaVuSans-8722"/>
       <use x="83.789062" xlink:href="#DejaVuSans-52"/>
      </g>
     </g>
    </g>
    <g id="ytick_5">
     <g id="line2d_12">
      <g>
       <use style="stroke:#000000;stroke-width:0.8;" x="35.304688" xlink:href="#m1d7586836e" y="94.84936"/>
      </g>
     </g>
     <g id="text_12">
      <!-- −2 -->
      <g transform="translate(13.5625 98.648579)scale(0.1 -0.1)">
       <use xlink:href="#DejaVuSans-8722"/>
       <use x="83.789062" xlink:href="#DejaVuSans-50"/>
      </g>
     </g>
    </g>
    <g id="ytick_6">
     <g id="line2d_13">
      <g>
       <use style="stroke:#000000;stroke-width:0.8;" x="35.304688" xlink:href="#m1d7586836e" y="63.378029"/>
      </g>
     </g>
     <g id="text_13">
      <!-- 0 -->
      <g transform="translate(21.942188 67.177247)scale(0.1 -0.1)">
       <use xlink:href="#DejaVuSans-48"/>
      </g>
     </g>
    </g>
    <g id="ytick_7">
     <g id="line2d_14">
      <g>
       <use style="stroke:#000000;stroke-width:0.8;" x="35.304688" xlink:href="#m1d7586836e" y="31.906697"/>
      </g>
     </g>
     <g id="text_14">
      <!-- 2 -->
      <g transform="translate(21.942188 35.705916)scale(0.1 -0.1)">
       <use xlink:href="#DejaVuSans-50"/>
      </g>
     </g>
    </g>
   </g>
   <g id="patch_3">
    <path d="M 35.304688 224.64 
L 35.304688 7.2 
" style="fill:none;stroke:#000000;stroke-linecap:square;stroke-linejoin:miter;stroke-width:0.8;"/>
   </g>
   <g id="patch_4">
    <path d="M 370.104688 224.64 
L 370.104688 7.2 
" style="fill:none;stroke:#000000;stroke-linecap:square;stroke-linejoin:miter;stroke-width:0.8;"/>
   </g>
   <g id="patch_5">
    <path d="M 35.304688 224.64 
L 370.104688 224.64 
" style="fill:none;stroke:#000000;stroke-linecap:square;stroke-linejoin:miter;stroke-width:0.8;"/>
   </g>
   <g id="patch_6">
    <path d="M 35.304688 7.2 
L 370.104688 7.2 
" style="fill:none;stroke:#000000;stroke-linecap:square;stroke-linejoin:miter;stroke-width:0.8;"/>
   </g>
  </g>
 </g>
 <defs>
  <clipPath id="pf7de930395">
   <rect height="217.44" width="334.8" x="35.304688" y="7.2"/>
  </clipPath>
 </defs>
</svg>
