<?xml version="1.0" encoding="utf-8" standalone="no"?>
<!DOCTYPE svg PUBLIC "-//W3C//DTD SVG 1.1//EN"
  "http://www.w3.org/Graphics/SVG/1.1/DTD/svg11.dtd">
<!-- Created with matplotlib (https://matplotlib.org/) -->
<svg height="481.07625pt" version="1.1" viewBox="0 0 1156.4875 481.07625" width="1156.4875pt" xmlns="http://www.w3.org/2000/svg" xmlns:xlink="http://www.w3.org/1999/xlink">
 <metadata>
  <rdf:RDF xmlns:cc="http://creativecommons.org/ns#" xmlns:dc="http://purl.org/dc/elements/1.1/" xmlns:rdf="http://www.w3.org/1999/02/22-rdf-syntax-ns#">
   <cc:Work>
    <dc:type rdf:resource="http://purl.org/dc/dcmitype/StillImage"/>
    <dc:date>2021-02-17T08:12:26.242912</dc:date>
    <dc:format>image/svg+xml</dc:format>
    <dc:creator>
     <cc:Agent>
      <dc:title>Matplotlib v3.3.4, https://matplotlib.org/</dc:title>
     </cc:Agent>
    </dc:creator>
   </cc:Work>
  </rdf:RDF>
 </metadata>
 <defs>
  <style type="text/css">*{stroke-linecap:butt;stroke-linejoin:round;}</style>
 </defs>
 <g id="figure_1">
  <g id="patch_1">
   <path d="M 0 481.07625 
L 1156.4875 481.07625 
L 1156.4875 0 
L 0 0 
z
" style="fill:none;"/>
  </g>
  <g id="axes_1">
   <g id="patch_2">
    <path d="M 33.2875 219.990852 
L 225.701293 219.990852 
L 225.701293 22.318125 
L 33.2875 22.318125 
z
" style="fill:#ffffff;"/>
   </g>
   <g id="matplotlib.axis_1">
    <g id="xtick_1">
     <g id="line2d_1">
      <defs>
       <path d="M 0 0 
L 0 3.5 
" id="m584d5198be" style="stroke:#000000;stroke-width:0.8;"/>
      </defs>
      <g>
       <use style="stroke:#000000;stroke-width:0.8;" x="42.033582" xlink:href="#m584d5198be" y="219.990852"/>
      </g>
     </g>
     <g id="text_1">
      <!-- 0 -->
      <g transform="translate(38.852332 234.58929)scale(0.1 -0.1)">
       <defs>
        <path d="M 31.78125 66.40625 
Q 24.171875 66.40625 20.328125 58.90625 
Q 16.5 51.421875 16.5 36.375 
Q 16.5 21.390625 20.328125 13.890625 
Q 24.171875 6.390625 31.78125 6.390625 
Q 39.453125 6.390625 43.28125 13.890625 
Q 47.125 21.390625 47.125 36.375 
Q 47.125 51.421875 43.28125 58.90625 
Q 39.453125 66.40625 31.78125 66.40625 
z
M 31.78125 74.21875 
Q 44.046875 74.21875 50.515625 64.515625 
Q 56.984375 54.828125 56.984375 36.375 
Q 56.984375 17.96875 50.515625 8.265625 
Q 44.046875 -1.421875 31.78125 -1.421875 
Q 19.53125 -1.421875 13.0625 8.265625 
Q 6.59375 17.96875 6.59375 36.375 
Q 6.59375 54.828125 13.0625 64.515625 
Q 19.53125 74.21875 31.78125 74.21875 
z
" id="DejaVuSans-48"/>
       </defs>
       <use xlink:href="#DejaVuSans-48"/>
      </g>
     </g>
    </g>
    <g id="xtick_2">
     <g id="line2d_2">
      <g>
       <use style="stroke:#000000;stroke-width:0.8;" x="88.065589" xlink:href="#m584d5198be" y="219.990852"/>
      </g>
     </g>
     <g id="text_2">
      <!-- 5 -->
      <g transform="translate(84.884339 234.58929)scale(0.1 -0.1)">
       <defs>
        <path d="M 10.796875 72.90625 
L 49.515625 72.90625 
L 49.515625 64.59375 
L 19.828125 64.59375 
L 19.828125 46.734375 
Q 21.96875 47.46875 24.109375 47.828125 
Q 26.265625 48.1875 28.421875 48.1875 
Q 40.625 48.1875 47.75 41.5 
Q 54.890625 34.8125 54.890625 23.390625 
Q 54.890625 11.625 47.5625 5.09375 
Q 40.234375 -1.421875 26.90625 -1.421875 
Q 22.3125 -1.421875 17.546875 -0.640625 
Q 12.796875 0.140625 7.71875 1.703125 
L 7.71875 11.625 
Q 12.109375 9.234375 16.796875 8.0625 
Q 21.484375 6.890625 26.703125 6.890625 
Q 35.15625 6.890625 40.078125 11.328125 
Q 45.015625 15.765625 45.015625 23.390625 
Q 45.015625 31 40.078125 35.4375 
Q 35.15625 39.890625 26.703125 39.890625 
Q 22.75 39.890625 18.8125 39.015625 
Q 14.890625 38.140625 10.796875 36.28125 
z
" id="DejaVuSans-53"/>
       </defs>
       <use xlink:href="#DejaVuSans-53"/>
      </g>
     </g>
    </g>
    <g id="xtick_3">
     <g id="line2d_3">
      <g>
       <use style="stroke:#000000;stroke-width:0.8;" x="134.097597" xlink:href="#m584d5198be" y="219.990852"/>
      </g>
     </g>
     <g id="text_3">
      <!-- 10 -->
      <g transform="translate(127.735097 234.58929)scale(0.1 -0.1)">
       <defs>
        <path d="M 12.40625 8.296875 
L 28.515625 8.296875 
L 28.515625 63.921875 
L 10.984375 60.40625 
L 10.984375 69.390625 
L 28.421875 72.90625 
L 38.28125 72.90625 
L 38.28125 8.296875 
L 54.390625 8.296875 
L 54.390625 0 
L 12.40625 0 
z
" id="DejaVuSans-49"/>
       </defs>
       <use xlink:href="#DejaVuSans-49"/>
       <use x="63.623047" xlink:href="#DejaVuSans-48"/>
      </g>
     </g>
    </g>
    <g id="xtick_4">
     <g id="line2d_4">
      <g>
       <use style="stroke:#000000;stroke-width:0.8;" x="180.129605" xlink:href="#m584d5198be" y="219.990852"/>
      </g>
     </g>
     <g id="text_4">
      <!-- 15 -->
      <g transform="translate(173.767105 234.58929)scale(0.1 -0.1)">
       <use xlink:href="#DejaVuSans-49"/>
       <use x="63.623047" xlink:href="#DejaVuSans-53"/>
      </g>
     </g>
    </g>
   </g>
   <g id="matplotlib.axis_2">
    <g id="ytick_1">
     <g id="line2d_5">
      <defs>
       <path d="M 0 0 
L -3.5 0 
" id="mfef062ef7b" style="stroke:#000000;stroke-width:0.8;"/>
      </defs>
      <g>
       <use style="stroke:#000000;stroke-width:0.8;" x="33.2875" xlink:href="#mfef062ef7b" y="211.005728"/>
      </g>
     </g>
     <g id="text_5">
      <!-- 0 -->
      <g transform="translate(19.925 214.804947)scale(0.1 -0.1)">
       <use xlink:href="#DejaVuSans-48"/>
      </g>
     </g>
    </g>
    <g id="ytick_2">
     <g id="line2d_6">
      <g>
       <use style="stroke:#000000;stroke-width:0.8;" x="33.2875" xlink:href="#mfef062ef7b" y="173.800246"/>
      </g>
     </g>
     <g id="text_6">
      <!-- 100 -->
      <g transform="translate(7.2 177.599465)scale(0.1 -0.1)">
       <use xlink:href="#DejaVuSans-49"/>
       <use x="63.623047" xlink:href="#DejaVuSans-48"/>
       <use x="127.246094" xlink:href="#DejaVuSans-48"/>
      </g>
     </g>
    </g>
    <g id="ytick_3">
     <g id="line2d_7">
      <g>
       <use style="stroke:#000000;stroke-width:0.8;" x="33.2875" xlink:href="#mfef062ef7b" y="136.594764"/>
      </g>
     </g>
     <g id="text_7">
      <!-- 200 -->
      <g transform="translate(7.2 140.393983)scale(0.1 -0.1)">
       <defs>
        <path d="M 19.1875 8.296875 
L 53.609375 8.296875 
L 53.609375 0 
L 7.328125 0 
L 7.328125 8.296875 
Q 12.9375 14.109375 22.625 23.890625 
Q 32.328125 33.6875 34.8125 36.53125 
Q 39.546875 41.84375 41.421875 45.53125 
Q 43.3125 49.21875 43.3125 52.78125 
Q 43.3125 58.59375 39.234375 62.25 
Q 35.15625 65.921875 28.609375 65.921875 
Q 23.96875 65.921875 18.8125 64.3125 
Q 13.671875 62.703125 7.8125 59.421875 
L 7.8125 69.390625 
Q 13.765625 71.78125 18.9375 73 
Q 24.125 74.21875 28.421875 74.21875 
Q 39.75 74.21875 46.484375 68.546875 
Q 53.21875 62.890625 53.21875 53.421875 
Q 53.21875 48.921875 51.53125 44.890625 
Q 49.859375 40.875 45.40625 35.40625 
Q 44.1875 33.984375 37.640625 27.21875 
Q 31.109375 20.453125 19.1875 8.296875 
z
" id="DejaVuSans-50"/>
       </defs>
       <use xlink:href="#DejaVuSans-50"/>
       <use x="63.623047" xlink:href="#DejaVuSans-48"/>
       <use x="127.246094" xlink:href="#DejaVuSans-48"/>
      </g>
     </g>
    </g>
    <g id="ytick_4">
     <g id="line2d_8">
      <g>
       <use style="stroke:#000000;stroke-width:0.8;" x="33.2875" xlink:href="#mfef062ef7b" y="99.389282"/>
      </g>
     </g>
     <g id="text_8">
      <!-- 300 -->
      <g transform="translate(7.2 103.1885)scale(0.1 -0.1)">
       <defs>
        <path d="M 40.578125 39.3125 
Q 47.65625 37.796875 51.625 33 
Q 55.609375 28.21875 55.609375 21.1875 
Q 55.609375 10.40625 48.1875 4.484375 
Q 40.765625 -1.421875 27.09375 -1.421875 
Q 22.515625 -1.421875 17.65625 -0.515625 
Q 12.796875 0.390625 7.625 2.203125 
L 7.625 11.71875 
Q 11.71875 9.328125 16.59375 8.109375 
Q 21.484375 6.890625 26.8125 6.890625 
Q 36.078125 6.890625 40.9375 10.546875 
Q 45.796875 14.203125 45.796875 21.1875 
Q 45.796875 27.640625 41.28125 31.265625 
Q 36.765625 34.90625 28.71875 34.90625 
L 20.21875 34.90625 
L 20.21875 43.015625 
L 29.109375 43.015625 
Q 36.375 43.015625 40.234375 45.921875 
Q 44.09375 48.828125 44.09375 54.296875 
Q 44.09375 59.90625 40.109375 62.90625 
Q 36.140625 65.921875 28.71875 65.921875 
Q 24.65625 65.921875 20.015625 65.03125 
Q 15.375 64.15625 9.8125 62.3125 
L 9.8125 71.09375 
Q 15.4375 72.65625 20.34375 73.4375 
Q 25.25 74.21875 29.59375 74.21875 
Q 40.828125 74.21875 47.359375 69.109375 
Q 53.90625 64.015625 53.90625 55.328125 
Q 53.90625 49.265625 50.4375 45.09375 
Q 46.96875 40.921875 40.578125 39.3125 
z
" id="DejaVuSans-51"/>
       </defs>
       <use xlink:href="#DejaVuSans-51"/>
       <use x="63.623047" xlink:href="#DejaVuSans-48"/>
       <use x="127.246094" xlink:href="#DejaVuSans-48"/>
      </g>
     </g>
    </g>
    <g id="ytick_5">
     <g id="line2d_9">
      <g>
       <use style="stroke:#000000;stroke-width:0.8;" x="33.2875" xlink:href="#mfef062ef7b" y="62.183799"/>
      </g>
     </g>
     <g id="text_9">
      <!-- 400 -->
      <g transform="translate(7.2 65.983018)scale(0.1 -0.1)">
       <defs>
        <path d="M 37.796875 64.3125 
L 12.890625 25.390625 
L 37.796875 25.390625 
z
M 35.203125 72.90625 
L 47.609375 72.90625 
L 47.609375 25.390625 
L 58.015625 25.390625 
L 58.015625 17.1875 
L 47.609375 17.1875 
L 47.609375 0 
L 37.796875 0 
L 37.796875 17.1875 
L 4.890625 17.1875 
L 4.890625 26.703125 
z
" id="DejaVuSans-52"/>
       </defs>
       <use xlink:href="#DejaVuSans-52"/>
       <use x="63.623047" xlink:href="#DejaVuSans-48"/>
       <use x="127.246094" xlink:href="#DejaVuSans-48"/>
      </g>
     </g>
    </g>
    <g id="ytick_6">
     <g id="line2d_10">
      <g>
       <use style="stroke:#000000;stroke-width:0.8;" x="33.2875" xlink:href="#mfef062ef7b" y="24.978317"/>
      </g>
     </g>
     <g id="text_10">
      <!-- 500 -->
      <g transform="translate(7.2 28.777536)scale(0.1 -0.1)">
       <use xlink:href="#DejaVuSans-53"/>
       <use x="63.623047" xlink:href="#DejaVuSans-48"/>
       <use x="127.246094" xlink:href="#DejaVuSans-48"/>
      </g>
     </g>
    </g>
   </g>
   <g id="line2d_11">
    <path clip-path="url(#pfb8fec61c5)" d="M 42.033582 194.263261 
L 51.239983 211.005728 
L 60.446385 211.005728 
L 69.652786 211.005728 
L 78.859188 204.308741 
L 88.065589 196.49559 
L 97.271991 168.591479 
L 106.478393 160.778327 
L 115.684794 152.965176 
L 124.891196 144.03586 
L 134.097597 132.874216 
L 143.303999 131.758051 
L 152.510401 130.641887 
L 161.716802 126.177229 
L 170.923204 119.480242 
L 180.129605 121.712571 
L 189.336007 121.712571 
L 198.542408 122.828735 
L 207.74881 121.712571 
L 216.955212 120.596406 
" style="fill:none;stroke:#ff7f50;stroke-linecap:square;stroke-width:1.5;"/>
   </g>
   <g id="line2d_12">
    <path clip-path="url(#pfb8fec61c5)" d="M 42.033582 209.145454 
L 51.239983 208.773399 
L 60.446385 205.052851 
L 69.652786 198.355864 
L 78.859188 183.473671 
L 88.065589 143.663805 
L 97.271991 132.874216 
L 106.478393 113.89942 
L 115.684794 89.343801 
L 124.891196 67.020512 
L 134.097597 67.392567 
L 143.303999 65.904347 
L 152.510401 56.975032 
L 161.716802 31.303249 
L 170.923204 44.325168 
L 180.129605 49.533935 
L 189.336007 52.510374 
L 198.542408 54.742703 
L 207.74881 53.254484 
L 216.955212 51.022155 
" style="fill:none;stroke:#6495ed;stroke-linecap:square;stroke-width:1.5;"/>
   </g>
   <g id="patch_3">
    <path d="M 33.2875 219.990852 
L 33.2875 22.318125 
" style="fill:none;stroke:#000000;stroke-linecap:square;stroke-linejoin:miter;stroke-width:0.8;"/>
   </g>
   <g id="patch_4">
    <path d="M 225.701293 219.990852 
L 225.701293 22.318125 
" style="fill:none;stroke:#000000;stroke-linecap:square;stroke-linejoin:miter;stroke-width:0.8;"/>
   </g>
   <g id="patch_5">
    <path d="M 33.2875 219.990852 
L 225.701293 219.990852 
" style="fill:none;stroke:#000000;stroke-linecap:square;stroke-linejoin:miter;stroke-width:0.8;"/>
   </g>
   <g id="patch_6">
    <path d="M 33.2875 22.318125 
L 225.701293 22.318125 
" style="fill:none;stroke:#000000;stroke-linecap:square;stroke-linejoin:miter;stroke-width:0.8;"/>
   </g>
   <g id="text_11">
    <!-- True Positives -->
    <g transform="translate(88.595022 16.318125)scale(0.12 -0.12)">
     <defs>
      <path d="M -0.296875 72.90625 
L 61.375 72.90625 
L 61.375 64.59375 
L 35.5 64.59375 
L 35.5 0 
L 25.59375 0 
L 25.59375 64.59375 
L -0.296875 64.59375 
z
" id="DejaVuSans-84"/>
      <path d="M 41.109375 46.296875 
Q 39.59375 47.171875 37.8125 47.578125 
Q 36.03125 48 33.890625 48 
Q 26.265625 48 22.1875 43.046875 
Q 18.109375 38.09375 18.109375 28.8125 
L 18.109375 0 
L 9.078125 0 
L 9.078125 54.6875 
L 18.109375 54.6875 
L 18.109375 46.1875 
Q 20.953125 51.171875 25.484375 53.578125 
Q 30.03125 56 36.53125 56 
Q 37.453125 56 38.578125 55.875 
Q 39.703125 55.765625 41.0625 55.515625 
z
" id="DejaVuSans-114"/>
      <path d="M 8.5 21.578125 
L 8.5 54.6875 
L 17.484375 54.6875 
L 17.484375 21.921875 
Q 17.484375 14.15625 20.5 10.265625 
Q 23.53125 6.390625 29.59375 6.390625 
Q 36.859375 6.390625 41.078125 11.03125 
Q 45.3125 15.671875 45.3125 23.6875 
L 45.3125 54.6875 
L 54.296875 54.6875 
L 54.296875 0 
L 45.3125 0 
L 45.3125 8.40625 
Q 42.046875 3.421875 37.71875 1 
Q 33.40625 -1.421875 27.6875 -1.421875 
Q 18.265625 -1.421875 13.375 4.4375 
Q 8.5 10.296875 8.5 21.578125 
z
M 31.109375 56 
z
" id="DejaVuSans-117"/>
      <path d="M 56.203125 29.59375 
L 56.203125 25.203125 
L 14.890625 25.203125 
Q 15.484375 15.921875 20.484375 11.0625 
Q 25.484375 6.203125 34.421875 6.203125 
Q 39.59375 6.203125 44.453125 7.46875 
Q 49.3125 8.734375 54.109375 11.28125 
L 54.109375 2.78125 
Q 49.265625 0.734375 44.1875 -0.34375 
Q 39.109375 -1.421875 33.890625 -1.421875 
Q 20.796875 -1.421875 13.15625 6.1875 
Q 5.515625 13.8125 5.515625 26.8125 
Q 5.515625 40.234375 12.765625 48.109375 
Q 20.015625 56 32.328125 56 
Q 43.359375 56 49.78125 48.890625 
Q 56.203125 41.796875 56.203125 29.59375 
z
M 47.21875 32.234375 
Q 47.125 39.59375 43.09375 43.984375 
Q 39.0625 48.390625 32.421875 48.390625 
Q 24.90625 48.390625 20.390625 44.140625 
Q 15.875 39.890625 15.1875 32.171875 
z
" id="DejaVuSans-101"/>
      <path id="DejaVuSans-32"/>
      <path d="M 19.671875 64.796875 
L 19.671875 37.40625 
L 32.078125 37.40625 
Q 38.96875 37.40625 42.71875 40.96875 
Q 46.484375 44.53125 46.484375 51.125 
Q 46.484375 57.671875 42.71875 61.234375 
Q 38.96875 64.796875 32.078125 64.796875 
z
M 9.8125 72.90625 
L 32.078125 72.90625 
Q 44.34375 72.90625 50.609375 67.359375 
Q 56.890625 61.8125 56.890625 51.125 
Q 56.890625 40.328125 50.609375 34.8125 
Q 44.34375 29.296875 32.078125 29.296875 
L 19.671875 29.296875 
L 19.671875 0 
L 9.8125 0 
z
" id="DejaVuSans-80"/>
      <path d="M 30.609375 48.390625 
Q 23.390625 48.390625 19.1875 42.75 
Q 14.984375 37.109375 14.984375 27.296875 
Q 14.984375 17.484375 19.15625 11.84375 
Q 23.34375 6.203125 30.609375 6.203125 
Q 37.796875 6.203125 41.984375 11.859375 
Q 46.1875 17.53125 46.1875 27.296875 
Q 46.1875 37.015625 41.984375 42.703125 
Q 37.796875 48.390625 30.609375 48.390625 
z
M 30.609375 56 
Q 42.328125 56 49.015625 48.375 
Q 55.71875 40.765625 55.71875 27.296875 
Q 55.71875 13.875 49.015625 6.21875 
Q 42.328125 -1.421875 30.609375 -1.421875 
Q 18.84375 -1.421875 12.171875 6.21875 
Q 5.515625 13.875 5.515625 27.296875 
Q 5.515625 40.765625 12.171875 48.375 
Q 18.84375 56 30.609375 56 
z
" id="DejaVuSans-111"/>
      <path d="M 44.28125 53.078125 
L 44.28125 44.578125 
Q 40.484375 46.53125 36.375 47.5 
Q 32.28125 48.484375 27.875 48.484375 
Q 21.1875 48.484375 17.84375 46.4375 
Q 14.5 44.390625 14.5 40.28125 
Q 14.5 37.15625 16.890625 35.375 
Q 19.28125 33.59375 26.515625 31.984375 
L 29.59375 31.296875 
Q 39.15625 29.25 43.1875 25.515625 
Q 47.21875 21.78125 47.21875 15.09375 
Q 47.21875 7.46875 41.1875 3.015625 
Q 35.15625 -1.421875 24.609375 -1.421875 
Q 20.21875 -1.421875 15.453125 -0.5625 
Q 10.6875 0.296875 5.421875 2 
L 5.421875 11.28125 
Q 10.40625 8.6875 15.234375 7.390625 
Q 20.0625 6.109375 24.8125 6.109375 
Q 31.15625 6.109375 34.5625 8.28125 
Q 37.984375 10.453125 37.984375 14.40625 
Q 37.984375 18.0625 35.515625 20.015625 
Q 33.0625 21.96875 24.703125 23.78125 
L 21.578125 24.515625 
Q 13.234375 26.265625 9.515625 29.90625 
Q 5.8125 33.546875 5.8125 39.890625 
Q 5.8125 47.609375 11.28125 51.796875 
Q 16.75 56 26.8125 56 
Q 31.78125 56 36.171875 55.265625 
Q 40.578125 54.546875 44.28125 53.078125 
z
" id="DejaVuSans-115"/>
      <path d="M 9.421875 54.6875 
L 18.40625 54.6875 
L 18.40625 0 
L 9.421875 0 
z
M 9.421875 75.984375 
L 18.40625 75.984375 
L 18.40625 64.59375 
L 9.421875 64.59375 
z
" id="DejaVuSans-105"/>
      <path d="M 18.3125 70.21875 
L 18.3125 54.6875 
L 36.8125 54.6875 
L 36.8125 47.703125 
L 18.3125 47.703125 
L 18.3125 18.015625 
Q 18.3125 11.328125 20.140625 9.421875 
Q 21.96875 7.515625 27.59375 7.515625 
L 36.8125 7.515625 
L 36.8125 0 
L 27.59375 0 
Q 17.1875 0 13.234375 3.875 
Q 9.28125 7.765625 9.28125 18.015625 
L 9.28125 47.703125 
L 2.6875 47.703125 
L 2.6875 54.6875 
L 9.28125 54.6875 
L 9.28125 70.21875 
z
" id="DejaVuSans-116"/>
      <path d="M 2.984375 54.6875 
L 12.5 54.6875 
L 29.59375 8.796875 
L 46.6875 54.6875 
L 56.203125 54.6875 
L 35.6875 0 
L 23.484375 0 
z
" id="DejaVuSans-118"/>
     </defs>
     <use xlink:href="#DejaVuSans-84"/>
     <use x="46.333984" xlink:href="#DejaVuSans-114"/>
     <use x="87.447266" xlink:href="#DejaVuSans-117"/>
     <use x="150.826172" xlink:href="#DejaVuSans-101"/>
     <use x="212.349609" xlink:href="#DejaVuSans-32"/>
     <use x="244.136719" xlink:href="#DejaVuSans-80"/>
     <use x="300.814453" xlink:href="#DejaVuSans-111"/>
     <use x="361.996094" xlink:href="#DejaVuSans-115"/>
     <use x="414.095703" xlink:href="#DejaVuSans-105"/>
     <use x="441.878906" xlink:href="#DejaVuSans-116"/>
     <use x="481.087891" xlink:href="#DejaVuSans-105"/>
     <use x="508.871094" xlink:href="#DejaVuSans-118"/>
     <use x="568.050781" xlink:href="#DejaVuSans-101"/>
     <use x="629.574219" xlink:href="#DejaVuSans-115"/>
    </g>
   </g>
  </g>
  <g id="axes_2">
   <g id="patch_7">
    <path d="M 264.184052 219.990852 
L 456.597845 219.990852 
L 456.597845 22.318125 
L 264.184052 22.318125 
z
" style="fill:#ffffff;"/>
   </g>
   <g id="matplotlib.axis_3">
    <g id="xtick_5">
     <g id="line2d_13">
      <g>
       <use style="stroke:#000000;stroke-width:0.8;" x="272.930133" xlink:href="#m584d5198be" y="219.990852"/>
      </g>
     </g>
     <g id="text_12">
      <!-- 0 -->
      <g transform="translate(269.748883 234.58929)scale(0.1 -0.1)">
       <use xlink:href="#DejaVuSans-48"/>
      </g>
     </g>
    </g>
    <g id="xtick_6">
     <g id="line2d_14">
      <g>
       <use style="stroke:#000000;stroke-width:0.8;" x="318.962141" xlink:href="#m584d5198be" y="219.990852"/>
      </g>
     </g>
     <g id="text_13">
      <!-- 5 -->
      <g transform="translate(315.780891 234.58929)scale(0.1 -0.1)">
       <use xlink:href="#DejaVuSans-53"/>
      </g>
     </g>
    </g>
    <g id="xtick_7">
     <g id="line2d_15">
      <g>
       <use style="stroke:#000000;stroke-width:0.8;" x="364.994149" xlink:href="#m584d5198be" y="219.990852"/>
      </g>
     </g>
     <g id="text_14">
      <!-- 10 -->
      <g transform="translate(358.631649 234.58929)scale(0.1 -0.1)">
       <use xlink:href="#DejaVuSans-49"/>
       <use x="63.623047" xlink:href="#DejaVuSans-48"/>
      </g>
     </g>
    </g>
    <g id="xtick_8">
     <g id="line2d_16">
      <g>
       <use style="stroke:#000000;stroke-width:0.8;" x="411.026157" xlink:href="#m584d5198be" y="219.990852"/>
      </g>
     </g>
     <g id="text_15">
      <!-- 15 -->
      <g transform="translate(404.663657 234.58929)scale(0.1 -0.1)">
       <use xlink:href="#DejaVuSans-49"/>
       <use x="63.623047" xlink:href="#DejaVuSans-53"/>
      </g>
     </g>
    </g>
   </g>
   <g id="matplotlib.axis_4">
    <g id="ytick_7">
     <g id="line2d_17">
      <g>
       <use style="stroke:#000000;stroke-width:0.8;" x="264.184052" xlink:href="#mfef062ef7b" y="211.005728"/>
      </g>
     </g>
     <g id="text_16">
      <!-- 0 -->
      <g transform="translate(250.821552 214.804947)scale(0.1 -0.1)">
       <use xlink:href="#DejaVuSans-48"/>
      </g>
     </g>
    </g>
    <g id="ytick_8">
     <g id="line2d_18">
      <g>
       <use style="stroke:#000000;stroke-width:0.8;" x="264.184052" xlink:href="#mfef062ef7b" y="185.624022"/>
      </g>
     </g>
     <g id="text_17">
      <!-- 25 -->
      <g transform="translate(244.459052 189.423241)scale(0.1 -0.1)">
       <use xlink:href="#DejaVuSans-50"/>
       <use x="63.623047" xlink:href="#DejaVuSans-53"/>
      </g>
     </g>
    </g>
    <g id="ytick_9">
     <g id="line2d_19">
      <g>
       <use style="stroke:#000000;stroke-width:0.8;" x="264.184052" xlink:href="#mfef062ef7b" y="160.242316"/>
      </g>
     </g>
     <g id="text_18">
      <!-- 50 -->
      <g transform="translate(244.459052 164.041535)scale(0.1 -0.1)">
       <use xlink:href="#DejaVuSans-53"/>
       <use x="63.623047" xlink:href="#DejaVuSans-48"/>
      </g>
     </g>
    </g>
    <g id="ytick_10">
     <g id="line2d_20">
      <g>
       <use style="stroke:#000000;stroke-width:0.8;" x="264.184052" xlink:href="#mfef062ef7b" y="134.86061"/>
      </g>
     </g>
     <g id="text_19">
      <!-- 75 -->
      <g transform="translate(244.459052 138.659829)scale(0.1 -0.1)">
       <defs>
        <path d="M 8.203125 72.90625 
L 55.078125 72.90625 
L 55.078125 68.703125 
L 28.609375 0 
L 18.3125 0 
L 43.21875 64.59375 
L 8.203125 64.59375 
z
" id="DejaVuSans-55"/>
       </defs>
       <use xlink:href="#DejaVuSans-55"/>
       <use x="63.623047" xlink:href="#DejaVuSans-53"/>
      </g>
     </g>
    </g>
    <g id="ytick_11">
     <g id="line2d_21">
      <g>
       <use style="stroke:#000000;stroke-width:0.8;" x="264.184052" xlink:href="#mfef062ef7b" y="109.478904"/>
      </g>
     </g>
     <g id="text_20">
      <!-- 100 -->
      <g transform="translate(238.096552 113.278123)scale(0.1 -0.1)">
       <use xlink:href="#DejaVuSans-49"/>
       <use x="63.623047" xlink:href="#DejaVuSans-48"/>
       <use x="127.246094" xlink:href="#DejaVuSans-48"/>
      </g>
     </g>
    </g>
    <g id="ytick_12">
     <g id="line2d_22">
      <g>
       <use style="stroke:#000000;stroke-width:0.8;" x="264.184052" xlink:href="#mfef062ef7b" y="84.097198"/>
      </g>
     </g>
     <g id="text_21">
      <!-- 125 -->
      <g transform="translate(238.096552 87.896416)scale(0.1 -0.1)">
       <use xlink:href="#DejaVuSans-49"/>
       <use x="63.623047" xlink:href="#DejaVuSans-50"/>
       <use x="127.246094" xlink:href="#DejaVuSans-53"/>
      </g>
     </g>
    </g>
    <g id="ytick_13">
     <g id="line2d_23">
      <g>
       <use style="stroke:#000000;stroke-width:0.8;" x="264.184052" xlink:href="#mfef062ef7b" y="58.715492"/>
      </g>
     </g>
     <g id="text_22">
      <!-- 150 -->
      <g transform="translate(238.096552 62.51471)scale(0.1 -0.1)">
       <use xlink:href="#DejaVuSans-49"/>
       <use x="63.623047" xlink:href="#DejaVuSans-53"/>
       <use x="127.246094" xlink:href="#DejaVuSans-48"/>
      </g>
     </g>
    </g>
    <g id="ytick_14">
     <g id="line2d_24">
      <g>
       <use style="stroke:#000000;stroke-width:0.8;" x="264.184052" xlink:href="#mfef062ef7b" y="33.333785"/>
      </g>
     </g>
     <g id="text_23">
      <!-- 175 -->
      <g transform="translate(238.096552 37.133004)scale(0.1 -0.1)">
       <use xlink:href="#DejaVuSans-49"/>
       <use x="63.623047" xlink:href="#DejaVuSans-55"/>
       <use x="127.246094" xlink:href="#DejaVuSans-53"/>
      </g>
     </g>
    </g>
   </g>
   <g id="line2d_25">
    <path clip-path="url(#pae6b73810a)" d="M 272.930133 186.63929 
L 282.136535 211.005728 
L 291.342936 211.005728 
L 300.549338 211.005728 
L 309.75574 211.005728 
L 318.962141 207.959924 
L 328.168543 171.410267 
L 337.374944 165.318657 
L 346.581346 150.089634 
L 355.787747 125.723196 
L 364.994149 104.402563 
L 374.200551 107.448367 
L 383.406952 110.494172 
L 392.613354 110.494172 
L 401.819755 95.265148 
L 411.026157 104.402563 
L 420.232559 101.356758 
L 429.43896 101.356758 
L 438.645362 104.402563 
L 447.851763 101.356758 
" style="fill:none;stroke:#ff7f50;stroke-linecap:square;stroke-width:1.5;"/>
   </g>
   <g id="line2d_26">
    <path clip-path="url(#pae6b73810a)" d="M 272.930133 201.868314 
L 282.136535 207.959924 
L 291.342936 203.898851 
L 300.549338 197.807241 
L 309.75574 185.624022 
L 318.962141 131.814805 
L 328.168543 132.830073 
L 337.374944 113.539977 
L 346.581346 89.173539 
L 355.787747 67.852906 
L 364.994149 72.929247 
L 374.200551 76.99032 
L 383.406952 69.883442 
L 392.613354 31.303249 
L 401.819755 55.669687 
L 411.026157 60.746028 
L 420.232559 60.746028 
L 429.43896 62.776565 
L 438.645362 57.700223 
L 447.851763 52.623882 
" style="fill:none;stroke:#6495ed;stroke-linecap:square;stroke-width:1.5;"/>
   </g>
   <g id="patch_8">
    <path d="M 264.184052 219.990852 
L 264.184052 22.318125 
" style="fill:none;stroke:#000000;stroke-linecap:square;stroke-linejoin:miter;stroke-width:0.8;"/>
   </g>
   <g id="patch_9">
    <path d="M 456.597845 219.990852 
L 456.597845 22.318125 
" style="fill:none;stroke:#000000;stroke-linecap:square;stroke-linejoin:miter;stroke-width:0.8;"/>
   </g>
   <g id="patch_10">
    <path d="M 264.184052 219.990852 
L 456.597845 219.990852 
" style="fill:none;stroke:#000000;stroke-linecap:square;stroke-linejoin:miter;stroke-width:0.8;"/>
   </g>
   <g id="patch_11">
    <path d="M 264.184052 22.318125 
L 456.597845 22.318125 
" style="fill:none;stroke:#000000;stroke-linecap:square;stroke-linejoin:miter;stroke-width:0.8;"/>
   </g>
   <g id="text_24">
    <!-- False Positives -->
    <g transform="translate(317.167511 16.318125)scale(0.12 -0.12)">
     <defs>
      <path d="M 9.8125 72.90625 
L 51.703125 72.90625 
L 51.703125 64.59375 
L 19.671875 64.59375 
L 19.671875 43.109375 
L 48.578125 43.109375 
L 48.578125 34.8125 
L 19.671875 34.8125 
L 19.671875 0 
L 9.8125 0 
z
" id="DejaVuSans-70"/>
      <path d="M 34.28125 27.484375 
Q 23.390625 27.484375 19.1875 25 
Q 14.984375 22.515625 14.984375 16.5 
Q 14.984375 11.71875 18.140625 8.90625 
Q 21.296875 6.109375 26.703125 6.109375 
Q 34.1875 6.109375 38.703125 11.40625 
Q 43.21875 16.703125 43.21875 25.484375 
L 43.21875 27.484375 
z
M 52.203125 31.203125 
L 52.203125 0 
L 43.21875 0 
L 43.21875 8.296875 
Q 40.140625 3.328125 35.546875 0.953125 
Q 30.953125 -1.421875 24.3125 -1.421875 
Q 15.921875 -1.421875 10.953125 3.296875 
Q 6 8.015625 6 15.921875 
Q 6 25.140625 12.171875 29.828125 
Q 18.359375 34.515625 30.609375 34.515625 
L 43.21875 34.515625 
L 43.21875 35.40625 
Q 43.21875 41.609375 39.140625 45 
Q 35.0625 48.390625 27.6875 48.390625 
Q 23 48.390625 18.546875 47.265625 
Q 14.109375 46.140625 10.015625 43.890625 
L 10.015625 52.203125 
Q 14.9375 54.109375 19.578125 55.046875 
Q 24.21875 56 28.609375 56 
Q 40.484375 56 46.34375 49.84375 
Q 52.203125 43.703125 52.203125 31.203125 
z
" id="DejaVuSans-97"/>
      <path d="M 9.421875 75.984375 
L 18.40625 75.984375 
L 18.40625 0 
L 9.421875 0 
z
" id="DejaVuSans-108"/>
     </defs>
     <use xlink:href="#DejaVuSans-70"/>
     <use x="48.394531" xlink:href="#DejaVuSans-97"/>
     <use x="109.673828" xlink:href="#DejaVuSans-108"/>
     <use x="137.457031" xlink:href="#DejaVuSans-115"/>
     <use x="189.556641" xlink:href="#DejaVuSans-101"/>
     <use x="251.080078" xlink:href="#DejaVuSans-32"/>
     <use x="282.867188" xlink:href="#DejaVuSans-80"/>
     <use x="339.544922" xlink:href="#DejaVuSans-111"/>
     <use x="400.726562" xlink:href="#DejaVuSans-115"/>
     <use x="452.826172" xlink:href="#DejaVuSans-105"/>
     <use x="480.609375" xlink:href="#DejaVuSans-116"/>
     <use x="519.818359" xlink:href="#DejaVuSans-105"/>
     <use x="547.601562" xlink:href="#DejaVuSans-118"/>
     <use x="606.78125" xlink:href="#DejaVuSans-101"/>
     <use x="668.304688" xlink:href="#DejaVuSans-115"/>
    </g>
   </g>
  </g>
  <g id="axes_3">
   <g id="patch_12">
    <path d="M 495.080603 219.990852 
L 687.494397 219.990852 
L 687.494397 22.318125 
L 495.080603 22.318125 
z
" style="fill:#ffffff;"/>
   </g>
   <g id="matplotlib.axis_5">
    <g id="xtick_9">
     <g id="line2d_27">
      <g>
       <use style="stroke:#000000;stroke-width:0.8;" x="503.826685" xlink:href="#m584d5198be" y="219.990852"/>
      </g>
     </g>
     <g id="text_25">
      <!-- 0 -->
      <g transform="translate(500.645435 234.58929)scale(0.1 -0.1)">
       <use xlink:href="#DejaVuSans-48"/>
      </g>
     </g>
    </g>
    <g id="xtick_10">
     <g id="line2d_28">
      <g>
       <use style="stroke:#000000;stroke-width:0.8;" x="549.858693" xlink:href="#m584d5198be" y="219.990852"/>
      </g>
     </g>
     <g id="text_26">
      <!-- 5 -->
      <g transform="translate(546.677443 234.58929)scale(0.1 -0.1)">
       <use xlink:href="#DejaVuSans-53"/>
      </g>
     </g>
    </g>
    <g id="xtick_11">
     <g id="line2d_29">
      <g>
       <use style="stroke:#000000;stroke-width:0.8;" x="595.890701" xlink:href="#m584d5198be" y="219.990852"/>
      </g>
     </g>
     <g id="text_27">
      <!-- 10 -->
      <g transform="translate(589.528201 234.58929)scale(0.1 -0.1)">
       <use xlink:href="#DejaVuSans-49"/>
       <use x="63.623047" xlink:href="#DejaVuSans-48"/>
      </g>
     </g>
    </g>
    <g id="xtick_12">
     <g id="line2d_30">
      <g>
       <use style="stroke:#000000;stroke-width:0.8;" x="641.922709" xlink:href="#m584d5198be" y="219.990852"/>
      </g>
     </g>
     <g id="text_28">
      <!-- 15 -->
      <g transform="translate(635.560209 234.58929)scale(0.1 -0.1)">
       <use xlink:href="#DejaVuSans-49"/>
       <use x="63.623047" xlink:href="#DejaVuSans-53"/>
      </g>
     </g>
    </g>
   </g>
   <g id="matplotlib.axis_6">
    <g id="ytick_15">
     <g id="line2d_31">
      <g>
       <use style="stroke:#000000;stroke-width:0.8;" x="495.080603" xlink:href="#mfef062ef7b" y="213.830263"/>
      </g>
     </g>
     <g id="text_29">
      <!-- 300000 -->
      <g transform="translate(449.905603 217.629482)scale(0.1 -0.1)">
       <use xlink:href="#DejaVuSans-51"/>
       <use x="63.623047" xlink:href="#DejaVuSans-48"/>
       <use x="127.246094" xlink:href="#DejaVuSans-48"/>
       <use x="190.869141" xlink:href="#DejaVuSans-48"/>
       <use x="254.492188" xlink:href="#DejaVuSans-48"/>
       <use x="318.115234" xlink:href="#DejaVuSans-48"/>
      </g>
     </g>
    </g>
    <g id="ytick_16">
     <g id="line2d_32">
      <g>
       <use style="stroke:#000000;stroke-width:0.8;" x="495.080603" xlink:href="#mfef062ef7b" y="182.736749"/>
      </g>
     </g>
     <g id="text_30">
      <!-- 350000 -->
      <g transform="translate(449.905603 186.535967)scale(0.1 -0.1)">
       <use xlink:href="#DejaVuSans-51"/>
       <use x="63.623047" xlink:href="#DejaVuSans-53"/>
       <use x="127.246094" xlink:href="#DejaVuSans-48"/>
       <use x="190.869141" xlink:href="#DejaVuSans-48"/>
       <use x="254.492188" xlink:href="#DejaVuSans-48"/>
       <use x="318.115234" xlink:href="#DejaVuSans-48"/>
      </g>
     </g>
    </g>
    <g id="ytick_17">
     <g id="line2d_33">
      <g>
       <use style="stroke:#000000;stroke-width:0.8;" x="495.080603" xlink:href="#mfef062ef7b" y="151.643234"/>
      </g>
     </g>
     <g id="text_31">
      <!-- 400000 -->
      <g transform="translate(449.905603 155.442453)scale(0.1 -0.1)">
       <use xlink:href="#DejaVuSans-52"/>
       <use x="63.623047" xlink:href="#DejaVuSans-48"/>
       <use x="127.246094" xlink:href="#DejaVuSans-48"/>
       <use x="190.869141" xlink:href="#DejaVuSans-48"/>
       <use x="254.492188" xlink:href="#DejaVuSans-48"/>
       <use x="318.115234" xlink:href="#DejaVuSans-48"/>
      </g>
     </g>
    </g>
    <g id="ytick_18">
     <g id="line2d_34">
      <g>
       <use style="stroke:#000000;stroke-width:0.8;" x="495.080603" xlink:href="#mfef062ef7b" y="120.54972"/>
      </g>
     </g>
     <g id="text_32">
      <!-- 450000 -->
      <g transform="translate(449.905603 124.348939)scale(0.1 -0.1)">
       <use xlink:href="#DejaVuSans-52"/>
       <use x="63.623047" xlink:href="#DejaVuSans-53"/>
       <use x="127.246094" xlink:href="#DejaVuSans-48"/>
       <use x="190.869141" xlink:href="#DejaVuSans-48"/>
       <use x="254.492188" xlink:href="#DejaVuSans-48"/>
       <use x="318.115234" xlink:href="#DejaVuSans-48"/>
      </g>
     </g>
    </g>
    <g id="ytick_19">
     <g id="line2d_35">
      <g>
       <use style="stroke:#000000;stroke-width:0.8;" x="495.080603" xlink:href="#mfef062ef7b" y="89.456205"/>
      </g>
     </g>
     <g id="text_33">
      <!-- 500000 -->
      <g transform="translate(449.905603 93.255424)scale(0.1 -0.1)">
       <use xlink:href="#DejaVuSans-53"/>
       <use x="63.623047" xlink:href="#DejaVuSans-48"/>
       <use x="127.246094" xlink:href="#DejaVuSans-48"/>
       <use x="190.869141" xlink:href="#DejaVuSans-48"/>
       <use x="254.492188" xlink:href="#DejaVuSans-48"/>
       <use x="318.115234" xlink:href="#DejaVuSans-48"/>
      </g>
     </g>
    </g>
    <g id="ytick_20">
     <g id="line2d_36">
      <g>
       <use style="stroke:#000000;stroke-width:0.8;" x="495.080603" xlink:href="#mfef062ef7b" y="58.362691"/>
      </g>
     </g>
     <g id="text_34">
      <!-- 550000 -->
      <g transform="translate(449.905603 62.16191)scale(0.1 -0.1)">
       <use xlink:href="#DejaVuSans-53"/>
       <use x="63.623047" xlink:href="#DejaVuSans-53"/>
       <use x="127.246094" xlink:href="#DejaVuSans-48"/>
       <use x="190.869141" xlink:href="#DejaVuSans-48"/>
       <use x="254.492188" xlink:href="#DejaVuSans-48"/>
       <use x="318.115234" xlink:href="#DejaVuSans-48"/>
      </g>
     </g>
    </g>
    <g id="ytick_21">
     <g id="line2d_37">
      <g>
       <use style="stroke:#000000;stroke-width:0.8;" x="495.080603" xlink:href="#mfef062ef7b" y="27.269176"/>
      </g>
     </g>
     <g id="text_35">
      <!-- 600000 -->
      <g transform="translate(449.905603 31.068395)scale(0.1 -0.1)">
       <defs>
        <path d="M 33.015625 40.375 
Q 26.375 40.375 22.484375 35.828125 
Q 18.609375 31.296875 18.609375 23.390625 
Q 18.609375 15.53125 22.484375 10.953125 
Q 26.375 6.390625 33.015625 6.390625 
Q 39.65625 6.390625 43.53125 10.953125 
Q 47.40625 15.53125 47.40625 23.390625 
Q 47.40625 31.296875 43.53125 35.828125 
Q 39.65625 40.375 33.015625 40.375 
z
M 52.59375 71.296875 
L 52.59375 62.3125 
Q 48.875 64.0625 45.09375 64.984375 
Q 41.3125 65.921875 37.59375 65.921875 
Q 27.828125 65.921875 22.671875 59.328125 
Q 17.53125 52.734375 16.796875 39.40625 
Q 19.671875 43.65625 24.015625 45.921875 
Q 28.375 48.1875 33.59375 48.1875 
Q 44.578125 48.1875 50.953125 41.515625 
Q 57.328125 34.859375 57.328125 23.390625 
Q 57.328125 12.15625 50.6875 5.359375 
Q 44.046875 -1.421875 33.015625 -1.421875 
Q 20.359375 -1.421875 13.671875 8.265625 
Q 6.984375 17.96875 6.984375 36.375 
Q 6.984375 53.65625 15.1875 63.9375 
Q 23.390625 74.21875 37.203125 74.21875 
Q 40.921875 74.21875 44.703125 73.484375 
Q 48.484375 72.75 52.59375 71.296875 
z
" id="DejaVuSans-54"/>
       </defs>
       <use xlink:href="#DejaVuSans-54"/>
       <use x="63.623047" xlink:href="#DejaVuSans-48"/>
       <use x="127.246094" xlink:href="#DejaVuSans-48"/>
       <use x="190.869141" xlink:href="#DejaVuSans-48"/>
       <use x="254.492188" xlink:href="#DejaVuSans-48"/>
       <use x="318.115234" xlink:href="#DejaVuSans-48"/>
      </g>
     </g>
    </g>
   </g>
   <g id="line2d_38">
    <path clip-path="url(#pcd7586c581)" d="M 503.826685 210.94976 
L 513.033087 210.934835 
L 522.239488 210.934835 
L 531.44589 210.934835 
L 540.652291 210.934835 
L 549.858693 210.936701 
L 559.065094 210.959088 
L 568.271496 210.962819 
L 577.477898 210.972147 
L 586.684299 210.987072 
L 595.890701 211.000131 
L 605.097102 210.998266 
L 614.303504 210.9964 
L 623.509906 210.9964 
L 632.716307 211.005728 
L 641.922709 211.000131 
L 651.12911 211.001997 
L 660.335512 211.001997 
L 669.541913 211.000131 
L 678.748315 211.001997 
" style="fill:none;stroke:#ff7f50;stroke-linecap:square;stroke-width:1.5;"/>
   </g>
   <g id="line2d_39">
    <path clip-path="url(#pcd7586c581)" d="M 503.826685 31.30698 
L 513.033087 31.303249 
L 522.239488 31.305736 
L 531.44589 31.309468 
L 540.652291 31.31693 
L 549.858693 31.349889 
L 559.065094 31.349267 
L 568.271496 31.361083 
L 577.477898 31.376008 
L 586.684299 31.389067 
L 595.890701 31.385958 
L 605.097102 31.38347 
L 614.303504 31.387823 
L 623.509906 31.411454 
L 632.716307 31.39653 
L 641.922709 31.39342 
L 651.12911 31.39342 
L 660.335512 31.392176 
L 669.541913 31.395286 
L 678.748315 31.398395 
" style="fill:none;stroke:#6495ed;stroke-linecap:square;stroke-width:1.5;"/>
   </g>
   <g id="patch_13">
    <path d="M 495.080603 219.990852 
L 495.080603 22.318125 
" style="fill:none;stroke:#000000;stroke-linecap:square;stroke-linejoin:miter;stroke-width:0.8;"/>
   </g>
   <g id="patch_14">
    <path d="M 687.494397 219.990852 
L 687.494397 22.318125 
" style="fill:none;stroke:#000000;stroke-linecap:square;stroke-linejoin:miter;stroke-width:0.8;"/>
   </g>
   <g id="patch_15">
    <path d="M 495.080603 219.990852 
L 687.494397 219.990852 
" style="fill:none;stroke:#000000;stroke-linecap:square;stroke-linejoin:miter;stroke-width:0.8;"/>
   </g>
   <g id="patch_16">
    <path d="M 495.080603 22.318125 
L 687.494397 22.318125 
" style="fill:none;stroke:#000000;stroke-linecap:square;stroke-linejoin:miter;stroke-width:0.8;"/>
   </g>
   <g id="text_36">
    <!-- True Negatives -->
    <g transform="translate(546.585625 16.318125)scale(0.12 -0.12)">
     <defs>
      <path d="M 9.8125 72.90625 
L 23.09375 72.90625 
L 55.421875 11.921875 
L 55.421875 72.90625 
L 64.984375 72.90625 
L 64.984375 0 
L 51.703125 0 
L 19.390625 60.984375 
L 19.390625 0 
L 9.8125 0 
z
" id="DejaVuSans-78"/>
      <path d="M 45.40625 27.984375 
Q 45.40625 37.75 41.375 43.109375 
Q 37.359375 48.484375 30.078125 48.484375 
Q 22.859375 48.484375 18.828125 43.109375 
Q 14.796875 37.75 14.796875 27.984375 
Q 14.796875 18.265625 18.828125 12.890625 
Q 22.859375 7.515625 30.078125 7.515625 
Q 37.359375 7.515625 41.375 12.890625 
Q 45.40625 18.265625 45.40625 27.984375 
z
M 54.390625 6.78125 
Q 54.390625 -7.171875 48.1875 -13.984375 
Q 42 -20.796875 29.203125 -20.796875 
Q 24.46875 -20.796875 20.265625 -20.09375 
Q 16.0625 -19.390625 12.109375 -17.921875 
L 12.109375 -9.1875 
Q 16.0625 -11.328125 19.921875 -12.34375 
Q 23.78125 -13.375 27.78125 -13.375 
Q 36.625 -13.375 41.015625 -8.765625 
Q 45.40625 -4.15625 45.40625 5.171875 
L 45.40625 9.625 
Q 42.625 4.78125 38.28125 2.390625 
Q 33.9375 0 27.875 0 
Q 17.828125 0 11.671875 7.65625 
Q 5.515625 15.328125 5.515625 27.984375 
Q 5.515625 40.671875 11.671875 48.328125 
Q 17.828125 56 27.875 56 
Q 33.9375 56 38.28125 53.609375 
Q 42.625 51.21875 45.40625 46.390625 
L 45.40625 54.6875 
L 54.390625 54.6875 
z
" id="DejaVuSans-103"/>
     </defs>
     <use xlink:href="#DejaVuSans-84"/>
     <use x="46.333984" xlink:href="#DejaVuSans-114"/>
     <use x="87.447266" xlink:href="#DejaVuSans-117"/>
     <use x="150.826172" xlink:href="#DejaVuSans-101"/>
     <use x="212.349609" xlink:href="#DejaVuSans-32"/>
     <use x="244.136719" xlink:href="#DejaVuSans-78"/>
     <use x="318.941406" xlink:href="#DejaVuSans-101"/>
     <use x="380.464844" xlink:href="#DejaVuSans-103"/>
     <use x="443.941406" xlink:href="#DejaVuSans-97"/>
     <use x="505.220703" xlink:href="#DejaVuSans-116"/>
     <use x="544.429688" xlink:href="#DejaVuSans-105"/>
     <use x="572.212891" xlink:href="#DejaVuSans-118"/>
     <use x="631.392578" xlink:href="#DejaVuSans-101"/>
     <use x="692.916016" xlink:href="#DejaVuSans-115"/>
    </g>
   </g>
  </g>
  <g id="axes_4">
   <g id="patch_17">
    <path d="M 725.977155 219.990852 
L 918.390948 219.990852 
L 918.390948 22.318125 
L 725.977155 22.318125 
z
" style="fill:#ffffff;"/>
   </g>
   <g id="matplotlib.axis_7">
    <g id="xtick_13">
     <g id="line2d_40">
      <g>
       <use style="stroke:#000000;stroke-width:0.8;" x="734.723237" xlink:href="#m584d5198be" y="219.990852"/>
      </g>
     </g>
     <g id="text_37">
      <!-- 0 -->
      <g transform="translate(731.541987 234.58929)scale(0.1 -0.1)">
       <use xlink:href="#DejaVuSans-48"/>
      </g>
     </g>
    </g>
    <g id="xtick_14">
     <g id="line2d_41">
      <g>
       <use style="stroke:#000000;stroke-width:0.8;" x="780.755245" xlink:href="#m584d5198be" y="219.990852"/>
      </g>
     </g>
     <g id="text_38">
      <!-- 5 -->
      <g transform="translate(777.573995 234.58929)scale(0.1 -0.1)">
       <use xlink:href="#DejaVuSans-53"/>
      </g>
     </g>
    </g>
    <g id="xtick_15">
     <g id="line2d_42">
      <g>
       <use style="stroke:#000000;stroke-width:0.8;" x="826.787253" xlink:href="#m584d5198be" y="219.990852"/>
      </g>
     </g>
     <g id="text_39">
      <!-- 10 -->
      <g transform="translate(820.424753 234.58929)scale(0.1 -0.1)">
       <use xlink:href="#DejaVuSans-49"/>
       <use x="63.623047" xlink:href="#DejaVuSans-48"/>
      </g>
     </g>
    </g>
    <g id="xtick_16">
     <g id="line2d_43">
      <g>
       <use style="stroke:#000000;stroke-width:0.8;" x="872.81926" xlink:href="#m584d5198be" y="219.990852"/>
      </g>
     </g>
     <g id="text_40">
      <!-- 15 -->
      <g transform="translate(866.45676 234.58929)scale(0.1 -0.1)">
       <use xlink:href="#DejaVuSans-49"/>
       <use x="63.623047" xlink:href="#DejaVuSans-53"/>
      </g>
     </g>
    </g>
   </g>
   <g id="matplotlib.axis_8">
    <g id="ytick_22">
     <g id="line2d_44">
      <g>
       <use style="stroke:#000000;stroke-width:0.8;" x="725.977155" xlink:href="#mfef062ef7b" y="180.833248"/>
      </g>
     </g>
     <g id="text_41">
      <!-- 3000 -->
      <g transform="translate(693.527155 184.632467)scale(0.1 -0.1)">
       <use xlink:href="#DejaVuSans-51"/>
       <use x="63.623047" xlink:href="#DejaVuSans-48"/>
       <use x="127.246094" xlink:href="#DejaVuSans-48"/>
       <use x="190.869141" xlink:href="#DejaVuSans-48"/>
      </g>
     </g>
    </g>
    <g id="ytick_23">
     <g id="line2d_45">
      <g>
       <use style="stroke:#000000;stroke-width:0.8;" x="725.977155" xlink:href="#mfef062ef7b" y="137.852507"/>
      </g>
     </g>
     <g id="text_42">
      <!-- 4000 -->
      <g transform="translate(693.527155 141.651725)scale(0.1 -0.1)">
       <use xlink:href="#DejaVuSans-52"/>
       <use x="63.623047" xlink:href="#DejaVuSans-48"/>
       <use x="127.246094" xlink:href="#DejaVuSans-48"/>
       <use x="190.869141" xlink:href="#DejaVuSans-48"/>
      </g>
     </g>
    </g>
    <g id="ytick_24">
     <g id="line2d_46">
      <g>
       <use style="stroke:#000000;stroke-width:0.8;" x="725.977155" xlink:href="#mfef062ef7b" y="94.871765"/>
      </g>
     </g>
     <g id="text_43">
      <!-- 5000 -->
      <g transform="translate(693.527155 98.670984)scale(0.1 -0.1)">
       <use xlink:href="#DejaVuSans-53"/>
       <use x="63.623047" xlink:href="#DejaVuSans-48"/>
       <use x="127.246094" xlink:href="#DejaVuSans-48"/>
       <use x="190.869141" xlink:href="#DejaVuSans-48"/>
      </g>
     </g>
    </g>
    <g id="ytick_25">
     <g id="line2d_47">
      <g>
       <use style="stroke:#000000;stroke-width:0.8;" x="725.977155" xlink:href="#mfef062ef7b" y="51.891024"/>
      </g>
     </g>
     <g id="text_44">
      <!-- 6000 -->
      <g transform="translate(693.527155 55.690243)scale(0.1 -0.1)">
       <use xlink:href="#DejaVuSans-54"/>
       <use x="63.623047" xlink:href="#DejaVuSans-48"/>
       <use x="127.246094" xlink:href="#DejaVuSans-48"/>
       <use x="190.869141" xlink:href="#DejaVuSans-48"/>
      </g>
     </g>
    </g>
   </g>
   <g id="line2d_48">
    <path clip-path="url(#p0cc26476cd)" d="M 734.723237 202.366599 
L 743.929638 200.432466 
L 753.13604 200.432466 
L 762.342441 200.432466 
L 771.548843 201.206119 
L 780.755245 202.108715 
L 789.961646 205.33227 
L 799.168048 206.234866 
L 808.374449 207.137462 
L 817.580851 208.168999 
L 826.787253 209.458422 
L 835.993654 209.587364 
L 845.200056 209.716306 
L 854.406457 210.232075 
L 863.612859 211.005728 
L 872.81926 210.747844 
L 882.025662 210.747844 
L 891.232064 210.618902 
L 900.438465 210.747844 
L 909.644867 210.876786 
" style="fill:none;stroke:#ff7f50;stroke-linecap:square;stroke-width:1.5;"/>
   </g>
   <g id="line2d_49">
    <path clip-path="url(#p0cc26476cd)" d="M 734.723237 31.303249 
L 743.929638 31.34623 
L 753.13604 31.776037 
L 762.342441 32.54969 
L 771.548843 34.26892 
L 780.755245 38.867859 
L 789.961646 40.114301 
L 799.168048 42.306319 
L 808.374449 45.143048 
L 817.580851 47.721892 
L 826.787253 47.678911 
L 835.993654 47.850834 
L 845.200056 48.882372 
L 854.406457 51.848043 
L 863.612859 50.343717 
L 872.81926 49.741987 
L 882.025662 49.398141 
L 891.232064 49.140257 
L 900.438465 49.31218 
L 909.644867 49.570064 
" style="fill:none;stroke:#6495ed;stroke-linecap:square;stroke-width:1.5;"/>
   </g>
   <g id="patch_18">
    <path d="M 725.977155 219.990852 
L 725.977155 22.318125 
" style="fill:none;stroke:#000000;stroke-linecap:square;stroke-linejoin:miter;stroke-width:0.8;"/>
   </g>
   <g id="patch_19">
    <path d="M 918.390948 219.990852 
L 918.390948 22.318125 
" style="fill:none;stroke:#000000;stroke-linecap:square;stroke-linejoin:miter;stroke-width:0.8;"/>
   </g>
   <g id="patch_20">
    <path d="M 725.977155 219.990852 
L 918.390948 219.990852 
" style="fill:none;stroke:#000000;stroke-linecap:square;stroke-linejoin:miter;stroke-width:0.8;"/>
   </g>
   <g id="patch_21">
    <path d="M 725.977155 22.318125 
L 918.390948 22.318125 
" style="fill:none;stroke:#000000;stroke-linecap:square;stroke-linejoin:miter;stroke-width:0.8;"/>
   </g>
   <g id="text_45">
    <!-- False Negatives -->
    <g transform="translate(775.158114 16.318125)scale(0.12 -0.12)">
     <use xlink:href="#DejaVuSans-70"/>
     <use x="48.394531" xlink:href="#DejaVuSans-97"/>
     <use x="109.673828" xlink:href="#DejaVuSans-108"/>
     <use x="137.457031" xlink:href="#DejaVuSans-115"/>
     <use x="189.556641" xlink:href="#DejaVuSans-101"/>
     <use x="251.080078" xlink:href="#DejaVuSans-32"/>
     <use x="282.867188" xlink:href="#DejaVuSans-78"/>
     <use x="357.671875" xlink:href="#DejaVuSans-101"/>
     <use x="419.195312" xlink:href="#DejaVuSans-103"/>
     <use x="482.671875" xlink:href="#DejaVuSans-97"/>
     <use x="543.951172" xlink:href="#DejaVuSans-116"/>
     <use x="583.160156" xlink:href="#DejaVuSans-105"/>
     <use x="610.943359" xlink:href="#DejaVuSans-118"/>
     <use x="670.123047" xlink:href="#DejaVuSans-101"/>
     <use x="731.646484" xlink:href="#DejaVuSans-115"/>
    </g>
   </g>
  </g>
  <g id="axes_5">
   <g id="patch_22">
    <path d="M 956.873707 219.990852 
L 1149.2875 219.990852 
L 1149.2875 22.318125 
L 956.873707 22.318125 
z
" style="fill:#ffffff;"/>
   </g>
   <g id="matplotlib.axis_9">
    <g id="xtick_17">
     <g id="line2d_50">
      <g>
       <use style="stroke:#000000;stroke-width:0.8;" x="965.619788" xlink:href="#m584d5198be" y="219.990852"/>
      </g>
     </g>
     <g id="text_46">
      <!-- 0 -->
      <g transform="translate(962.438538 234.58929)scale(0.1 -0.1)">
       <use xlink:href="#DejaVuSans-48"/>
      </g>
     </g>
    </g>
    <g id="xtick_18">
     <g id="line2d_51">
      <g>
       <use style="stroke:#000000;stroke-width:0.8;" x="1011.651796" xlink:href="#m584d5198be" y="219.990852"/>
      </g>
     </g>
     <g id="text_47">
      <!-- 5 -->
      <g transform="translate(1008.470546 234.58929)scale(0.1 -0.1)">
       <use xlink:href="#DejaVuSans-53"/>
      </g>
     </g>
    </g>
    <g id="xtick_19">
     <g id="line2d_52">
      <g>
       <use style="stroke:#000000;stroke-width:0.8;" x="1057.683804" xlink:href="#m584d5198be" y="219.990852"/>
      </g>
     </g>
     <g id="text_48">
      <!-- 10 -->
      <g transform="translate(1051.321304 234.58929)scale(0.1 -0.1)">
       <use xlink:href="#DejaVuSans-49"/>
       <use x="63.623047" xlink:href="#DejaVuSans-48"/>
      </g>
     </g>
    </g>
    <g id="xtick_20">
     <g id="line2d_53">
      <g>
       <use style="stroke:#000000;stroke-width:0.8;" x="1103.715812" xlink:href="#m584d5198be" y="219.990852"/>
      </g>
     </g>
     <g id="text_49">
      <!-- 15 -->
      <g transform="translate(1097.353312 234.58929)scale(0.1 -0.1)">
       <use xlink:href="#DejaVuSans-49"/>
       <use x="63.623047" xlink:href="#DejaVuSans-53"/>
      </g>
     </g>
    </g>
   </g>
   <g id="matplotlib.axis_10">
    <g id="ytick_26">
     <g id="line2d_54">
      <g>
       <use style="stroke:#000000;stroke-width:0.8;" x="956.873707" xlink:href="#mfef062ef7b" y="191.582646"/>
      </g>
     </g>
     <g id="text_50">
      <!-- 0.9895 -->
      <g transform="translate(914.883082 195.381865)scale(0.1 -0.1)">
       <defs>
        <path d="M 10.6875 12.40625 
L 21 12.40625 
L 21 0 
L 10.6875 0 
z
" id="DejaVuSans-46"/>
        <path d="M 10.984375 1.515625 
L 10.984375 10.5 
Q 14.703125 8.734375 18.5 7.8125 
Q 22.3125 6.890625 25.984375 6.890625 
Q 35.75 6.890625 40.890625 13.453125 
Q 46.046875 20.015625 46.78125 33.40625 
Q 43.953125 29.203125 39.59375 26.953125 
Q 35.25 24.703125 29.984375 24.703125 
Q 19.046875 24.703125 12.671875 31.3125 
Q 6.296875 37.9375 6.296875 49.421875 
Q 6.296875 60.640625 12.9375 67.421875 
Q 19.578125 74.21875 30.609375 74.21875 
Q 43.265625 74.21875 49.921875 64.515625 
Q 56.59375 54.828125 56.59375 36.375 
Q 56.59375 19.140625 48.40625 8.859375 
Q 40.234375 -1.421875 26.421875 -1.421875 
Q 22.703125 -1.421875 18.890625 -0.6875 
Q 15.09375 0.046875 10.984375 1.515625 
z
M 30.609375 32.421875 
Q 37.25 32.421875 41.125 36.953125 
Q 45.015625 41.5 45.015625 49.421875 
Q 45.015625 57.28125 41.125 61.84375 
Q 37.25 66.40625 30.609375 66.40625 
Q 23.96875 66.40625 20.09375 61.84375 
Q 16.21875 57.28125 16.21875 49.421875 
Q 16.21875 41.5 20.09375 36.953125 
Q 23.96875 32.421875 30.609375 32.421875 
z
" id="DejaVuSans-57"/>
        <path d="M 31.78125 34.625 
Q 24.75 34.625 20.71875 30.859375 
Q 16.703125 27.09375 16.703125 20.515625 
Q 16.703125 13.921875 20.71875 10.15625 
Q 24.75 6.390625 31.78125 6.390625 
Q 38.8125 6.390625 42.859375 10.171875 
Q 46.921875 13.96875 46.921875 20.515625 
Q 46.921875 27.09375 42.890625 30.859375 
Q 38.875 34.625 31.78125 34.625 
z
M 21.921875 38.8125 
Q 15.578125 40.375 12.03125 44.71875 
Q 8.5 49.078125 8.5 55.328125 
Q 8.5 64.0625 14.71875 69.140625 
Q 20.953125 74.21875 31.78125 74.21875 
Q 42.671875 74.21875 48.875 69.140625 
Q 55.078125 64.0625 55.078125 55.328125 
Q 55.078125 49.078125 51.53125 44.71875 
Q 48 40.375 41.703125 38.8125 
Q 48.828125 37.15625 52.796875 32.3125 
Q 56.78125 27.484375 56.78125 20.515625 
Q 56.78125 9.90625 50.3125 4.234375 
Q 43.84375 -1.421875 31.78125 -1.421875 
Q 19.734375 -1.421875 13.25 4.234375 
Q 6.78125 9.90625 6.78125 20.515625 
Q 6.78125 27.484375 10.78125 32.3125 
Q 14.796875 37.15625 21.921875 38.8125 
z
M 18.3125 54.390625 
Q 18.3125 48.734375 21.84375 45.5625 
Q 25.390625 42.390625 31.78125 42.390625 
Q 38.140625 42.390625 41.71875 45.5625 
Q 45.3125 48.734375 45.3125 54.390625 
Q 45.3125 60.0625 41.71875 63.234375 
Q 38.140625 66.40625 31.78125 66.40625 
Q 25.390625 66.40625 21.84375 63.234375 
Q 18.3125 60.0625 18.3125 54.390625 
z
" id="DejaVuSans-56"/>
       </defs>
       <use xlink:href="#DejaVuSans-48"/>
       <use x="63.623047" xlink:href="#DejaVuSans-46"/>
       <use x="95.410156" xlink:href="#DejaVuSans-57"/>
       <use x="159.033203" xlink:href="#DejaVuSans-56"/>
       <use x="222.65625" xlink:href="#DejaVuSans-57"/>
       <use x="286.279297" xlink:href="#DejaVuSans-53"/>
      </g>
     </g>
    </g>
    <g id="ytick_27">
     <g id="line2d_55">
      <g>
       <use style="stroke:#000000;stroke-width:0.8;" x="956.873707" xlink:href="#mfef062ef7b" y="160.754743"/>
      </g>
     </g>
     <g id="text_51">
      <!-- 0.9900 -->
      <g transform="translate(914.883082 164.553961)scale(0.1 -0.1)">
       <use xlink:href="#DejaVuSans-48"/>
       <use x="63.623047" xlink:href="#DejaVuSans-46"/>
       <use x="95.410156" xlink:href="#DejaVuSans-57"/>
       <use x="159.033203" xlink:href="#DejaVuSans-57"/>
       <use x="222.65625" xlink:href="#DejaVuSans-48"/>
       <use x="286.279297" xlink:href="#DejaVuSans-48"/>
      </g>
     </g>
    </g>
    <g id="ytick_28">
     <g id="line2d_56">
      <g>
       <use style="stroke:#000000;stroke-width:0.8;" x="956.873707" xlink:href="#mfef062ef7b" y="129.926839"/>
      </g>
     </g>
     <g id="text_52">
      <!-- 0.9905 -->
      <g transform="translate(914.883082 133.726058)scale(0.1 -0.1)">
       <use xlink:href="#DejaVuSans-48"/>
       <use x="63.623047" xlink:href="#DejaVuSans-46"/>
       <use x="95.410156" xlink:href="#DejaVuSans-57"/>
       <use x="159.033203" xlink:href="#DejaVuSans-57"/>
       <use x="222.65625" xlink:href="#DejaVuSans-48"/>
       <use x="286.279297" xlink:href="#DejaVuSans-53"/>
      </g>
     </g>
    </g>
    <g id="ytick_29">
     <g id="line2d_57">
      <g>
       <use style="stroke:#000000;stroke-width:0.8;" x="956.873707" xlink:href="#mfef062ef7b" y="99.098935"/>
      </g>
     </g>
     <g id="text_53">
      <!-- 0.9910 -->
      <g transform="translate(914.883082 102.898154)scale(0.1 -0.1)">
       <use xlink:href="#DejaVuSans-48"/>
       <use x="63.623047" xlink:href="#DejaVuSans-46"/>
       <use x="95.410156" xlink:href="#DejaVuSans-57"/>
       <use x="159.033203" xlink:href="#DejaVuSans-57"/>
       <use x="222.65625" xlink:href="#DejaVuSans-49"/>
       <use x="286.279297" xlink:href="#DejaVuSans-48"/>
      </g>
     </g>
    </g>
    <g id="ytick_30">
     <g id="line2d_58">
      <g>
       <use style="stroke:#000000;stroke-width:0.8;" x="956.873707" xlink:href="#mfef062ef7b" y="68.271032"/>
      </g>
     </g>
     <g id="text_54">
      <!-- 0.9915 -->
      <g transform="translate(914.883082 72.070251)scale(0.1 -0.1)">
       <use xlink:href="#DejaVuSans-48"/>
       <use x="63.623047" xlink:href="#DejaVuSans-46"/>
       <use x="95.410156" xlink:href="#DejaVuSans-57"/>
       <use x="159.033203" xlink:href="#DejaVuSans-57"/>
       <use x="222.65625" xlink:href="#DejaVuSans-49"/>
       <use x="286.279297" xlink:href="#DejaVuSans-53"/>
      </g>
     </g>
    </g>
    <g id="ytick_31">
     <g id="line2d_59">
      <g>
       <use style="stroke:#000000;stroke-width:0.8;" x="956.873707" xlink:href="#mfef062ef7b" y="37.443128"/>
      </g>
     </g>
     <g id="text_55">
      <!-- 0.9920 -->
      <g transform="translate(914.883082 41.242347)scale(0.1 -0.1)">
       <use xlink:href="#DejaVuSans-48"/>
       <use x="63.623047" xlink:href="#DejaVuSans-46"/>
       <use x="95.410156" xlink:href="#DejaVuSans-57"/>
       <use x="159.033203" xlink:href="#DejaVuSans-57"/>
       <use x="222.65625" xlink:href="#DejaVuSans-50"/>
       <use x="286.279297" xlink:href="#DejaVuSans-48"/>
      </g>
     </g>
    </g>
   </g>
   <g id="line2d_60">
    <path clip-path="url(#pf7b284769e)" d="M 965.619788 50.567455 
L 974.82619 54.782648 
L 984.032592 54.782648 
L 993.238993 54.782648 
L 1002.445395 51.17015 
L 1011.651796 47.557652 
L 1020.858198 39.729961 
L 1030.064599 36.720158 
L 1039.271001 35.514767 
L 1048.477403 37.322854 
L 1057.683804 36.117463 
L 1066.890206 35.514767 
L 1076.096607 34.313051 
L 1085.303009 31.902269 
L 1094.509411 31.902269 
L 1103.715812 31.303249 
L 1112.922214 31.902269 
L 1122.128615 32.504965 
L 1131.335017 31.303249 
L 1140.541418 31.303249 
" style="fill:none;stroke:#ff7f50;stroke-linecap:square;stroke-width:1.5;"/>
   </g>
   <g id="line2d_61">
    <path clip-path="url(#pf7b284769e)" d="M 965.619788 211.005728 
L 974.82619 210.182534 
L 984.032592 209.668038 
L 993.238993 208.639046 
L 1002.445395 206.378938 
L 1011.651796 201.138427 
L 1020.858198 198.260924 
L 1030.064599 195.280521 
L 1039.271001 191.3777 
L 1048.477403 188.0886 
L 1057.683804 187.779902 
L 1066.890206 187.162507 
L 1076.096607 185.725593 
L 1085.303009 182.950988 
L 1094.509411 184.08288 
L 1103.715812 185.005298 
L 1112.922214 185.725593 
L 1122.128615 186.240089 
L 1131.335017 186.342988 
L 1140.541418 186.240089 
" style="fill:none;stroke:#6495ed;stroke-linecap:square;stroke-width:1.5;"/>
   </g>
   <g id="patch_23">
    <path d="M 956.873707 219.990852 
L 956.873707 22.318125 
" style="fill:none;stroke:#000000;stroke-linecap:square;stroke-linejoin:miter;stroke-width:0.8;"/>
   </g>
   <g id="patch_24">
    <path d="M 1149.2875 219.990852 
L 1149.2875 22.318125 
" style="fill:none;stroke:#000000;stroke-linecap:square;stroke-linejoin:miter;stroke-width:0.8;"/>
   </g>
   <g id="patch_25">
    <path d="M 956.873707 219.990852 
L 1149.2875 219.990852 
" style="fill:none;stroke:#000000;stroke-linecap:square;stroke-linejoin:miter;stroke-width:0.8;"/>
   </g>
   <g id="patch_26">
    <path d="M 956.873707 22.318125 
L 1149.2875 22.318125 
" style="fill:none;stroke:#000000;stroke-linecap:square;stroke-linejoin:miter;stroke-width:0.8;"/>
   </g>
   <g id="text_56">
    <!-- BinaryAccuracy -->
    <g transform="translate(1006.406228 16.318125)scale(0.12 -0.12)">
     <defs>
      <path d="M 19.671875 34.8125 
L 19.671875 8.109375 
L 35.5 8.109375 
Q 43.453125 8.109375 47.28125 11.40625 
Q 51.125 14.703125 51.125 21.484375 
Q 51.125 28.328125 47.28125 31.5625 
Q 43.453125 34.8125 35.5 34.8125 
z
M 19.671875 64.796875 
L 19.671875 42.828125 
L 34.28125 42.828125 
Q 41.5 42.828125 45.03125 45.53125 
Q 48.578125 48.25 48.578125 53.8125 
Q 48.578125 59.328125 45.03125 62.0625 
Q 41.5 64.796875 34.28125 64.796875 
z
M 9.8125 72.90625 
L 35.015625 72.90625 
Q 46.296875 72.90625 52.390625 68.21875 
Q 58.5 63.53125 58.5 54.890625 
Q 58.5 48.1875 55.375 44.234375 
Q 52.25 40.28125 46.1875 39.3125 
Q 53.46875 37.75 57.5 32.78125 
Q 61.53125 27.828125 61.53125 20.40625 
Q 61.53125 10.640625 54.890625 5.3125 
Q 48.25 0 35.984375 0 
L 9.8125 0 
z
" id="DejaVuSans-66"/>
      <path d="M 54.890625 33.015625 
L 54.890625 0 
L 45.90625 0 
L 45.90625 32.71875 
Q 45.90625 40.484375 42.875 44.328125 
Q 39.84375 48.1875 33.796875 48.1875 
Q 26.515625 48.1875 22.3125 43.546875 
Q 18.109375 38.921875 18.109375 30.90625 
L 18.109375 0 
L 9.078125 0 
L 9.078125 54.6875 
L 18.109375 54.6875 
L 18.109375 46.1875 
Q 21.34375 51.125 25.703125 53.5625 
Q 30.078125 56 35.796875 56 
Q 45.21875 56 50.046875 50.171875 
Q 54.890625 44.34375 54.890625 33.015625 
z
" id="DejaVuSans-110"/>
      <path d="M 32.171875 -5.078125 
Q 28.375 -14.84375 24.75 -17.8125 
Q 21.140625 -20.796875 15.09375 -20.796875 
L 7.90625 -20.796875 
L 7.90625 -13.28125 
L 13.1875 -13.28125 
Q 16.890625 -13.28125 18.9375 -11.515625 
Q 21 -9.765625 23.484375 -3.21875 
L 25.09375 0.875 
L 2.984375 54.6875 
L 12.5 54.6875 
L 29.59375 11.921875 
L 46.6875 54.6875 
L 56.203125 54.6875 
z
" id="DejaVuSans-121"/>
      <path d="M 34.1875 63.1875 
L 20.796875 26.90625 
L 47.609375 26.90625 
z
M 28.609375 72.90625 
L 39.796875 72.90625 
L 67.578125 0 
L 57.328125 0 
L 50.6875 18.703125 
L 17.828125 18.703125 
L 11.1875 0 
L 0.78125 0 
z
" id="DejaVuSans-65"/>
      <path d="M 48.78125 52.59375 
L 48.78125 44.1875 
Q 44.96875 46.296875 41.140625 47.34375 
Q 37.3125 48.390625 33.40625 48.390625 
Q 24.65625 48.390625 19.8125 42.84375 
Q 14.984375 37.3125 14.984375 27.296875 
Q 14.984375 17.28125 19.8125 11.734375 
Q 24.65625 6.203125 33.40625 6.203125 
Q 37.3125 6.203125 41.140625 7.25 
Q 44.96875 8.296875 48.78125 10.40625 
L 48.78125 2.09375 
Q 45.015625 0.34375 40.984375 -0.53125 
Q 36.96875 -1.421875 32.421875 -1.421875 
Q 20.0625 -1.421875 12.78125 6.34375 
Q 5.515625 14.109375 5.515625 27.296875 
Q 5.515625 40.671875 12.859375 48.328125 
Q 20.21875 56 33.015625 56 
Q 37.15625 56 41.109375 55.140625 
Q 45.0625 54.296875 48.78125 52.59375 
z
" id="DejaVuSans-99"/>
     </defs>
     <use xlink:href="#DejaVuSans-66"/>
     <use x="68.603516" xlink:href="#DejaVuSans-105"/>
     <use x="96.386719" xlink:href="#DejaVuSans-110"/>
     <use x="159.765625" xlink:href="#DejaVuSans-97"/>
     <use x="221.044922" xlink:href="#DejaVuSans-114"/>
     <use x="262.158203" xlink:href="#DejaVuSans-121"/>
     <use x="321.337891" xlink:href="#DejaVuSans-65"/>
     <use x="387.996094" xlink:href="#DejaVuSans-99"/>
     <use x="442.976562" xlink:href="#DejaVuSans-99"/>
     <use x="497.957031" xlink:href="#DejaVuSans-117"/>
     <use x="561.335938" xlink:href="#DejaVuSans-114"/>
     <use x="602.449219" xlink:href="#DejaVuSans-97"/>
     <use x="663.728516" xlink:href="#DejaVuSans-99"/>
     <use x="718.708984" xlink:href="#DejaVuSans-121"/>
    </g>
   </g>
  </g>
  <g id="axes_6">
   <g id="patch_27">
    <path d="M 33.2875 457.198125 
L 225.701293 457.198125 
L 225.701293 259.525398 
L 33.2875 259.525398 
z
" style="fill:#ffffff;"/>
   </g>
   <g id="matplotlib.axis_11">
    <g id="xtick_21">
     <g id="line2d_62">
      <g>
       <use style="stroke:#000000;stroke-width:0.8;" x="42.033582" xlink:href="#m584d5198be" y="457.198125"/>
      </g>
     </g>
     <g id="text_57">
      <!-- 0 -->
      <g transform="translate(38.852332 471.796562)scale(0.1 -0.1)">
       <use xlink:href="#DejaVuSans-48"/>
      </g>
     </g>
    </g>
    <g id="xtick_22">
     <g id="line2d_63">
      <g>
       <use style="stroke:#000000;stroke-width:0.8;" x="88.065589" xlink:href="#m584d5198be" y="457.198125"/>
      </g>
     </g>
     <g id="text_58">
      <!-- 5 -->
      <g transform="translate(84.884339 471.796562)scale(0.1 -0.1)">
       <use xlink:href="#DejaVuSans-53"/>
      </g>
     </g>
    </g>
    <g id="xtick_23">
     <g id="line2d_64">
      <g>
       <use style="stroke:#000000;stroke-width:0.8;" x="134.097597" xlink:href="#m584d5198be" y="457.198125"/>
      </g>
     </g>
     <g id="text_59">
      <!-- 10 -->
      <g transform="translate(127.735097 471.796562)scale(0.1 -0.1)">
       <use xlink:href="#DejaVuSans-49"/>
       <use x="63.623047" xlink:href="#DejaVuSans-48"/>
      </g>
     </g>
    </g>
    <g id="xtick_24">
     <g id="line2d_65">
      <g>
       <use style="stroke:#000000;stroke-width:0.8;" x="180.129605" xlink:href="#m584d5198be" y="457.198125"/>
      </g>
     </g>
     <g id="text_60">
      <!-- 15 -->
      <g transform="translate(173.767105 471.796562)scale(0.1 -0.1)">
       <use xlink:href="#DejaVuSans-49"/>
       <use x="63.623047" xlink:href="#DejaVuSans-53"/>
      </g>
     </g>
    </g>
   </g>
   <g id="matplotlib.axis_12">
    <g id="ytick_32">
     <g id="line2d_66">
      <g>
       <use style="stroke:#000000;stroke-width:0.8;" x="33.2875" xlink:href="#mfef062ef7b" y="448.213001"/>
      </g>
     </g>
     <g id="text_61">
      <!-- 0.0 -->
      <g transform="translate(10.384375 452.01222)scale(0.1 -0.1)">
       <use xlink:href="#DejaVuSans-48"/>
       <use x="63.623047" xlink:href="#DejaVuSans-46"/>
       <use x="95.410156" xlink:href="#DejaVuSans-48"/>
      </g>
     </g>
    </g>
    <g id="ytick_33">
     <g id="line2d_67">
      <g>
       <use style="stroke:#000000;stroke-width:0.8;" x="33.2875" xlink:href="#mfef062ef7b" y="412.272505"/>
      </g>
     </g>
     <g id="text_62">
      <!-- 0.2 -->
      <g transform="translate(10.384375 416.071724)scale(0.1 -0.1)">
       <use xlink:href="#DejaVuSans-48"/>
       <use x="63.623047" xlink:href="#DejaVuSans-46"/>
       <use x="95.410156" xlink:href="#DejaVuSans-50"/>
      </g>
     </g>
    </g>
    <g id="ytick_34">
     <g id="line2d_68">
      <g>
       <use style="stroke:#000000;stroke-width:0.8;" x="33.2875" xlink:href="#mfef062ef7b" y="376.332009"/>
      </g>
     </g>
     <g id="text_63">
      <!-- 0.4 -->
      <g transform="translate(10.384375 380.131228)scale(0.1 -0.1)">
       <use xlink:href="#DejaVuSans-48"/>
       <use x="63.623047" xlink:href="#DejaVuSans-46"/>
       <use x="95.410156" xlink:href="#DejaVuSans-52"/>
      </g>
     </g>
    </g>
    <g id="ytick_35">
     <g id="line2d_69">
      <g>
       <use style="stroke:#000000;stroke-width:0.8;" x="33.2875" xlink:href="#mfef062ef7b" y="340.391513"/>
      </g>
     </g>
     <g id="text_64">
      <!-- 0.6 -->
      <g transform="translate(10.384375 344.190732)scale(0.1 -0.1)">
       <use xlink:href="#DejaVuSans-48"/>
       <use x="63.623047" xlink:href="#DejaVuSans-46"/>
       <use x="95.410156" xlink:href="#DejaVuSans-54"/>
      </g>
     </g>
    </g>
    <g id="ytick_36">
     <g id="line2d_70">
      <g>
       <use style="stroke:#000000;stroke-width:0.8;" x="33.2875" xlink:href="#mfef062ef7b" y="304.451018"/>
      </g>
     </g>
     <g id="text_65">
      <!-- 0.8 -->
      <g transform="translate(10.384375 308.250236)scale(0.1 -0.1)">
       <use xlink:href="#DejaVuSans-48"/>
       <use x="63.623047" xlink:href="#DejaVuSans-46"/>
       <use x="95.410156" xlink:href="#DejaVuSans-56"/>
      </g>
     </g>
    </g>
    <g id="ytick_37">
     <g id="line2d_71">
      <g>
       <use style="stroke:#000000;stroke-width:0.8;" x="33.2875" xlink:href="#mfef062ef7b" y="268.510522"/>
      </g>
     </g>
     <g id="text_66">
      <!-- 1.0 -->
      <g transform="translate(10.384375 272.30974)scale(0.1 -0.1)">
       <use xlink:href="#DejaVuSans-49"/>
       <use x="63.623047" xlink:href="#DejaVuSans-46"/>
       <use x="95.410156" xlink:href="#DejaVuSans-48"/>
      </g>
     </g>
    </g>
   </g>
   <g id="line2d_72">
    <path clip-path="url(#p440df6e6ad)" d="M 42.033582 331.015728 
L 51.239983 448.213001 
L 60.446385 448.213001 
L 69.652786 448.213001 
L 78.859188 268.510522 
L 88.065589 281.346418 
L 97.271991 314.317033 
L 106.478393 313.436142 
L 115.684794 318.427879 
L 124.891196 325.688582 
L 134.097597 328.411345 
L 143.303999 326.699892 
L 152.510401 324.98844 
L 161.716802 322.915864 
L 170.923204 325.416306 
L 180.129605 323.202578 
L 189.336007 324.280254 
L 198.542408 324.76521 
L 207.74881 323.202578 
L 216.955212 323.803589 
" style="fill:none;stroke:#ff7f50;stroke-linecap:square;stroke-width:1.5;"/>
   </g>
   <g id="line2d_73">
    <path clip-path="url(#p440df6e6ad)" d="M 42.033582 384.033543 
L 51.239983 328.411345 
L 60.446385 323.202578 
L 69.652786 318.215468 
L 78.859188 313.889939 
L 88.065589 322.629416 
L 97.271991 316.723379 
L 106.478393 316.833875 
L 115.684794 316.752802 
L 124.891196 316.499249 
L 134.097597 315.329554 
L 143.303999 313.952524 
L 152.510401 313.679862 
L 161.716802 316.703456 
L 170.923204 314.258411 
L 180.129605 314.208059 
L 189.336007 314.844962 
L 198.542408 314.864874 
L 207.74881 315.701957 
L 216.955212 316.349411 
" style="fill:none;stroke:#6495ed;stroke-linecap:square;stroke-width:1.5;"/>
   </g>
   <g id="patch_28">
    <path d="M 33.2875 457.198125 
L 33.2875 259.525398 
" style="fill:none;stroke:#000000;stroke-linecap:square;stroke-linejoin:miter;stroke-width:0.8;"/>
   </g>
   <g id="patch_29">
    <path d="M 225.701293 457.198125 
L 225.701293 259.525398 
" style="fill:none;stroke:#000000;stroke-linecap:square;stroke-linejoin:miter;stroke-width:0.8;"/>
   </g>
   <g id="patch_30">
    <path d="M 33.2875 457.198125 
L 225.701293 457.198125 
" style="fill:none;stroke:#000000;stroke-linecap:square;stroke-linejoin:miter;stroke-width:0.8;"/>
   </g>
   <g id="patch_31">
    <path d="M 33.2875 259.525398 
L 225.701293 259.525398 
" style="fill:none;stroke:#000000;stroke-linecap:square;stroke-linejoin:miter;stroke-width:0.8;"/>
   </g>
   <g id="text_67">
    <!-- Precision -->
    <g transform="translate(102.725959 253.525398)scale(0.12 -0.12)">
     <use xlink:href="#DejaVuSans-80"/>
     <use x="58.552734" xlink:href="#DejaVuSans-114"/>
     <use x="97.416016" xlink:href="#DejaVuSans-101"/>
     <use x="158.939453" xlink:href="#DejaVuSans-99"/>
     <use x="213.919922" xlink:href="#DejaVuSans-105"/>
     <use x="241.703125" xlink:href="#DejaVuSans-115"/>
     <use x="293.802734" xlink:href="#DejaVuSans-105"/>
     <use x="321.585938" xlink:href="#DejaVuSans-111"/>
     <use x="382.767578" xlink:href="#DejaVuSans-110"/>
    </g>
   </g>
  </g>
  <g id="axes_7">
   <g id="patch_32">
    <path d="M 264.184052 457.198125 
L 456.597845 457.198125 
L 456.597845 259.525398 
L 264.184052 259.525398 
z
" style="fill:#ffffff;"/>
   </g>
   <g id="matplotlib.axis_13">
    <g id="xtick_25">
     <g id="line2d_74">
      <g>
       <use style="stroke:#000000;stroke-width:0.8;" x="272.930133" xlink:href="#m584d5198be" y="457.198125"/>
      </g>
     </g>
     <g id="text_68">
      <!-- 0 -->
      <g transform="translate(269.748883 471.796562)scale(0.1 -0.1)">
       <use xlink:href="#DejaVuSans-48"/>
      </g>
     </g>
    </g>
    <g id="xtick_26">
     <g id="line2d_75">
      <g>
       <use style="stroke:#000000;stroke-width:0.8;" x="318.962141" xlink:href="#m584d5198be" y="457.198125"/>
      </g>
     </g>
     <g id="text_69">
      <!-- 5 -->
      <g transform="translate(315.780891 471.796562)scale(0.1 -0.1)">
       <use xlink:href="#DejaVuSans-53"/>
      </g>
     </g>
    </g>
    <g id="xtick_27">
     <g id="line2d_76">
      <g>
       <use style="stroke:#000000;stroke-width:0.8;" x="364.994149" xlink:href="#m584d5198be" y="457.198125"/>
      </g>
     </g>
     <g id="text_70">
      <!-- 10 -->
      <g transform="translate(358.631649 471.796562)scale(0.1 -0.1)">
       <use xlink:href="#DejaVuSans-49"/>
       <use x="63.623047" xlink:href="#DejaVuSans-48"/>
      </g>
     </g>
    </g>
    <g id="xtick_28">
     <g id="line2d_77">
      <g>
       <use style="stroke:#000000;stroke-width:0.8;" x="411.026157" xlink:href="#m584d5198be" y="457.198125"/>
      </g>
     </g>
     <g id="text_71">
      <!-- 15 -->
      <g transform="translate(404.663657 471.796562)scale(0.1 -0.1)">
       <use xlink:href="#DejaVuSans-49"/>
       <use x="63.623047" xlink:href="#DejaVuSans-53"/>
      </g>
     </g>
    </g>
   </g>
   <g id="matplotlib.axis_14">
    <g id="ytick_38">
     <g id="line2d_78">
      <g>
       <use style="stroke:#000000;stroke-width:0.8;" x="264.184052" xlink:href="#mfef062ef7b" y="448.213001"/>
      </g>
     </g>
     <g id="text_72">
      <!-- 0.00 -->
      <g transform="translate(234.918427 452.01222)scale(0.1 -0.1)">
       <use xlink:href="#DejaVuSans-48"/>
       <use x="63.623047" xlink:href="#DejaVuSans-46"/>
       <use x="95.410156" xlink:href="#DejaVuSans-48"/>
       <use x="159.033203" xlink:href="#DejaVuSans-48"/>
      </g>
     </g>
    </g>
    <g id="ytick_39">
     <g id="line2d_79">
      <g>
       <use style="stroke:#000000;stroke-width:0.8;" x="264.184052" xlink:href="#mfef062ef7b" y="411.045269"/>
      </g>
     </g>
     <g id="text_73">
      <!-- 0.02 -->
      <g transform="translate(234.918427 414.844487)scale(0.1 -0.1)">
       <use xlink:href="#DejaVuSans-48"/>
       <use x="63.623047" xlink:href="#DejaVuSans-46"/>
       <use x="95.410156" xlink:href="#DejaVuSans-48"/>
       <use x="159.033203" xlink:href="#DejaVuSans-50"/>
      </g>
     </g>
    </g>
    <g id="ytick_40">
     <g id="line2d_80">
      <g>
       <use style="stroke:#000000;stroke-width:0.8;" x="264.184052" xlink:href="#mfef062ef7b" y="373.877536"/>
      </g>
     </g>
     <g id="text_74">
      <!-- 0.04 -->
      <g transform="translate(234.918427 377.676755)scale(0.1 -0.1)">
       <use xlink:href="#DejaVuSans-48"/>
       <use x="63.623047" xlink:href="#DejaVuSans-46"/>
       <use x="95.410156" xlink:href="#DejaVuSans-48"/>
       <use x="159.033203" xlink:href="#DejaVuSans-52"/>
      </g>
     </g>
    </g>
    <g id="ytick_41">
     <g id="line2d_81">
      <g>
       <use style="stroke:#000000;stroke-width:0.8;" x="264.184052" xlink:href="#mfef062ef7b" y="336.709804"/>
      </g>
     </g>
     <g id="text_75">
      <!-- 0.06 -->
      <g transform="translate(234.918427 340.509022)scale(0.1 -0.1)">
       <use xlink:href="#DejaVuSans-48"/>
       <use x="63.623047" xlink:href="#DejaVuSans-46"/>
       <use x="95.410156" xlink:href="#DejaVuSans-48"/>
       <use x="159.033203" xlink:href="#DejaVuSans-54"/>
      </g>
     </g>
    </g>
    <g id="ytick_42">
     <g id="line2d_82">
      <g>
       <use style="stroke:#000000;stroke-width:0.8;" x="264.184052" xlink:href="#mfef062ef7b" y="299.542071"/>
      </g>
     </g>
     <g id="text_76">
      <!-- 0.08 -->
      <g transform="translate(234.918427 303.34129)scale(0.1 -0.1)">
       <use xlink:href="#DejaVuSans-48"/>
       <use x="63.623047" xlink:href="#DejaVuSans-46"/>
       <use x="95.410156" xlink:href="#DejaVuSans-48"/>
       <use x="159.033203" xlink:href="#DejaVuSans-56"/>
      </g>
     </g>
    </g>
    <g id="ytick_43">
     <g id="line2d_83">
      <g>
       <use style="stroke:#000000;stroke-width:0.8;" x="264.184052" xlink:href="#mfef062ef7b" y="262.374339"/>
      </g>
     </g>
     <g id="text_77">
      <!-- 0.10 -->
      <g transform="translate(234.918427 266.173557)scale(0.1 -0.1)">
       <use xlink:href="#DejaVuSans-48"/>
       <use x="63.623047" xlink:href="#DejaVuSans-46"/>
       <use x="95.410156" xlink:href="#DejaVuSans-49"/>
       <use x="159.033203" xlink:href="#DejaVuSans-48"/>
      </g>
     </g>
    </g>
   </g>
   <g id="line2d_84">
    <path clip-path="url(#p641a5db984)" d="M 272.930133 415.340597 
L 282.136535 448.213001 
L 291.342936 448.213001 
L 300.549338 448.213001 
L 309.75574 435.064039 
L 318.962141 419.723583 
L 328.168543 364.936244 
L 337.374944 349.595787 
L 346.581346 334.255329 
L 355.787747 316.723386 
L 364.994149 294.808439 
L 374.200551 292.616954 
L 383.406952 290.425455 
L 392.613354 281.659487 
L 401.819755 268.510522 
L 411.026157 272.893506 
L 420.232559 272.893506 
L 429.43896 275.085005 
L 438.645362 272.893506 
L 447.851763 270.702021 
" style="fill:none;stroke:#ff7f50;stroke-linecap:square;stroke-width:1.5;"/>
   </g>
   <g id="line2d_85">
    <path clip-path="url(#p641a5db984)" d="M 272.930133 446.779945 
L 282.136535 446.493334 
L 291.342936 443.627223 
L 300.549338 438.468222 
L 309.75574 427.003777 
L 318.962141 396.336386 
L 328.168543 388.024659 
L 337.374944 373.407492 
L 346.581346 354.491158 
L 355.787747 337.294491 
L 364.994149 337.581104 
L 374.200551 336.434657 
L 383.406952 329.555983 
L 392.613354 309.779823 
L 401.819755 319.81121 
L 411.026157 323.82377 
L 420.232559 326.11665 
L 429.43896 327.836317 
L 438.645362 326.689877 
L 447.851763 324.97021 
" style="fill:none;stroke:#6495ed;stroke-linecap:square;stroke-width:1.5;"/>
   </g>
   <g id="patch_33">
    <path d="M 264.184052 457.198125 
L 264.184052 259.525398 
" style="fill:none;stroke:#000000;stroke-linecap:square;stroke-linejoin:miter;stroke-width:0.8;"/>
   </g>
   <g id="patch_34">
    <path d="M 456.597845 457.198125 
L 456.597845 259.525398 
" style="fill:none;stroke:#000000;stroke-linecap:square;stroke-linejoin:miter;stroke-width:0.8;"/>
   </g>
   <g id="patch_35">
    <path d="M 264.184052 457.198125 
L 456.597845 457.198125 
" style="fill:none;stroke:#000000;stroke-linecap:square;stroke-linejoin:miter;stroke-width:0.8;"/>
   </g>
   <g id="patch_36">
    <path d="M 264.184052 259.525398 
L 456.597845 259.525398 
" style="fill:none;stroke:#000000;stroke-linecap:square;stroke-linejoin:miter;stroke-width:0.8;"/>
   </g>
   <g id="text_78">
    <!-- Recall -->
    <g transform="translate(342.490323 253.525398)scale(0.12 -0.12)">
     <defs>
      <path d="M 44.390625 34.1875 
Q 47.5625 33.109375 50.5625 29.59375 
Q 53.5625 26.078125 56.59375 19.921875 
L 66.609375 0 
L 56 0 
L 46.6875 18.703125 
Q 43.0625 26.03125 39.671875 28.421875 
Q 36.28125 30.8125 30.421875 30.8125 
L 19.671875 30.8125 
L 19.671875 0 
L 9.8125 0 
L 9.8125 72.90625 
L 32.078125 72.90625 
Q 44.578125 72.90625 50.734375 67.671875 
Q 56.890625 62.453125 56.890625 51.90625 
Q 56.890625 45.015625 53.6875 40.46875 
Q 50.484375 35.9375 44.390625 34.1875 
z
M 19.671875 64.796875 
L 19.671875 38.921875 
L 32.078125 38.921875 
Q 39.203125 38.921875 42.84375 42.21875 
Q 46.484375 45.515625 46.484375 51.90625 
Q 46.484375 58.296875 42.84375 61.546875 
Q 39.203125 64.796875 32.078125 64.796875 
z
" id="DejaVuSans-82"/>
     </defs>
     <use xlink:href="#DejaVuSans-82"/>
     <use x="64.982422" xlink:href="#DejaVuSans-101"/>
     <use x="126.505859" xlink:href="#DejaVuSans-99"/>
     <use x="181.486328" xlink:href="#DejaVuSans-97"/>
     <use x="242.765625" xlink:href="#DejaVuSans-108"/>
     <use x="270.548828" xlink:href="#DejaVuSans-108"/>
    </g>
   </g>
  </g>
  <g id="axes_8">
   <g id="patch_37">
    <path d="M 495.080603 457.198125 
L 687.494397 457.198125 
L 687.494397 259.525398 
L 495.080603 259.525398 
z
" style="fill:#ffffff;"/>
   </g>
   <g id="matplotlib.axis_15">
    <g id="xtick_29">
     <g id="line2d_86">
      <g>
       <use style="stroke:#000000;stroke-width:0.8;" x="503.826685" xlink:href="#m584d5198be" y="457.198125"/>
      </g>
     </g>
     <g id="text_79">
      <!-- 0 -->
      <g transform="translate(500.645435 471.796562)scale(0.1 -0.1)">
       <use xlink:href="#DejaVuSans-48"/>
      </g>
     </g>
    </g>
    <g id="xtick_30">
     <g id="line2d_87">
      <g>
       <use style="stroke:#000000;stroke-width:0.8;" x="549.858693" xlink:href="#m584d5198be" y="457.198125"/>
      </g>
     </g>
     <g id="text_80">
      <!-- 5 -->
      <g transform="translate(546.677443 471.796562)scale(0.1 -0.1)">
       <use xlink:href="#DejaVuSans-53"/>
      </g>
     </g>
    </g>
    <g id="xtick_31">
     <g id="line2d_88">
      <g>
       <use style="stroke:#000000;stroke-width:0.8;" x="595.890701" xlink:href="#m584d5198be" y="457.198125"/>
      </g>
     </g>
     <g id="text_81">
      <!-- 10 -->
      <g transform="translate(589.528201 471.796562)scale(0.1 -0.1)">
       <use xlink:href="#DejaVuSans-49"/>
       <use x="63.623047" xlink:href="#DejaVuSans-48"/>
      </g>
     </g>
    </g>
    <g id="xtick_32">
     <g id="line2d_89">
      <g>
       <use style="stroke:#000000;stroke-width:0.8;" x="641.922709" xlink:href="#m584d5198be" y="457.198125"/>
      </g>
     </g>
     <g id="text_82">
      <!-- 15 -->
      <g transform="translate(635.560209 471.796562)scale(0.1 -0.1)">
       <use xlink:href="#DejaVuSans-49"/>
       <use x="63.623047" xlink:href="#DejaVuSans-53"/>
      </g>
     </g>
    </g>
   </g>
   <g id="matplotlib.axis_16">
    <g id="ytick_44">
     <g id="line2d_90">
      <g>
       <use style="stroke:#000000;stroke-width:0.8;" x="495.080603" xlink:href="#mfef062ef7b" y="455.359357"/>
      </g>
     </g>
     <g id="text_83">
      <!-- 0.5 -->
      <g transform="translate(472.177478 459.158576)scale(0.1 -0.1)">
       <use xlink:href="#DejaVuSans-48"/>
       <use x="63.623047" xlink:href="#DejaVuSans-46"/>
       <use x="95.410156" xlink:href="#DejaVuSans-53"/>
      </g>
     </g>
    </g>
    <g id="ytick_45">
     <g id="line2d_91">
      <g>
       <use style="stroke:#000000;stroke-width:0.8;" x="495.080603" xlink:href="#mfef062ef7b" y="414.269967"/>
      </g>
     </g>
     <g id="text_84">
      <!-- 0.6 -->
      <g transform="translate(472.177478 418.069186)scale(0.1 -0.1)">
       <use xlink:href="#DejaVuSans-48"/>
       <use x="63.623047" xlink:href="#DejaVuSans-46"/>
       <use x="95.410156" xlink:href="#DejaVuSans-54"/>
      </g>
     </g>
    </g>
    <g id="ytick_46">
     <g id="line2d_92">
      <g>
       <use style="stroke:#000000;stroke-width:0.8;" x="495.080603" xlink:href="#mfef062ef7b" y="373.180577"/>
      </g>
     </g>
     <g id="text_85">
      <!-- 0.7 -->
      <g transform="translate(472.177478 376.979795)scale(0.1 -0.1)">
       <use xlink:href="#DejaVuSans-48"/>
       <use x="63.623047" xlink:href="#DejaVuSans-46"/>
       <use x="95.410156" xlink:href="#DejaVuSans-55"/>
      </g>
     </g>
    </g>
    <g id="ytick_47">
     <g id="line2d_93">
      <g>
       <use style="stroke:#000000;stroke-width:0.8;" x="495.080603" xlink:href="#mfef062ef7b" y="332.091186"/>
      </g>
     </g>
     <g id="text_86">
      <!-- 0.8 -->
      <g transform="translate(472.177478 335.890405)scale(0.1 -0.1)">
       <use xlink:href="#DejaVuSans-48"/>
       <use x="63.623047" xlink:href="#DejaVuSans-46"/>
       <use x="95.410156" xlink:href="#DejaVuSans-56"/>
      </g>
     </g>
    </g>
    <g id="ytick_48">
     <g id="line2d_94">
      <g>
       <use style="stroke:#000000;stroke-width:0.8;" x="495.080603" xlink:href="#mfef062ef7b" y="291.001796"/>
      </g>
     </g>
     <g id="text_87">
      <!-- 0.9 -->
      <g transform="translate(472.177478 294.801015)scale(0.1 -0.1)">
       <use xlink:href="#DejaVuSans-48"/>
       <use x="63.623047" xlink:href="#DejaVuSans-46"/>
       <use x="95.410156" xlink:href="#DejaVuSans-57"/>
      </g>
     </g>
    </g>
   </g>
   <g id="line2d_95">
    <path clip-path="url(#p31f1926187)" d="M 503.826685 434.550348 
L 513.033087 448.213001 
L 522.239488 426.484544 
L 531.44589 393.036908 
L 540.652291 354.017674 
L 549.858693 333.298817 
L 559.065094 301.708862 
L 568.271496 297.067782 
L 577.477898 279.061006 
L 586.684299 277.778794 
L 595.890701 270.608779 
L 605.097102 269.626952 
L 614.303504 274.171831 
L 623.509906 274.20242 
L 632.716307 302.566298 
L 641.922709 280.295166 
L 651.12911 268.510522 
L 660.335512 274.53119 
L 669.541913 277.888001 
L 678.748315 274.281012 
" style="fill:none;stroke:#ff7f50;stroke-linecap:square;stroke-width:1.5;"/>
   </g>
   <g id="line2d_96">
    <path clip-path="url(#p31f1926187)" d="M 503.826685 432.898296 
L 513.033087 420.629608 
L 522.239488 393.539026 
L 531.44589 356.862154 
L 540.652291 338.206679 
L 549.858693 301.46662 
L 559.065094 290.296117 
L 568.271496 283.778082 
L 577.477898 280.436945 
L 586.684299 272.272931 
L 595.890701 272.765988 
L 605.097102 278.319437 
L 614.303504 275.904998 
L 623.509906 301.691792 
L 632.716307 282.389015 
L 641.922709 273.675076 
L 651.12911 281.270429 
L 660.335512 285.039965 
L 669.541913 279.574831 
L 678.748315 271.14232 
" style="fill:none;stroke:#6495ed;stroke-linecap:square;stroke-width:1.5;"/>
   </g>
   <g id="patch_38">
    <path d="M 495.080603 457.198125 
L 495.080603 259.525398 
" style="fill:none;stroke:#000000;stroke-linecap:square;stroke-linejoin:miter;stroke-width:0.8;"/>
   </g>
   <g id="patch_39">
    <path d="M 687.494397 457.198125 
L 687.494397 259.525398 
" style="fill:none;stroke:#000000;stroke-linecap:square;stroke-linejoin:miter;stroke-width:0.8;"/>
   </g>
   <g id="patch_40">
    <path d="M 495.080603 457.198125 
L 687.494397 457.198125 
" style="fill:none;stroke:#000000;stroke-linecap:square;stroke-linejoin:miter;stroke-width:0.8;"/>
   </g>
   <g id="patch_41">
    <path d="M 495.080603 259.525398 
L 687.494397 259.525398 
" style="fill:none;stroke:#000000;stroke-linecap:square;stroke-linejoin:miter;stroke-width:0.8;"/>
   </g>
   <g id="text_88">
    <!-- Area under Curve -->
    <g transform="translate(538.394688 253.525398)scale(0.12 -0.12)">
     <defs>
      <path d="M 45.40625 46.390625 
L 45.40625 75.984375 
L 54.390625 75.984375 
L 54.390625 0 
L 45.40625 0 
L 45.40625 8.203125 
Q 42.578125 3.328125 38.25 0.953125 
Q 33.9375 -1.421875 27.875 -1.421875 
Q 17.96875 -1.421875 11.734375 6.484375 
Q 5.515625 14.40625 5.515625 27.296875 
Q 5.515625 40.1875 11.734375 48.09375 
Q 17.96875 56 27.875 56 
Q 33.9375 56 38.25 53.625 
Q 42.578125 51.265625 45.40625 46.390625 
z
M 14.796875 27.296875 
Q 14.796875 17.390625 18.875 11.75 
Q 22.953125 6.109375 30.078125 6.109375 
Q 37.203125 6.109375 41.296875 11.75 
Q 45.40625 17.390625 45.40625 27.296875 
Q 45.40625 37.203125 41.296875 42.84375 
Q 37.203125 48.484375 30.078125 48.484375 
Q 22.953125 48.484375 18.875 42.84375 
Q 14.796875 37.203125 14.796875 27.296875 
z
" id="DejaVuSans-100"/>
      <path d="M 64.40625 67.28125 
L 64.40625 56.890625 
Q 59.421875 61.53125 53.78125 63.8125 
Q 48.140625 66.109375 41.796875 66.109375 
Q 29.296875 66.109375 22.65625 58.46875 
Q 16.015625 50.828125 16.015625 36.375 
Q 16.015625 21.96875 22.65625 14.328125 
Q 29.296875 6.6875 41.796875 6.6875 
Q 48.140625 6.6875 53.78125 8.984375 
Q 59.421875 11.28125 64.40625 15.921875 
L 64.40625 5.609375 
Q 59.234375 2.09375 53.4375 0.328125 
Q 47.65625 -1.421875 41.21875 -1.421875 
Q 24.65625 -1.421875 15.125 8.703125 
Q 5.609375 18.84375 5.609375 36.375 
Q 5.609375 53.953125 15.125 64.078125 
Q 24.65625 74.21875 41.21875 74.21875 
Q 47.75 74.21875 53.53125 72.484375 
Q 59.328125 70.75 64.40625 67.28125 
z
" id="DejaVuSans-67"/>
     </defs>
     <use xlink:href="#DejaVuSans-65"/>
     <use x="68.408203" xlink:href="#DejaVuSans-114"/>
     <use x="107.271484" xlink:href="#DejaVuSans-101"/>
     <use x="168.794922" xlink:href="#DejaVuSans-97"/>
     <use x="230.074219" xlink:href="#DejaVuSans-32"/>
     <use x="261.861328" xlink:href="#DejaVuSans-117"/>
     <use x="325.240234" xlink:href="#DejaVuSans-110"/>
     <use x="388.619141" xlink:href="#DejaVuSans-100"/>
     <use x="452.095703" xlink:href="#DejaVuSans-101"/>
     <use x="513.619141" xlink:href="#DejaVuSans-114"/>
     <use x="554.732422" xlink:href="#DejaVuSans-32"/>
     <use x="586.519531" xlink:href="#DejaVuSans-67"/>
     <use x="656.34375" xlink:href="#DejaVuSans-117"/>
     <use x="719.722656" xlink:href="#DejaVuSans-114"/>
     <use x="760.835938" xlink:href="#DejaVuSans-118"/>
     <use x="820.015625" xlink:href="#DejaVuSans-101"/>
    </g>
   </g>
  </g>
  <g id="axes_9">
   <g id="patch_42">
    <path d="M 725.977155 457.198125 
L 918.390948 457.198125 
L 918.390948 259.525398 
L 725.977155 259.525398 
z
" style="fill:#ffffff;"/>
   </g>
   <g id="matplotlib.axis_17">
    <g id="xtick_33">
     <g id="line2d_97">
      <g>
       <use style="stroke:#000000;stroke-width:0.8;" x="734.723237" xlink:href="#m584d5198be" y="457.198125"/>
      </g>
     </g>
     <g id="text_89">
      <!-- 0 -->
      <g transform="translate(731.541987 471.796562)scale(0.1 -0.1)">
       <use xlink:href="#DejaVuSans-48"/>
      </g>
     </g>
    </g>
    <g id="xtick_34">
     <g id="line2d_98">
      <g>
       <use style="stroke:#000000;stroke-width:0.8;" x="780.755245" xlink:href="#m584d5198be" y="457.198125"/>
      </g>
     </g>
     <g id="text_90">
      <!-- 5 -->
      <g transform="translate(777.573995 471.796562)scale(0.1 -0.1)">
       <use xlink:href="#DejaVuSans-53"/>
      </g>
     </g>
    </g>
    <g id="xtick_35">
     <g id="line2d_99">
      <g>
       <use style="stroke:#000000;stroke-width:0.8;" x="826.787253" xlink:href="#m584d5198be" y="457.198125"/>
      </g>
     </g>
     <g id="text_91">
      <!-- 10 -->
      <g transform="translate(820.424753 471.796562)scale(0.1 -0.1)">
       <use xlink:href="#DejaVuSans-49"/>
       <use x="63.623047" xlink:href="#DejaVuSans-48"/>
      </g>
     </g>
    </g>
    <g id="xtick_36">
     <g id="line2d_100">
      <g>
       <use style="stroke:#000000;stroke-width:0.8;" x="872.81926" xlink:href="#m584d5198be" y="457.198125"/>
      </g>
     </g>
     <g id="text_92">
      <!-- 15 -->
      <g transform="translate(866.45676 471.796562)scale(0.1 -0.1)">
       <use xlink:href="#DejaVuSans-49"/>
       <use x="63.623047" xlink:href="#DejaVuSans-53"/>
      </g>
     </g>
    </g>
   </g>
   <g id="matplotlib.axis_18">
    <g id="ytick_49">
     <g id="line2d_101">
      <g>
       <use style="stroke:#000000;stroke-width:0.8;" x="725.977155" xlink:href="#mfef062ef7b" y="448.515049"/>
      </g>
     </g>
     <g id="text_93">
      <!-- 0.01 -->
      <g transform="translate(696.71153 452.314268)scale(0.1 -0.1)">
       <use xlink:href="#DejaVuSans-48"/>
       <use x="63.623047" xlink:href="#DejaVuSans-46"/>
       <use x="95.410156" xlink:href="#DejaVuSans-48"/>
       <use x="159.033203" xlink:href="#DejaVuSans-49"/>
      </g>
     </g>
    </g>
    <g id="ytick_50">
     <g id="line2d_102">
      <g>
       <use style="stroke:#000000;stroke-width:0.8;" x="725.977155" xlink:href="#mfef062ef7b" y="421.820513"/>
      </g>
     </g>
     <g id="text_94">
      <!-- 0.02 -->
      <g transform="translate(696.71153 425.619732)scale(0.1 -0.1)">
       <use xlink:href="#DejaVuSans-48"/>
       <use x="63.623047" xlink:href="#DejaVuSans-46"/>
       <use x="95.410156" xlink:href="#DejaVuSans-48"/>
       <use x="159.033203" xlink:href="#DejaVuSans-50"/>
      </g>
     </g>
    </g>
    <g id="ytick_51">
     <g id="line2d_103">
      <g>
       <use style="stroke:#000000;stroke-width:0.8;" x="725.977155" xlink:href="#mfef062ef7b" y="395.125976"/>
      </g>
     </g>
     <g id="text_95">
      <!-- 0.03 -->
      <g transform="translate(696.71153 398.925195)scale(0.1 -0.1)">
       <use xlink:href="#DejaVuSans-48"/>
       <use x="63.623047" xlink:href="#DejaVuSans-46"/>
       <use x="95.410156" xlink:href="#DejaVuSans-48"/>
       <use x="159.033203" xlink:href="#DejaVuSans-51"/>
      </g>
     </g>
    </g>
    <g id="ytick_52">
     <g id="line2d_104">
      <g>
       <use style="stroke:#000000;stroke-width:0.8;" x="725.977155" xlink:href="#mfef062ef7b" y="368.43144"/>
      </g>
     </g>
     <g id="text_96">
      <!-- 0.04 -->
      <g transform="translate(696.71153 372.230659)scale(0.1 -0.1)">
       <use xlink:href="#DejaVuSans-48"/>
       <use x="63.623047" xlink:href="#DejaVuSans-46"/>
       <use x="95.410156" xlink:href="#DejaVuSans-48"/>
       <use x="159.033203" xlink:href="#DejaVuSans-52"/>
      </g>
     </g>
    </g>
    <g id="ytick_53">
     <g id="line2d_105">
      <g>
       <use style="stroke:#000000;stroke-width:0.8;" x="725.977155" xlink:href="#mfef062ef7b" y="341.736903"/>
      </g>
     </g>
     <g id="text_97">
      <!-- 0.05 -->
      <g transform="translate(696.71153 345.536122)scale(0.1 -0.1)">
       <use xlink:href="#DejaVuSans-48"/>
       <use x="63.623047" xlink:href="#DejaVuSans-46"/>
       <use x="95.410156" xlink:href="#DejaVuSans-48"/>
       <use x="159.033203" xlink:href="#DejaVuSans-53"/>
      </g>
     </g>
    </g>
    <g id="ytick_54">
     <g id="line2d_106">
      <g>
       <use style="stroke:#000000;stroke-width:0.8;" x="725.977155" xlink:href="#mfef062ef7b" y="315.042367"/>
      </g>
     </g>
     <g id="text_98">
      <!-- 0.06 -->
      <g transform="translate(696.71153 318.841586)scale(0.1 -0.1)">
       <use xlink:href="#DejaVuSans-48"/>
       <use x="63.623047" xlink:href="#DejaVuSans-46"/>
       <use x="95.410156" xlink:href="#DejaVuSans-48"/>
       <use x="159.033203" xlink:href="#DejaVuSans-54"/>
      </g>
     </g>
    </g>
    <g id="ytick_55">
     <g id="line2d_107">
      <g>
       <use style="stroke:#000000;stroke-width:0.8;" x="725.977155" xlink:href="#mfef062ef7b" y="288.34783"/>
      </g>
     </g>
     <g id="text_99">
      <!-- 0.07 -->
      <g transform="translate(696.71153 292.147049)scale(0.1 -0.1)">
       <use xlink:href="#DejaVuSans-48"/>
       <use x="63.623047" xlink:href="#DejaVuSans-46"/>
       <use x="95.410156" xlink:href="#DejaVuSans-48"/>
       <use x="159.033203" xlink:href="#DejaVuSans-55"/>
      </g>
     </g>
    </g>
    <g id="ytick_56">
     <g id="line2d_108">
      <g>
       <use style="stroke:#000000;stroke-width:0.8;" x="725.977155" xlink:href="#mfef062ef7b" y="261.653294"/>
      </g>
     </g>
     <g id="text_100">
      <!-- 0.08 -->
      <g transform="translate(696.71153 265.452513)scale(0.1 -0.1)">
       <use xlink:href="#DejaVuSans-48"/>
       <use x="63.623047" xlink:href="#DejaVuSans-46"/>
       <use x="95.410156" xlink:href="#DejaVuSans-48"/>
       <use x="159.033203" xlink:href="#DejaVuSans-56"/>
      </g>
     </g>
    </g>
   </g>
   <g id="line2d_109">
    <path clip-path="url(#pb3b0de97f5)" d="M 734.723237 268.510522 
L 743.929638 434.150409 
L 753.13604 441.004086 
L 762.342441 440.152704 
L 771.548843 446.976523 
L 780.755245 447.853142 
L 789.961646 417.607327 
L 799.168048 442.094845 
L 808.374449 439.523108 
L 817.580851 428.101767 
L 826.787253 428.499696 
L 835.993654 443.310425 
L 845.200056 448.213001 
L 854.406457 447.724103 
L 863.612859 406.108578 
L 872.81926 435.484198 
L 882.025662 445.253926 
L 891.232064 436.683153 
L 900.438465 429.119143 
L 909.644867 424.734453 
" style="fill:none;stroke:#ff7f50;stroke-linecap:square;stroke-width:1.5;"/>
   </g>
   <g id="line2d_110">
    <path clip-path="url(#pb3b0de97f5)" d="M 734.723237 438.550522 
L 743.929638 441.236084 
L 753.13604 439.50617 
L 762.342441 443.536761 
L 771.548843 443.118073 
L 780.755245 405.45699 
L 789.961646 434.309202 
L 799.168048 436.174587 
L 808.374449 428.325394 
L 817.580851 426.096515 
L 826.787253 438.447094 
L 835.993654 442.542936 
L 845.200056 442.074802 
L 854.406457 388.22214 
L 863.612859 426.806323 
L 872.81926 440.349816 
L 882.025662 435.168441 
L 891.232064 429.708513 
L 900.438465 426.04291 
L 909.644867 424.540775 
" style="fill:none;stroke:#6495ed;stroke-linecap:square;stroke-width:1.5;"/>
   </g>
   <g id="patch_43">
    <path d="M 725.977155 457.198125 
L 725.977155 259.525398 
" style="fill:none;stroke:#000000;stroke-linecap:square;stroke-linejoin:miter;stroke-width:0.8;"/>
   </g>
   <g id="patch_44">
    <path d="M 918.390948 457.198125 
L 918.390948 259.525398 
" style="fill:none;stroke:#000000;stroke-linecap:square;stroke-linejoin:miter;stroke-width:0.8;"/>
   </g>
   <g id="patch_45">
    <path d="M 725.977155 457.198125 
L 918.390948 457.198125 
" style="fill:none;stroke:#000000;stroke-linecap:square;stroke-linejoin:miter;stroke-width:0.8;"/>
   </g>
   <g id="patch_46">
    <path d="M 725.977155 259.525398 
L 918.390948 259.525398 
" style="fill:none;stroke:#000000;stroke-linecap:square;stroke-linejoin:miter;stroke-width:0.8;"/>
   </g>
   <g id="text_101">
    <!-- Mean absolute error -->
    <g transform="translate(761.703114 253.525398)scale(0.12 -0.12)">
     <defs>
      <path d="M 9.8125 72.90625 
L 24.515625 72.90625 
L 43.109375 23.296875 
L 61.8125 72.90625 
L 76.515625 72.90625 
L 76.515625 0 
L 66.890625 0 
L 66.890625 64.015625 
L 48.09375 14.015625 
L 38.1875 14.015625 
L 19.390625 64.015625 
L 19.390625 0 
L 9.8125 0 
z
" id="DejaVuSans-77"/>
      <path d="M 48.6875 27.296875 
Q 48.6875 37.203125 44.609375 42.84375 
Q 40.53125 48.484375 33.40625 48.484375 
Q 26.265625 48.484375 22.1875 42.84375 
Q 18.109375 37.203125 18.109375 27.296875 
Q 18.109375 17.390625 22.1875 11.75 
Q 26.265625 6.109375 33.40625 6.109375 
Q 40.53125 6.109375 44.609375 11.75 
Q 48.6875 17.390625 48.6875 27.296875 
z
M 18.109375 46.390625 
Q 20.953125 51.265625 25.265625 53.625 
Q 29.59375 56 35.59375 56 
Q 45.5625 56 51.78125 48.09375 
Q 58.015625 40.1875 58.015625 27.296875 
Q 58.015625 14.40625 51.78125 6.484375 
Q 45.5625 -1.421875 35.59375 -1.421875 
Q 29.59375 -1.421875 25.265625 0.953125 
Q 20.953125 3.328125 18.109375 8.203125 
L 18.109375 0 
L 9.078125 0 
L 9.078125 75.984375 
L 18.109375 75.984375 
z
" id="DejaVuSans-98"/>
     </defs>
     <use xlink:href="#DejaVuSans-77"/>
     <use x="86.279297" xlink:href="#DejaVuSans-101"/>
     <use x="147.802734" xlink:href="#DejaVuSans-97"/>
     <use x="209.082031" xlink:href="#DejaVuSans-110"/>
     <use x="272.460938" xlink:href="#DejaVuSans-32"/>
     <use x="304.248047" xlink:href="#DejaVuSans-97"/>
     <use x="365.527344" xlink:href="#DejaVuSans-98"/>
     <use x="429.003906" xlink:href="#DejaVuSans-115"/>
     <use x="481.103516" xlink:href="#DejaVuSans-111"/>
     <use x="542.285156" xlink:href="#DejaVuSans-108"/>
     <use x="570.068359" xlink:href="#DejaVuSans-117"/>
     <use x="633.447266" xlink:href="#DejaVuSans-116"/>
     <use x="672.65625" xlink:href="#DejaVuSans-101"/>
     <use x="734.179688" xlink:href="#DejaVuSans-32"/>
     <use x="765.966797" xlink:href="#DejaVuSans-101"/>
     <use x="827.490234" xlink:href="#DejaVuSans-114"/>
     <use x="866.853516" xlink:href="#DejaVuSans-114"/>
     <use x="905.716797" xlink:href="#DejaVuSans-111"/>
     <use x="966.898438" xlink:href="#DejaVuSans-114"/>
    </g>
   </g>
  </g>
  <g id="axes_10"/>
  <g id="legend_1">
   <g id="patch_47">
    <path d="M 868.2875 393.754375 
L 949.66875 393.754375 
Q 951.66875 393.754375 951.66875 391.754375 
L 951.66875 363.398125 
Q 951.66875 361.398125 949.66875 361.398125 
L 868.2875 361.398125 
Q 866.2875 361.398125 866.2875 363.398125 
L 866.2875 391.754375 
Q 866.2875 393.754375 868.2875 393.754375 
z
" style="fill:#ffffff;opacity:0.8;stroke:#cccccc;stroke-linejoin:miter;"/>
   </g>
   <g id="line2d_111">
    <path d="M 870.2875 369.496562 
L 890.2875 369.496562 
" style="fill:none;stroke:#ff7f50;stroke-linecap:square;stroke-width:1.5;"/>
   </g>
   <g id="line2d_112"/>
   <g id="text_102">
    <!-- Training -->
    <g transform="translate(898.2875 372.996562)scale(0.1 -0.1)">
     <use xlink:href="#DejaVuSans-84"/>
     <use x="46.333984" xlink:href="#DejaVuSans-114"/>
     <use x="87.447266" xlink:href="#DejaVuSans-97"/>
     <use x="148.726562" xlink:href="#DejaVuSans-105"/>
     <use x="176.509766" xlink:href="#DejaVuSans-110"/>
     <use x="239.888672" xlink:href="#DejaVuSans-105"/>
     <use x="267.671875" xlink:href="#DejaVuSans-110"/>
     <use x="331.050781" xlink:href="#DejaVuSans-103"/>
    </g>
   </g>
   <g id="line2d_113">
    <path d="M 870.2875 384.174687 
L 890.2875 384.174687 
" style="fill:none;stroke:#6495ed;stroke-linecap:square;stroke-width:1.5;"/>
   </g>
   <g id="line2d_114"/>
   <g id="text_103">
    <!-- Validation -->
    <g transform="translate(898.2875 387.674687)scale(0.1 -0.1)">
     <defs>
      <path d="M 28.609375 0 
L 0.78125 72.90625 
L 11.078125 72.90625 
L 34.1875 11.53125 
L 57.328125 72.90625 
L 67.578125 72.90625 
L 39.796875 0 
z
" id="DejaVuSans-86"/>
     </defs>
     <use xlink:href="#DejaVuSans-86"/>
     <use x="60.658203" xlink:href="#DejaVuSans-97"/>
     <use x="121.9375" xlink:href="#DejaVuSans-108"/>
     <use x="149.720703" xlink:href="#DejaVuSans-105"/>
     <use x="177.503906" xlink:href="#DejaVuSans-100"/>
     <use x="240.980469" xlink:href="#DejaVuSans-97"/>
     <use x="302.259766" xlink:href="#DejaVuSans-116"/>
     <use x="341.46875" xlink:href="#DejaVuSans-105"/>
     <use x="369.251953" xlink:href="#DejaVuSans-111"/>
     <use x="430.433594" xlink:href="#DejaVuSans-110"/>
    </g>
   </g>
  </g>
 </g>
 <defs>
  <clipPath id="pfb8fec61c5">
   <rect height="197.672727" width="192.413793" x="33.2875" y="22.318125"/>
  </clipPath>
  <clipPath id="pae6b73810a">
   <rect height="197.672727" width="192.413793" x="264.184052" y="22.318125"/>
  </clipPath>
  <clipPath id="pcd7586c581">
   <rect height="197.672727" width="192.413793" x="495.080603" y="22.318125"/>
  </clipPath>
  <clipPath id="p0cc26476cd">
   <rect height="197.672727" width="192.413793" x="725.977155" y="22.318125"/>
  </clipPath>
  <clipPath id="pf7b284769e">
   <rect height="197.672727" width="192.413793" x="956.873707" y="22.318125"/>
  </clipPath>
  <clipPath id="p440df6e6ad">
   <rect height="197.672727" width="192.413793" x="33.2875" y="259.525398"/>
  </clipPath>
  <clipPath id="p641a5db984">
   <rect height="197.672727" width="192.413793" x="264.184052" y="259.525398"/>
  </clipPath>
  <clipPath id="p31f1926187">
   <rect height="197.672727" width="192.413793" x="495.080603" y="259.525398"/>
  </clipPath>
  <clipPath id="pb3b0de97f5">
   <rect height="197.672727" width="192.413793" x="725.977155" y="259.525398"/>
  </clipPath>
 </defs>
</svg>
